<svg xmlns="http://www.w3.org/2000/svg" viewBox="0 0 600 185.34"><defs><style>.cls-1{fill:#089dd9;}.cls-2{fill:#ff9d1c;}.cls-3{fill:#e3117f;}.cls-4{fill:#e5117f;}.cls-5{fill:#1b203f;}</style></defs><title>vyne-full-logo</title><g id="Layer_2" data-name="Layer 2"><g id="Your_design" data-name="Your design"><circle class="cls-1" cx="18.51" cy="18.51" r="18.51" transform="translate(-7.57 20.72) rotate(-49.83)"/><circle class="cls-2" cx="189.87" cy="18.51" r="18.51" transform="translate(7.63 74.93) rotate(-22.77)"/><circle class="cls-3" cx="60.91" cy="92.67" r="18.51"/><circle class="cls-4" cx="103.73" cy="18.51" r="18.51" transform="translate(50.21 109.27) rotate(-69.6)"/><path class="cls-4" d="M85.25,57.28a49.5,49.5,0,0,1,25.4-21.61L85.44,21.12A49.66,49.66,0,0,1,54.51,75.34L79.16,89.57A49.43,49.43,0,0,1,85.25,57.28Z"/><circle class="cls-1" cx="103.73" cy="166.83" r="18.51" transform="translate(-84.03 224.61) rotate(-75.23)"/><circle class="cls-1" cx="146.54" cy="92.67" r="18.51"/><path class="cls-1" d="M128.06,131.44a49.52,49.52,0,0,1,25.41-21.61L128.26,95.27A49.7,49.7,0,0,1,97.33,149.5L122,163.73A49.56,49.56,0,0,1,128.06,131.44Z"/><path class="cls-5" d="M342.29,24.53l-.55,1.39L326,65.86l-25.62,64.79H281.75L239.87,24.53h24l21.42,56.09c.38,1,.91,2.52,1.56,4.46s1.31,4,2,6.09,1.22,4.16,1.71,6.12a37.25,37.25,0,0,1,.87,4.36h.43a33.5,33.5,0,0,1,.91-4.36c.51-2,1.08-4,1.71-6.12s1.27-4.15,1.92-6.09,1.17-3.44,1.56-4.46L313.87,38.9l.48-1.26a21.48,21.48,0,0,1,19.79-13.11Z"/><path class="cls-5" d="M422.15,56l-33.4,80.14a97.53,97.53,0,0,1-4.24,8.92l-.55,1a33.7,33.7,0,0,1-1.86,3,21.52,21.52,0,0,1-24.54,7.07L366,136.39c.18-.39.36-.8.53-1.24l3-6.94L363.8,114.5,343.33,65.42,339.39,56h23.44L376.7,94.56c.1.5.37,1.39.8,2.69s.91,2.75,1.42,4.32.95,3.09,1.34,4.54a28.06,28.06,0,0,1,.72,3.21h.3a24.26,24.26,0,0,1,.61-2.84c.32-1.2.69-2.52,1.12-4s.88-2.82,1.31-4.17.82-2.52,1.16-3.5L399.42,56Z"/><path class="cls-5" d="M503.81,86.67v44a21.47,21.47,0,0,1-21.41-21.48V90a37.06,37.06,0,0,0-.66-7.23,17.47,17.47,0,0,0-2.21-5.83,10.55,10.55,0,0,0-4.25-3.88,15,15,0,0,0-6.83-1.36q-8.34,0-12,5.16c-2.47,3.45-3.7,7.87-3.7,13.29v40.51H431.15V56h20.18V66.15h.28a29.81,29.81,0,0,1,8.94-8.49c3.67-2.3,8.58-3.47,14.73-3.47q14.6,0,21.55,8.83T503.81,86.67Z"/><path class="cls-5" d="M590,74.35a48.69,48.69,0,0,0-8.24-10.41,35.26,35.26,0,0,0-11.82-7.57,34.17,34.17,0,0,0-15-2.08q-8.22.57-17.65,6t-14,12.35a35.46,35.46,0,0,0-5.45,28.54A46.59,46.59,0,0,0,522,112.69l.66,1.19A41.65,41.65,0,0,0,532,125a35.94,35.94,0,0,0,8.7,5.46A34.07,34.07,0,0,0,545,132a38.45,38.45,0,0,0,15.72,1.24,44.07,44.07,0,0,0,15.11-4.85c1-.48,1.9-1,2.85-1.55Q588.81,121,594,113.49a32.34,32.34,0,0,0,6-15.26l-.3-.09h0a21.34,21.34,0,0,0-15.25,2.39A21,21,0,0,0,579,105c-.28.38-.59.75-.91,1.11a.27.27,0,0,0-.07.08,28.3,28.3,0,0,1-7,5.48,29.11,29.11,0,0,1-7.22,3,20.64,20.64,0,0,1-7.37.59,17.17,17.17,0,0,1-6.91-2.32,19.38,19.38,0,0,1-5.85-5.48l48.66-28.1A29.48,29.48,0,0,0,590,74.35ZM537.26,96.27q-2.43-7.55-.06-13.25a18.23,18.23,0,0,1,8-9,18,18,0,0,1,11.73-2.43q6.06.85,11.38,6.72Z"/></g></g></svg>