<svg width="24" height="24" viewBox="0 0 24 24" fill="none" xmlns="http://www.w3.org/2000/svg">
<path fill-rule="evenodd" clip-rule="evenodd" d="M7.55279 2.10558C8.04676 1.85859 8.64744 2.05881 8.89443 2.55279L9.41156 3.58706C10.2122 3.2042 11.0956 3.00001 12 3.00001C12.9044 3.00001 13.7878 3.2042 14.5884 3.58706L15.1056 2.55279C15.3526 2.05881 15.9532 1.85859 16.4472 2.10558C16.9412 2.35257 17.1414 2.95324 16.8944 3.44722L16.2404 4.75517C16.2412 4.7559 16.2419 4.75663 16.2426 4.75736C17.3679 5.88258 18 7.40871 18 9.00001V17C18 17.5304 17.7893 18.0391 17.4142 18.4142C17.0391 18.7893 16.5304 19 16 19V21C16 21.5523 15.5523 22 15 22C14.4477 22 14 21.5523 14 21V19H10V21C10 21.5523 9.55228 22 9 22C8.44772 22 8 21.5523 8 21V19C7.46957 19 6.96086 18.7893 6.58579 18.4142C6.21071 18.0391 6 17.5304 6 17V9.00001C6 7.40871 6.63214 5.88258 7.75736 4.75736C7.75809 4.75663 7.75882 4.7559 7.75955 4.75517L7.10557 3.44722C6.85858 2.95324 7.05881 2.35257 7.55279 2.10558ZM9.58684 5.8099C9.44109 5.92015 9.30228 6.04088 9.17157 6.17158C8.66203 6.68112 8.30416 7.31398 8.12701 8.00001H15.873C15.6958 7.31398 15.338 6.68112 14.8284 6.17158C14.6977 6.04087 14.5589 5.92015 14.4132 5.80989C14.4037 5.80309 14.3945 5.79613 14.3853 5.78904C13.6998 5.27973 12.8643 5.00001 12 5.00001C11.1357 5.00001 10.3003 5.27973 9.61467 5.78903C9.60554 5.79613 9.59626 5.80309 9.58684 5.8099ZM16 10H8V17H16V10ZM4 9.00001C4.55228 9.00001 5 9.44772 5 10V16C5 16.5523 4.55228 17 4 17C3.44772 17 3 16.5523 3 16V10C3 9.44772 3.44772 9.00001 4 9.00001ZM20 9.00001C20.5523 9.00001 21 9.44772 21 10V16C21 16.5523 20.5523 17 20 17C19.4477 17 19 16.5523 19 16V10C19 9.44772 19.4477 9.00001 20 9.00001Z" fill="#313D49" fill-opacity="0.9"/>
</svg>
