<svg width="24" height="24" viewBox="0 0 24 24" fill="none" xmlns="http://www.w3.org/2000/svg">
<path fill-rule="evenodd" clip-rule="evenodd" d="M11.8787 1.87868C12.4413 1.31607 13.2044 1 14 1C14.2652 1 14.5196 1.10536 14.7071 1.29289C14.8946 1.48043 15 1.73478 15 2C15 2.79565 14.6839 3.55871 14.1213 4.12132C13.5587 4.68393 12.7956 5 12 5C11.7348 5 11.4804 4.89464 11.2929 4.70711C11.1054 4.51957 11 4.26522 11 4C11 3.20435 11.3161 2.44129 11.8787 1.87868ZM15.5726 6.00261C15.9839 6.03131 16.7173 6.19404 17.4866 6.54423C18.2678 6.89989 19.1773 7.49017 19.8248 8.43449C19.9846 8.66755 20.0383 8.95735 19.9727 9.23222C19.907 9.50708 19.7282 9.74135 19.4803 9.87708C19.3889 9.92713 19.2957 9.96461 19.1937 10.0057C18.97 10.0957 18.7036 10.2028 18.3199 10.4971C17.8434 10.8624 17.4945 11.3357 17.5 11.9903C17.5175 13.5633 18.7354 13.8929 19.2036 14.0196C19.2598 14.0348 19.3051 14.0471 19.3363 14.0582C19.7343 14.2004 20 14.5774 20 15C20 16.3392 19.2071 17.8116 18.3386 18.8806C17.8874 19.436 17.3686 19.9422 16.8322 20.3185C16.3207 20.6775 15.6774 21 15 21C14.1077 21 13.5769 20.8443 13.1302 20.7041C13.1184 20.7005 13.1068 20.6968 13.0953 20.6932C12.7329 20.5794 12.4802 20.5 12 20.5C11.4682 20.5 11.0882 20.588 10.6694 20.6992C10.6294 20.7098 10.5883 20.7209 10.5462 20.7323C10.1466 20.8401 9.65263 20.9733 9.04224 20.9991C9.02817 20.9997 9.01409 21 9 21C8.11938 21 7.37897 20.5119 6.82414 19.9571C6.25494 19.3879 5.76025 18.6316 5.35557 17.8222C4.55015 16.2114 4 14.1838 4 12.5C4 11.1425 4.26748 9.57296 5.01307 8.30546C5.78855 6.98715 7.09161 5.99998 9 5.99998C9.80582 5.99998 10.5789 6.35613 11.0858 6.59633C11.1616 6.63227 11.2317 6.6659 11.2974 6.6974C11.4845 6.78709 11.6357 6.85959 11.7805 6.91935C11.8987 6.96811 11.9658 6.98752 11.9948 6.99517C12.0243 6.98662 12.1013 6.96384 12.2457 6.90408C12.3834 6.84715 12.4971 6.79541 12.6288 6.7355C12.7494 6.68063 12.8851 6.6189 13.068 6.54005C13.6978 6.26855 14.5974 5.92837 15.5726 6.00261ZM13.0103 8.75217C12.7679 8.85243 12.3881 8.99998 12 8.99998C11.6211 8.99998 11.2628 8.8693 11.0176 8.76812C10.8162 8.685 10.5934 8.57811 10.3934 8.48211C10.3365 8.45481 10.2814 8.42838 10.2292 8.40363C9.68106 8.14384 9.29418 7.99998 9 7.99998C7.90839 7.99998 7.21145 8.51282 6.73693 9.3195C6.23252 10.177 6 11.3574 6 12.5C6 13.8162 6.44985 15.5386 7.14443 16.9278C7.48975 17.6184 7.87006 18.1746 8.23836 18.5429C8.60573 18.9102 8.85966 18.9935 8.98501 18.9996C9.35164 18.9811 9.63774 18.9046 10.0431 18.7963C10.0797 18.7866 10.1172 18.7765 10.1559 18.7663C10.6348 18.639 11.2108 18.5 12 18.5C12.788 18.5 13.2782 18.6541 13.685 18.7821C13.6997 18.7867 13.7143 18.7913 13.7288 18.7958C14.0791 18.9057 14.3923 19 15 19C15.0726 19 15.3043 18.9475 15.6834 18.6814C16.0377 18.4328 16.4251 18.064 16.7864 17.6194C17.3139 16.9702 17.6958 16.274 17.8787 15.688C16.946 15.2633 15.524 14.2356 15.5001 12.0108L15.5 12.0087C15.4868 10.4938 16.3459 9.49039 17.1029 8.90992C17.1774 8.85281 17.2552 8.79734 17.3344 8.74399C17.1183 8.59554 16.8889 8.46962 16.6579 8.36449C16.0735 8.09845 15.5715 8.00707 15.4328 7.99772L15.4228 7.99705L15.4228 7.997C14.9668 7.96167 14.4532 8.12085 13.8597 8.37667C13.7638 8.41803 13.6401 8.47369 13.5117 8.53146C13.3329 8.6119 13.145 8.69643 13.0103 8.75217Z" fill="#313D49" fill-opacity="0.9"/>
</svg>
