<svg width="24" height="24" viewBox="0 0 24 24" fill="none" xmlns="http://www.w3.org/2000/svg">
<path d="M3.5 2C2.39543 2 1.5 2.89543 1.5 4V20C1.5 21.1046 2.39544 22 3.5 22H11C11.5523 22 12 21.5523 12 21C12 20.4477 11.5523 20 11 20H3.5V4H9.03162L11.2318 6.64018C11.4218 6.86818 11.7032 7 12 7H20.5V11.5C20.5 12.0523 20.9477 12.5 21.5 12.5C22.0523 12.5 22.5 12.0523 22.5 11.5V7C22.5 5.89542 21.6046 5 20.5 5H12.4684L10.2682 2.35982C10.0782 2.13182 9.79678 2 9.5 2H3.5Z" fill="#313D49" fill-opacity="0.9"/>
<path d="M22.274 16.1332C22.6237 15.7058 22.5607 15.0758 22.1332 14.726C21.7058 14.3763 21.0758 14.4393 20.726 14.8668L16.8524 19.6013L15.1247 18.2191C14.6934 17.8741 14.0641 17.944 13.7191 18.3753C13.3741 18.8066 13.444 19.4359 13.8753 19.7809L16.3753 21.7809C16.8032 22.1232 17.4269 22.0574 17.774 21.6332L22.274 16.1332Z" fill="#313D49" fill-opacity="0.9"/>
</svg>
