<svg width="24" height="24" viewBox="0 0 24 24" fill="none" xmlns="http://www.w3.org/2000/svg">
<path d="M17.5 6.66985C17.9783 6.94599 18.1421 7.55758 17.866 8.03588C17.5899 8.51417 16.9783 8.67805 16.5 8.4019C16.0217 8.12576 15.8578 7.51417 16.1339 7.03588C16.4101 6.55758 17.0217 6.39371 17.5 6.66985Z" fill="#313D49" fill-opacity="0.9"/>
<path fill-rule="evenodd" clip-rule="evenodd" d="M20.4246 4.07541C18.8625 2.51331 16.3299 2.51331 14.7678 4.07541L5.57538 13.2678C4.25745 14.5857 4.05144 16.5945 4.95737 18.1284L2.29289 20.7929C1.90237 21.1834 1.90237 21.8166 2.29289 22.2071C2.68342 22.5976 3.31658 22.5976 3.70711 22.2071L6.37158 19.5426C7.90548 20.4486 9.91429 20.2426 11.2322 18.9247L20.4246 9.73227C21.9867 8.17017 21.9867 5.63751 20.4246 4.07541ZM16.182 5.48963C16.963 4.70858 18.2294 4.70858 19.0104 5.48963C19.7915 6.27067 19.7915 7.537 19.0104 8.31805L13.1213 14.2071L10.2929 11.3787L16.182 5.48963ZM8.87869 12.7929L6.98959 14.682C6.20854 15.4631 6.20854 16.7294 6.98959 17.5104C7.77064 18.2915 9.03697 18.2915 9.81802 17.5104L11.7071 15.6213L8.87869 12.7929Z" fill="#313D49" fill-opacity="0.9"/>
</svg>
