<svg width="24" height="24" viewBox="0 0 24 24" fill="none" xmlns="http://www.w3.org/2000/svg">
<path d="M9 10C8.44772 10 8 10.4477 8 11C8 11.5523 8.44772 12 9 12H15C15.5523 12 16 11.5523 16 11C16 10.4477 15.5523 10 15 10H9Z" fill="#313D49" fill-opacity="0.9"/>
<path d="M8 15C8 14.4477 8.44772 14 9 14H15C15.5523 14 16 14.4477 16 15C16 15.5523 15.5523 16 15 16H9C8.44772 16 8 15.5523 8 15Z" fill="#313D49" fill-opacity="0.9"/>
<path d="M9 6C8.44772 6 8 6.44772 8 7C8 7.55228 8.44772 8 9 8H15C15.5523 8 16 7.55228 16 7C16 6.44772 15.5523 6 15 6H9Z" fill="#313D49" fill-opacity="0.9"/>
<path fill-rule="evenodd" clip-rule="evenodd" d="M6 1C4.89541 1 4 1.89544 4 3V22C4 22.3746 4.20935 22.7178 4.54242 22.8892C4.87549 23.0606 5.27642 23.0315 5.58124 22.8137L8.5 20.7289L11.4188 22.8137C11.7665 23.0621 12.2335 23.0621 12.5812 22.8137L15.5 20.7289L18.4188 22.8137C18.7236 23.0315 19.1245 23.0606 19.4576 22.8892C19.7907 22.7178 20 22.3746 20 22V3C20 1.89544 19.1046 1 18 1H6ZM6 3H18V20.0568L16.0812 18.6863C15.7335 18.4379 15.2665 18.4379 14.9188 18.6863L12 20.7711L9.08124 18.6863C8.73354 18.4379 8.26646 18.4379 7.91876 18.6863L6 20.0568V3Z" fill="#313D49" fill-opacity="0.9"/>
</svg>
