<svg width="24" height="24" viewBox="0 0 24 24" fill="none" xmlns="http://www.w3.org/2000/svg">
<path fill-rule="evenodd" clip-rule="evenodd" d="M9.5 2C9.5 1.44772 9.05229 1 8.5 1C7.94772 1 7.5 1.44772 7.5 2V3H3C1.89543 3 1 3.89543 1 5V21C1 22.1046 1.89543 23 3 23H21C22.1046 23 23 22.1046 23 21V5C23 3.89543 22.1046 3 21 3H16.5V2C16.5 1.44772 16.0523 1 15.5 1C14.9477 1 14.5 1.44772 14.5 2V3H9.5V2ZM21 21V17H16.5V21H21ZM14.5 21V17H9.5V21H14.5ZM7.5 21V17H3V21H7.5ZM3 9V5H7.5V6C7.5 6.55228 7.94772 7 8.5 7C9.05229 7 9.5 6.55228 9.5 6V5H14.5V6C14.5 6.55228 14.9477 7 15.5 7C16.0523 7 16.5 6.55228 16.5 6V5H21V9H3ZM3 15V11H7.5V15H3ZM21 11H16.5V15H21V11ZM14.5 15V11H9.5V15H14.5Z" fill="#313D49" fill-opacity="0.9"/>
</svg>
