<svg width="24" height="24" viewBox="0 0 24 24" fill="none" xmlns="http://www.w3.org/2000/svg">
<path d="M13.9113 1.07423C16.2546 0.77041 18.7608 1.396 20.617 3.01033C22.4876 4.63723 23.2861 6.92039 22.9087 9.12243C22.81 9.69855 22.2697 10.0844 21.7019 9.98417C21.1342 9.88397 20.7539 9.33571 20.8527 8.75958C21.0973 7.33215 20.6007 5.78523 19.2589 4.6182C17.9026 3.4386 16.0055 2.93757 14.1758 3.17479C13.6042 3.24891 13.0816 2.83876 13.0085 2.25871C12.9355 1.67865 13.3397 1.14835 13.9113 1.07423Z" fill="#313D49" fill-opacity="0.9"/>
<path d="M13.8791 5.77009C14.9945 5.60382 16.1755 5.95008 17.0365 6.81103C17.8975 7.67205 18.2437 8.8532 18.0775 9.96848C18.0023 10.4727 17.5326 10.8205 17.0284 10.7454C16.5241 10.6702 16.1763 10.2005 16.2515 9.69629C16.3352 9.13472 16.1609 8.54632 15.7311 8.11651C15.3012 7.68665 14.7128 7.51236 14.1513 7.59607C13.6471 7.67123 13.1774 7.32341 13.1022 6.81918C13.0271 6.31495 13.3749 5.84525 13.8791 5.77009Z" fill="#313D49" fill-opacity="0.9"/>
<path fill-rule="evenodd" clip-rule="evenodd" d="M10.0578 10.9089C9.97191 10.708 9.91042 10.5323 9.86824 10.3971L10.7999 8.5338C11.0724 7.98886 11.0584 7.34465 10.7628 6.8121L9.63363 4.77812C9.30812 4.19188 8.69027 3.82809 8.01957 3.82809H5.67832C3.90881 3.82809 2.53099 5.50495 3.13121 7.28381C3.92073 9.62368 5.46605 13.4032 7.91017 15.8473C10.3543 18.2914 14.1338 19.8367 16.4736 20.6262C18.2525 21.2265 19.9294 19.8487 19.9294 18.0791V15.7375C19.9294 15.0673 19.5661 14.4497 18.9802 14.1239L16.9406 12.99C16.4078 12.6938 15.7631 12.6796 15.2178 12.9523L13.3539 13.8843C13.2195 13.8426 13.0448 13.7817 12.8449 13.6965C12.3514 13.4862 11.7276 13.1375 11.1737 12.5837C10.6198 12.0298 10.2696 11.4044 10.0578 10.9089ZM5.67832 5.67425C5.06292 5.67425 4.7182 6.21266 4.88047 6.69358C5.65696 8.99485 7.09336 12.4197 9.2156 14.5419C11.3378 16.6641 14.7626 18.1005 17.0639 18.877C17.5448 19.0393 18.0832 18.6946 18.0832 18.0791V15.7375L16.0435 14.6035L13.8683 15.6911C13.5098 15.8215 13.3012 15.7853 12.9266 15.6834C12.724 15.6249 12.4449 15.5328 12.1211 15.3949C11.4772 15.1205 10.6338 14.6546 9.86831 13.8892C9.10298 13.1238 8.63588 12.2793 8.36028 11.6346C8.22168 11.3104 8.12899 11.0309 8.07001 10.828C8.03617 10.7116 8.00453 10.5942 7.98092 10.4753L7.98066 10.4739C7.98066 10.4739 8.04282 9.91984 8.0609 9.88368L9.14865 7.70818L8.0196 5.67432L5.67832 5.67425Z" fill="#313D49" fill-opacity="0.9"/>
</svg>
