<svg width="24" height="24" viewBox="0 0 24 24" fill="none" xmlns="http://www.w3.org/2000/svg">
<path fill-rule="evenodd" clip-rule="evenodd" d="M12 1C9.1693 1 6.56796 1.34294 4.64158 1.92085C3.68476 2.2079 2.8376 2.56956 2.20732 3.0166C1.60301 3.44523 1 4.10097 1 5C1 5.10031 1.00751 5.1976 1.02169 5.29188C1.00748 5.35901 1 5.42863 1 5.5L1.00001 9.9968L1 10L1.00001 10.0045L1.00001 14.4955C1 14.497 1 14.4985 1 14.5C1 14.5021 1 14.5042 1.00001 14.5063L1.00002 19C1.00002 19.899 1.60303 20.5548 2.20733 20.9834C2.83761 21.4304 3.68477 21.7921 4.64159 22.0791C6.56796 22.6571 9.16929 23 12 23C14.8307 23 17.432 22.6571 19.3584 22.0791C20.3152 21.7921 21.1624 21.4304 21.7927 20.9834C22.397 20.5548 23 19.899 23 19L23 5.50058C23 5.42908 22.9925 5.35933 22.9783 5.29206C22.9925 5.19773 23 5.10038 23 5C23 4.10097 22.397 3.44523 21.7927 3.0166C21.1624 2.56956 20.3152 2.2079 19.3584 1.92085C17.432 1.34294 14.8307 1 12 1ZM3.36438 5.35208C3.10178 5.16581 3.02629 5.04415 3.00582 5C3.02629 4.95585 3.10178 4.83419 3.36438 4.64792C3.74615 4.37714 4.36346 4.09235 5.21628 3.83651C6.90919 3.32863 9.30786 3 12 3C14.6921 3 17.0908 3.32863 18.7837 3.83651C19.6365 4.09235 20.2538 4.37714 20.6356 4.64792C20.8982 4.83418 20.9737 4.95584 20.9942 5C20.9737 5.04415 20.8982 5.16582 20.6356 5.35208C20.2538 5.62286 19.6365 5.90765 18.7837 6.16349C17.0908 6.67137 14.6921 7 12 7C9.30786 7 6.90919 6.67137 5.21628 6.16349C4.36346 5.90765 3.74615 5.62286 3.36438 5.35208ZM22.9351 5.50054L23 5.50058C23 5.50054 23 5.50064 22.9351 5.50054ZM21 14.4857L21 12.4498C20.5133 12.6905 19.9574 12.8995 19.3584 13.0791C17.432 13.6571 14.8307 14 12 14C9.16929 14 6.56796 13.6571 4.64158 13.0791C4.04266 12.8995 3.4867 12.6906 3.00001 12.4498L3.00001 14.4858C3.00845 14.5105 3.06404 14.639 3.36438 14.8521C3.74615 15.1229 4.36346 15.4076 5.21628 15.6635C6.90919 16.1714 9.30786 16.5 12 16.5C14.6921 16.5 17.0908 16.1714 18.7837 15.6635C19.6365 15.4076 20.2538 15.1229 20.6356 14.8521C20.9363 14.6388 20.9917 14.5102 21 14.4857ZM3.00001 16.9498C3.48671 17.1906 4.04266 17.3995 4.64158 17.5791C6.56796 18.1571 9.16929 18.5 12 18.5C14.8307 18.5 17.432 18.1571 19.3584 17.5791C19.9573 17.3995 20.5133 17.1906 21 16.9498L21 18.9858C20.9916 19.0104 20.9361 19.139 20.6356 19.3521C20.2538 19.6229 19.6365 19.9076 18.7837 20.1635C17.0908 20.6714 14.6921 21 12 21C9.30786 21 6.9092 20.6714 5.21629 20.1635C4.36347 19.9076 3.74617 19.6229 3.36439 19.3521C3.06393 19.139 3.00842 19.0104 3.00002 18.9858L3.00001 16.9498ZM20.6356 10.3521C20.9365 10.1387 20.9917 10.0101 21 9.98567L21 7.44975C20.5133 7.69054 19.9574 7.89946 19.3584 8.07915C17.432 8.65706 14.8307 9 12 9C9.1693 9 6.56796 8.65706 4.64158 8.07915C4.04266 7.89947 3.4867 7.69056 3 7.44977L3.00001 9.98579C3.00843 10.0105 3.06398 10.139 3.36438 10.3521C3.74615 10.6229 4.36346 10.9076 5.21628 11.1635C6.90919 11.6714 9.30786 12 12 12C14.6921 12 17.0908 11.6714 18.7837 11.1635C19.6365 10.9076 20.2538 10.6229 20.6356 10.3521Z" fill="#313D49" fill-opacity="0.9"/>
</svg>
