<svg width="24" height="24" viewBox="0 0 24 24" fill="none" xmlns="http://www.w3.org/2000/svg">
<path d="M13.5 15C12.9477 15 12.5 15.4477 12.5 16C12.5 16.5523 12.9477 17 13.5 17H18C18.5523 17 19 16.5523 19 16C19 15.4477 18.5523 15 18 15H13.5Z" fill="#313D49" fill-opacity="0.9"/>
<path fill-rule="evenodd" clip-rule="evenodd" d="M1 5C1 3.89543 1.89543 3 3 3H21C22.1046 3 23 3.89544 23 5V19C23 20.1046 22.1046 21 21 21H3C1.89544 21 1 20.1046 1 19V5ZM3 5V7H21V5H3ZM3 9V19H21V9H3Z" fill="#313D49" fill-opacity="0.9"/>
</svg>
