<svg width="24" height="24" viewBox="0 0 24 24" fill="none" xmlns="http://www.w3.org/2000/svg">
<path fill-rule="evenodd" clip-rule="evenodd" d="M1.5 2C1.11198 2 0.758987 2.22446 0.594408 2.57584C0.429828 2.92723 0.483373 3.3421 0.731776 3.64018L3.08533 6.46445L5.52985 16.2425C5.64115 16.6877 6.04113 17 6.5 17C5.11929 17 4 18.1193 4 19.5C4 20.8807 5.11929 22 6.5 22C7.88071 22 9 20.8807 9 19.5C9 18.1193 7.88071 17 6.5 17H19.5C19.9589 17 20.3588 16.6877 20.4701 16.2425L22.9701 6.24254C23.0448 5.94379 22.9777 5.6273 22.7882 5.38459C22.5987 5.14187 22.3079 5 22 5H4.78077L4.22014 2.75746C4.10885 2.3123 3.70886 2 3.25 2H1.5ZM7.28077 15L5.28077 7H20.7192L18.7192 15H7.28077ZM6.5 19C6.22386 19 6 19.2239 6 19.5C6 19.7761 6.22386 20 6.5 20C6.77614 20 7 19.7761 7 19.5C7 19.2239 6.77614 19 6.5 19Z" fill="#313D49" fill-opacity="0.9"/>
<path fill-rule="evenodd" clip-rule="evenodd" d="M17 19.5C17 18.1193 18.1193 17 19.5 17C20.8807 17 22 18.1193 22 19.5C22 20.8807 20.8807 22 19.5 22C18.1193 22 17 20.8807 17 19.5ZM19.5 19C19.2239 19 19 19.2239 19 19.5C19 19.7761 19.2239 20 19.5 20C19.7761 20 20 19.7761 20 19.5C20 19.2239 19.7761 19 19.5 19Z" fill="#313D49" fill-opacity="0.9"/>
</svg>
