<svg width="24" height="24" viewBox="0 0 24 24" fill="none" xmlns="http://www.w3.org/2000/svg">
<path fill-rule="evenodd" clip-rule="evenodd" d="M12 5C8.13401 5 5 8.13401 5 12C5 15.866 8.13401 19 12 19C15.866 19 19 15.866 19 12C19 8.13401 15.866 5 12 5ZM14.2499 10.6501C14.4984 10.4015 14.4984 9.99862 14.2499 9.7501C14.0014 9.50159 13.5985 9.50159 13.3499 9.7501L12 11.1L10.6501 9.7501C10.4016 9.50159 9.99865 9.50159 9.75013 9.7501C9.50162 9.99862 9.50162 10.4015 9.75013 10.6501L11.1001 12L9.75013 13.3499C9.50162 13.5984 9.50162 14.0014 9.75013 14.2499C9.99865 14.4984 10.4016 14.4984 10.6501 14.2499L12 12.8999L13.3499 14.2499C13.5985 14.4984 14.0014 14.4984 14.2499 14.2499C14.4984 14.0014 14.4984 13.5984 14.2499 13.3499L12.9 12L14.2499 10.6501Z" fill="#313D49" fill-opacity="0.9"/>
</svg>
