<svg width="24" height="24" viewBox="0 0 24 24" fill="none" xmlns="http://www.w3.org/2000/svg">
<path fill-rule="evenodd" clip-rule="evenodd" d="M5.775 1.7C6.50084 1.15562 7.36044 1 8 1C8.55228 1 9 1.44772 9 2C9 2.55228 8.55228 3 8 3C7.63956 3 7.24916 3.09438 6.975 3.3C6.74929 3.46928 6.5 3.78554 6.5 4.5V9C6.5 9.66393 6.22215 10.217 5.902 10.6331C5.63613 10.9788 5.31325 11.2677 5.00492 11.5C5.31325 11.7323 5.63613 12.0212 5.902 12.3669C6.22215 12.783 6.5 13.3361 6.5 14V19.5C6.5 20.2145 6.74929 20.5307 6.975 20.7C7.24916 20.9056 7.63956 21 8 21C8.55228 21 9 21.4477 9 22C9 22.5523 8.55228 23 8 23C7.36044 23 6.50084 22.8444 5.775 22.3C5.00071 21.7193 4.5 20.7855 4.5 19.5V14C4.5 13.9139 4.46535 13.7795 4.31675 13.5863C4.16668 13.3912 3.94228 13.1927 3.67654 13.0067C3.41593 12.8243 3.14888 12.6769 2.94341 12.5741C2.84194 12.5234 2.75855 12.4851 2.7025 12.4602C2.67454 12.4479 2.6536 12.4389 2.64084 12.4336L2.62817 12.4283M2.62817 12.4283C2.24896 12.2762 2 11.9086 2 11.5C2 11.0917 2.24825 10.7244 2.627 10.5722L2.62807 10.5717L2.64084 10.5664C2.6536 10.5611 2.67454 10.5521 2.7025 10.5398C2.75855 10.5149 2.84194 10.4766 2.94341 10.4259C3.14888 10.3231 3.41593 10.1757 3.67654 9.99327C3.94228 9.80725 4.16668 9.60882 4.31675 9.41373C4.46535 9.22054 4.5 9.08607 4.5 9V4.5C4.5 3.21446 5.00071 2.28072 5.775 1.7M2.62807 10.5717L2.627 10.5722L2.62807 10.5717Z" fill="#313D49" fill-opacity="0.9"/>
<path fill-rule="evenodd" clip-rule="evenodd" d="M18.225 1.7C17.4992 1.15562 16.6396 1 16 1C15.4477 1 15 1.44772 15 2C15 2.55228 15.4477 3 16 3C16.3604 3 16.7508 3.09438 17.025 3.3C17.2507 3.46928 17.5 3.78554 17.5 4.5V9C17.5 9.66393 17.7779 10.217 18.098 10.6331C18.3639 10.9788 18.6868 11.2677 18.9951 11.5C18.6868 11.7323 18.3639 12.0212 18.098 12.3669C17.7779 12.783 17.5 13.3361 17.5 14V19.5C17.5 20.2145 17.2507 20.5307 17.025 20.7C16.7508 20.9056 16.3604 21 16 21C15.4477 21 15 21.4477 15 22C15 22.5523 15.4477 23 16 23C16.6396 23 17.4992 22.8444 18.225 22.3C18.9993 21.7193 19.5 20.7855 19.5 19.5V14C19.5 13.9139 19.5346 13.7795 19.6832 13.5863C19.8333 13.3912 20.0577 13.1927 20.3235 13.0067C20.5841 12.8243 20.8511 12.6769 21.0566 12.5741C21.1581 12.5234 21.2415 12.4851 21.2975 12.4602C21.3255 12.4479 21.3464 12.4389 21.3592 12.4336L21.3718 12.4283M21.3718 12.4283C21.751 12.2762 22 11.9086 22 11.5C22 11.0917 21.7518 10.7244 21.373 10.5722L21.3719 10.5717L21.3592 10.5664C21.3464 10.5611 21.3255 10.5521 21.2975 10.5398C21.2415 10.5149 21.1581 10.4766 21.0566 10.4259C20.8511 10.3231 20.5841 10.1757 20.3235 9.99327C20.0577 9.80725 19.8333 9.60882 19.6832 9.41373C19.5346 9.22054 19.5 9.08607 19.5 9V4.5C19.5 3.21446 18.9993 2.28072 18.225 1.7M21.3719 10.5717L21.373 10.5722L21.3719 10.5717Z" fill="#313D49" fill-opacity="0.9"/>
</svg>
