<svg width="24" height="24" viewBox="0 0 24 24" fill="none" xmlns="http://www.w3.org/2000/svg">
<path fill-rule="evenodd" clip-rule="evenodd" d="M1 4.5C1 3.94772 1.44772 3.5 2 3.5H22C22.5523 3.5 23 3.94772 23 4.5V9.6565C23 10.0794 22.734 10.4565 22.3357 10.5985C21.6663 10.837 21.1818 11.4844 21.1818 12.25C21.1818 13.0156 21.6663 13.663 22.3357 13.9015C22.734 14.0435 23 14.4206 23 14.8435V20C23 20.5523 22.5523 21 22 21H2C1.44772 21 1 20.5523 1 20V14.8435C1 14.4206 1.26598 14.0435 1.6643 13.9015C2.33369 13.663 2.81818 13.0156 2.81818 12.25C2.81818 11.4844 2.33369 10.837 1.6643 10.5985C1.26598 10.4565 1 10.0794 1 9.6565V4.5ZM3 5.5V9.02882C4.09047 9.6842 4.81818 10.8829 4.81818 12.25C4.81818 13.6171 4.09047 14.8158 3 15.4712V19H21V15.4712C19.9095 14.8158 19.1818 13.6171 19.1818 12.25C19.1818 10.8829 19.9095 9.6842 21 9.02882V5.5H3Z" fill="#313D49" fill-opacity="0.9"/>
</svg>
