<svg width="24" height="24" viewBox="0 0 24 24" fill="none" xmlns="http://www.w3.org/2000/svg">
<path d="M12 3C6.47713 3 2 7.47713 2 13C2 15.7617 3.11819 18.2603 4.92894 20.0711C5.31946 20.4616 5.31945 21.0948 4.92892 21.4853C4.5384 21.8758 3.90523 21.8758 3.51471 21.4853C1.34424 19.3148 0 16.3134 0 13C0 6.37257 5.37257 1 12 1C18.6274 1 24 6.37257 24 13C24 16.3134 22.6558 19.3148 20.4853 21.4853C20.0948 21.8758 19.4616 21.8758 19.0711 21.4853C18.6806 21.0948 18.6806 20.4616 19.0711 20.0711C20.8818 18.2603 22 15.7617 22 13C22 7.47713 17.5229 3 12 3Z" fill="#313D49" fill-opacity="0.9"/>
<path d="M12 7C8.68629 7 6 9.68629 6 13C6 14.6571 6.67048 16.1558 7.75736 17.2426C8.14788 17.6332 8.14788 18.2663 7.75736 18.6569C7.36683 19.0474 6.73367 19.0474 6.34314 18.6569C4.89652 17.2102 4 15.2089 4 13C4 8.58172 7.58172 5 12 5C12.5523 5 13 5.44772 13 6C13 6.55228 12.5523 7 12 7Z" fill="#313D49" fill-opacity="0.9"/>
<path d="M13 9C13 8.44772 12.5523 8 12 8C11.4477 8 11 8.44772 11 9V13C11 13.5523 11.4477 14 12 14C12.5523 14 13 13.5523 13 13V9Z" fill="#313D49" fill-opacity="0.9"/>
</svg>
