<svg width="24" height="24" viewBox="0 0 24 24" fill="none" xmlns="http://www.w3.org/2000/svg">
<path d="M9.5 16.5C8.94772 16.5 8.5 16.9477 8.5 17.5C8.5 18.0523 8.94772 18.5 9.5 18.5H14.5C15.0523 18.5 15.5 18.0523 15.5 17.5C15.5 16.9477 15.0523 16.5 14.5 16.5H9.5Z" fill="#313D49" fill-opacity="0.9"/>
<path fill-rule="evenodd" clip-rule="evenodd" d="M8.1 1.5C7.61291 1.5 7.19667 1.85095 7.11437 2.33104L6.65684 5H3C2.44772 5 2 5.44772 2 6C2 6.55228 2.44772 7 3 7H4.56244L5.50208 21.5644C5.53603 22.0906 5.97271 22.5 6.5 22.5H17.5C18.0273 22.5 18.464 22.0906 18.4979 21.5644L19.4376 7H21C21.5523 7 22 6.55228 22 6C22 5.44772 21.5523 5 21 5H17.3432L16.8856 2.33104C16.8033 1.85095 16.3871 1.5 15.9 1.5H8.1ZM15.314 5H8.68601L8.94316 3.5H15.0568L15.314 5ZM7.43756 20.5L6.5666 7H17.4334L16.5624 20.5H7.43756Z" fill="#313D49" fill-opacity="0.9"/>
</svg>
