<svg width="24" height="24" viewBox="0 0 24 24" fill="none" xmlns="http://www.w3.org/2000/svg">
<path fill-rule="evenodd" clip-rule="evenodd" d="M18.9258 1.24391C18.5353 0.853388 17.9021 0.853389 17.5116 1.24391L13.2728 5.48273L13.2689 5.48654L13.2651 5.49038L1.95525 16.8002C1.7677 16.9878 1.66235 17.2422 1.66235 17.5074L1.66248 21.7499C1.6625 22.3022 2.1102 22.7499 2.66246 22.7499L6.90498 22.75C7.1702 22.75 7.42456 22.6446 7.61211 22.4571L23.1685 6.90076C23.356 6.71322 23.4613 6.45887 23.4613 6.19365C23.4613 5.92843 23.356 5.67408 23.1685 5.48654L18.9258 1.24391ZM18.2187 9.02209L21.0471 6.19365L18.2187 3.36523L15.3903 6.19366L18.2187 9.02209ZM13.9761 7.60787L16.8045 10.4363L6.49079 20.75L3.66245 20.7499L3.66237 17.9216L13.9761 7.60787Z" fill="#313D49" fill-opacity="0.9"/>
</svg>
