<svg width="24" height="24" viewBox="0 0 24 24" fill="none" xmlns="http://www.w3.org/2000/svg">
<path fill-rule="evenodd" clip-rule="evenodd" d="M7.5 5.5C7.5 3.01472 9.51472 1 12 1C14.4853 1 16.5 3.01472 16.5 5.5C16.5 7.98528 14.4853 10 12 10C9.51472 10 7.5 7.98528 7.5 5.5ZM12 3C10.6193 3 9.5 4.11929 9.5 5.5C9.5 6.88071 10.6193 8 12 8C13.3807 8 14.5 6.88071 14.5 5.5C14.5 4.11929 13.3807 3 12 3Z" fill="#313D49" fill-opacity="0.9"/>
<path d="M11 13.5C6.46775 13.5 3 16.7415 3 20.5C3 21.0523 2.55228 21.5 2 21.5C1.44772 21.5 1 21.0523 1 20.5C1 15.4219 5.59115 11.5 11 11.5C11.5523 11.5 12 11.9477 12 12.5C12 13.0523 11.5523 13.5 11 13.5Z" fill="#313D49" fill-opacity="0.9"/>
<path fill-rule="evenodd" clip-rule="evenodd" d="M19.2071 13.2929C18.8166 12.9024 18.1834 12.9024 17.7929 13.2929L12.7929 18.2929C12.6054 18.4804 12.5 18.7348 12.5 19V21C12.5 21.5523 12.9477 22 13.5 22H15.5C15.7652 22 16.0196 21.8946 16.2071 21.7071L21.2071 16.7071C21.5976 16.3166 21.5976 15.6834 21.2071 15.2929L19.2071 13.2929ZM14.5 20V19.4142L18.5 15.4142L19.0858 16L15.0858 20H14.5Z" fill="#313D49" fill-opacity="0.9"/>
</svg>
