<svg width="24" height="24" viewBox="0 0 24 24" fill="none" xmlns="http://www.w3.org/2000/svg">
<path fill-rule="evenodd" clip-rule="evenodd" d="M2.05556 0C0.915135 0 0 0.928089 0 2.06137V21.9387C0 23.0719 0.915141 24 2.05556 24H21.9445C23.0848 24 24 23.0719 24 21.9387V2.06137C24 0.928087 23.0849 0 21.9445 0H2.05556ZM2 2.06137C2 2.02229 2.03005 2 2.05556 2H21.9445C21.9699 2 22 2.02229 22 2.06137V21.9387C22 21.9777 21.97 22 21.9445 22H15.6742V16.2763H18.7952L19.3307 12.6109H15.6742V10.1657C15.6742 9.4907 16.2214 8.9435 16.8964 8.9435H19.3307V4.66567H14.8295L14.7989 4.66582C13.0381 4.68273 11.6243 6.12385 11.6412 7.8847L11.6532 9.1317L11.6103 12.6109H8.33334V16.2763H11.6532V22H2.05556C2.03004 22 2 21.9777 2 21.9387V2.06137Z" fill="#313D49" fill-opacity="0.9"/>
</svg>
