<svg width="24" height="24" viewBox="0 0 24 24" fill="none" xmlns="http://www.w3.org/2000/svg">
<path d="M20 5C20 6.10457 19.1046 7 18 7C16.8954 7 16 6.10457 16 5C16 3.89543 16.8954 3 18 3C19.1046 3 20 3.89543 20 5Z" fill="#313D49" fill-opacity="0.9"/>
<path d="M17.6194 9.98573C16.8642 9.92889 16.1559 9.70431 15.5315 9.34915L13.0404 12.2585C12.8853 12.4397 12.8 12.6704 12.8 12.9089V19.3909L11.2 18.6008V12.9089C11.2 12.6704 11.1147 12.4397 10.9596 12.2585L5.17272 5.5H13.0247C13.0084 5.33555 13 5.16875 13 5C13 4.4774 13.0802 3.97352 13.2289 3.5H3C2.60956 3.5 2.25483 3.72723 2.0916 4.08191C1.92836 4.43658 1.98647 4.85382 2.2404 5.15039L9.2 13.2785V19.2222C9.2 19.6028 9.416 19.9503 9.75722 20.1189L13.3572 21.8966C13.6672 22.0497 14.0342 22.0318 14.3278 21.8493C14.6215 21.6669 14.8 21.3457 14.8 21V13.2785L17.6194 9.98573Z" fill="#313D49" fill-opacity="0.9"/>
</svg>
