<svg width="24" height="24" viewBox="0 0 24 24" fill="none" xmlns="http://www.w3.org/2000/svg">
<path fill-rule="evenodd" clip-rule="evenodd" d="M8.70711 1.29289C8.31658 0.902369 7.68342 0.902369 7.29289 1.29289C6.90237 1.68342 6.90237 2.31658 7.29289 2.70711L9.58579 5H2C1.44772 5 1 5.44772 1 6V10C1 10.5523 1.44772 11 2 11H2.5V22C2.5 22.5523 2.94772 23 3.5 23H20.5C21.0523 23 21.5 22.5523 21.5 22V11H22C22.5523 11 23 10.5523 23 10V6C23 5.44772 22.5523 5 22 5H14.4142L16.7071 2.70711C17.0976 2.31658 17.0976 1.68342 16.7071 1.29289C16.3166 0.902369 15.6834 0.902369 15.2929 1.29289L12 4.58579L8.70711 1.29289ZM13 11H19.5V21H13V11ZM4.5 11H11V21H4.5V11ZM21 9H3V7H21V9Z" fill="#313D49" fill-opacity="0.9"/>
</svg>
