<svg width="24" height="24" viewBox="0 0 24 24" fill="none" xmlns="http://www.w3.org/2000/svg">
<path d="M14.75 7.25L14.2806 8.133C14.7343 8.3742 15.297 8.23225 15.5821 7.8047L14.75 7.25ZM17.25 3.5L18.0821 4.0547C18.354 3.6468 18.2901 3.10192 17.9312 2.76795L17.25 3.5ZM22 10.5L22.9978 10.4334C22.9628 9.90815 22.5265 9.49995 22 9.49995L22 10.5ZM12 10.5001V9.5001C11.7348 9.5001 11.4804 9.60545 11.2929 9.793C11.1054 9.9805 11 10.2349 11 10.5001H12ZM12 14.0002H11C11 14.5525 11.4477 15.0002 12 15.0002V14.0002ZM16.75 14.0002H17.75C17.75 13.448 17.3023 13.0002 16.75 13.0002V14.0002ZM15.5821 7.8047L18.0821 4.0547L16.4179 2.9453L13.9179 6.6953L15.5821 7.8047ZM17.25 3.5C17.9312 2.76795 17.9308 2.76752 17.9303 2.76708C17.9301 2.76693 17.9296 2.76648 17.9293 2.76618C17.9287 2.76556 17.928 2.76493 17.9272 2.76427C17.9258 2.76295 17.9243 2.76155 17.9226 2.76005C17.9194 2.75706 17.9157 2.75372 17.9116 2.75004C17.9034 2.74267 17.8934 2.73393 17.8817 2.72393C17.8584 2.70393 17.8281 2.67886 17.7908 2.64949C17.7161 2.59073 17.6129 2.5148 17.4795 2.42785C17.2124 2.25377 16.8253 2.0363 16.3041 1.82394C15.2592 1.39811 13.6931 1 11.5 1V3C13.4451 3 14.754 3.35189 15.5494 3.67606C15.9486 3.8387 16.2231 3.99623 16.3875 4.1034C16.4698 4.15707 16.5249 4.19833 16.5545 4.2216C16.5693 4.23325 16.5777 4.2404 16.58 4.24237C16.5812 4.24336 16.5808 4.24305 16.579 4.24136C16.578 4.24052 16.5766 4.23932 16.5749 4.23777C16.5741 4.237 16.5731 4.23614 16.5721 4.23519C16.5716 4.23471 16.5711 4.23421 16.5705 4.23369C16.5702 4.23342 16.5698 4.23302 16.5697 4.23289C16.5692 4.23248 16.5688 4.23205 17.25 3.5ZM11.5 1C9.15325 1 6.5449 2.05073 4.52583 3.88479C2.48885 5.7351 1 8.4307 1 11.75H3C3 9.0693 4.19209 6.8899 5.8706 5.3652C7.56695 3.82427 9.7086 3 11.5 3V1ZM1 11.75C1 18.6003 6.49665 23.0001 12 23.0001V21.0001C7.50335 21.0001 3 17.4003 3 11.75H1ZM22 10.5C22 9.49995 22 9.49995 22 9.49995C22 9.49995 21.9999 9.49995 22 9.49995C21.9998 9.49995 21.9992 9.49995 21.9988 9.49995C21.998 9.49995 21.9968 9.49995 21.9953 9.49995C21.9921 9.49995 21.9874 9.49995 21.9812 9.49995C21.9688 9.49995 21.9503 9.49995 21.9261 9.49995C21.8776 9.49995 21.8061 9.49995 21.7139 9.49995C21.5292 9.5 21.2617 9.5 20.9296 9.5C20.2656 9.5 19.3438 9.50005 18.3125 9.50005C16.25 9.5001 13.75 9.50015 12 9.5001V11.5001C13.75 11.5001 16.25 11.5001 18.3125 11.5C19.3438 11.5 20.2657 11.5 20.9297 11.5C21.2618 11.5 21.5294 11.5 21.7139 11.5C21.8062 11.5 21.8777 11.5 21.9262 11.5C21.9504 11.5 21.9689 11.5 21.9813 11.5C21.9875 11.5 21.9921 11.5 21.9953 11.5C21.9969 11.5 21.9981 11.5 21.9988 11.5C21.9986 11.5 21.9993 11.5 21.9988 11.5C21.9989 11.5 21.9999 11.5 22 11.5C22 11.5 22 11.5 22 10.5ZM11 10.5001V14.0002H13V10.5001H11ZM12 15.0002H16.75V13.0002H12V15.0002ZM15.75 14.0002C15.75 14.3488 15.4892 14.9663 14.7905 15.5399C14.1241 16.087 13.1587 16.5003 12 16.5003V18.5003C13.6413 18.5003 15.051 17.9136 16.0595 17.0857C17.0358 16.2842 17.75 15.1517 17.75 14.0002H15.75ZM12 16.5003C9.1914 16.5003 7.5 14.0979 7.5 11.75H5.5C5.5 14.902 7.8086 18.5003 12 18.5003V16.5003ZM7.5 11.75C7.5 9.58195 9.5221 7.49995 12 7.49995V5.49995C8.4779 5.49995 5.5 8.418 5.5 11.75H7.5ZM12 7.49995C13.0001 7.49995 13.8226 7.8895 14.2806 8.133L15.2194 6.367C14.6774 6.07885 13.4999 5.49995 12 5.49995V7.49995ZM12 23.0001C14.8363 23.0001 18.2299 21.8439 20.5404 18.8626L18.9596 17.6374C17.0943 20.0443 14.3349 21.0001 12 21.0001V23.0001ZM20.5404 18.8626C22.059 16.9032 23.2667 14.4672 22.9978 10.4334L21.0022 10.5665C21.2333 14.033 20.2307 15.9972 18.9596 17.6374L20.5404 18.8626Z" fill="#313D49" fill-opacity="0.9"/>
</svg>
