<svg width="24" height="24" viewBox="0 0 24 24" fill="none" xmlns="http://www.w3.org/2000/svg">
<path d="M7.89169 9.04683L7.88889 9.04187C7.63855 8.55587 7.04311 8.36042 6.55279 8.60558C6.05881 8.85257 5.85859 9.45324 6.10558 9.94722L6.1552 10.0391C6.18091 10.0841 6.21634 10.1429 6.2617 10.211C6.35131 10.3454 6.48569 10.5249 6.6679 10.7071C7.0269 11.0661 7.64125 11.5 8.50001 11.5C9.35876 11.5 9.97312 11.0661 10.3321 10.7071C10.5536 10.4856 10.7534 10.2282 10.8944 9.94722C11.1414 9.45324 10.9412 8.85257 10.4472 8.60558C9.9569 8.36042 9.36146 8.55587 9.11112 9.04187L9.10833 9.04683C9.10278 9.05653 9.09134 9.07585 9.07421 9.10155C9.03881 9.15465 8.98569 9.22511 8.9179 9.2929C8.7769 9.4339 8.64125 9.50001 8.50001 9.50001C8.35876 9.50001 8.22312 9.4339 8.08211 9.2929C8.01432 9.22511 7.9612 9.15465 7.92581 9.10155C7.90867 9.07585 7.89723 9.05653 7.89169 9.04683Z" fill="#313D49" fill-opacity="0.9"/>
<path d="M14.8917 9.04683C14.8972 9.05653 14.9087 9.07585 14.9258 9.10155C14.9612 9.15465 15.0143 9.22511 15.0821 9.2929C15.2231 9.4339 15.3588 9.50001 15.5 9.50001C15.6412 9.50001 15.7769 9.4339 15.9179 9.2929C15.9857 9.22511 16.0388 9.15465 16.0742 9.10155C16.0913 9.07585 16.1028 9.05653 16.1083 9.04683L16.1111 9.04187C16.3615 8.55587 16.9569 8.36042 17.4472 8.60558C17.9412 8.85257 18.1414 9.45324 17.8944 9.94722C17.7534 10.2282 17.5536 10.4856 17.3321 10.7071C16.9731 11.0661 16.3588 11.5 15.5 11.5C14.6412 11.5 14.0269 11.0661 13.6679 10.7071C13.4857 10.5249 13.3513 10.3454 13.2617 10.211C13.2163 10.1429 13.1809 10.0841 13.1552 10.0391L13.1056 9.94722C12.8586 9.45324 13.0588 8.85257 13.5528 8.60558C14.0431 8.36042 14.6386 8.55587 14.8889 9.04187L14.8917 9.04683Z" fill="#313D49" fill-opacity="0.9"/>
<path fill-rule="evenodd" clip-rule="evenodd" d="M12 1C5.92487 1 1 5.92487 1 12C1 18.0751 5.92487 23 12 23C18.0751 23 23 18.0751 23 12C23 5.92487 18.0751 1 12 1ZM3 12C3 7.02943 7.02943 3 12 3C16.9706 3 21 7.02943 21 12C21 16.9706 16.9706 21 12 21C7.02943 21 3 16.9706 3 12Z" fill="#313D49" fill-opacity="0.9"/>
</svg>
