<svg width="24" height="24" viewBox="0 0 24 24" fill="none" xmlns="http://www.w3.org/2000/svg">
<path d="M6.5455 6H5.29152C6.94031 4.15769 9.33535 3 12 3C16.9706 3 21 7.02943 21 12C21 16.9706 16.9706 21 12 21C7.02943 21 3 16.9706 3 12C3 11.4477 2.55228 11 2 11C1.44772 11 1 11.4477 1 12C1 18.0751 5.92487 23 12 23C18.0751 23 23 18.0751 23 12C23 5.92487 18.0751 1 12 1C8.79916 1 5.9184 2.36746 3.90912 4.54774V3.36365C3.90912 2.81136 3.4614 2.36365 2.90912 2.36365C2.35683 2.36365 1.90912 2.81136 1.90912 3.36365V7C1.90912 7.55229 2.35683 8 2.90912 8H6.5455C7.09778 8 7.5455 7.55229 7.5455 7C7.5455 6.44772 7.09778 6 6.5455 6Z" fill="#313D49" fill-opacity="0.9"/>
<path d="M13.0025 6.0001C13.0025 5.44781 12.5549 5.00006 12.0026 5C11.4503 4.99994 11.0025 5.44762 11.0025 5.9999L11.0019 12.0043C11.0019 12.2696 11.1072 12.5239 11.2948 12.7115L15.5345 16.9512C15.925 17.3417 16.5582 17.3417 16.9487 16.9512C17.3392 16.5607 17.3392 15.9275 16.9487 15.537L13.0019 11.5902L13.0025 6.0001Z" fill="#313D49" fill-opacity="0.9"/>
</svg>
