<svg width="24" height="24" viewBox="0 0 24 24" fill="none" xmlns="http://www.w3.org/2000/svg">
<path fill-rule="evenodd" clip-rule="evenodd" d="M12 1C9.23858 1 7 3.23858 7 6C7 8.76142 9.23858 11 12 11C14.7614 11 17 8.76142 17 6C17 3.23858 14.7614 1 12 1ZM9 6C9 4.34315 10.3431 3 12 3C13.6569 3 15 4.34315 15 6C15 7.65685 13.6569 9 12 9C10.3431 9 9 7.65685 9 6Z" fill="#313D49" fill-opacity="0.9"/>
<path d="M12 12C6.47717 12 2 16.4772 2 22C2 22.5523 2.44772 23 3 23C3.55228 23 4 22.5523 4 22C4 17.5817 7.58173 14 12 14C16.4183 14 20 17.5817 20 22C20 22.5523 20.4477 23 21 23C21.5523 23 22 22.5523 22 22C22 16.4772 17.5228 12 12 12Z" fill="#313D49" fill-opacity="0.9"/>
<path d="M8.5 19.5C8.5 18.9477 8.94772 18.5 9.5 18.5H11V17C11 16.4477 11.4477 16 12 16C12.5523 16 13 16.4477 13 17V18.5H14.5C15.0523 18.5 15.5 18.9477 15.5 19.5C15.5 20.0523 15.0523 20.5 14.5 20.5H13V22C13 22.5523 12.5523 23 12 23C11.4477 23 11 22.5523 11 22V20.5H9.5C8.94772 20.5 8.5 20.0523 8.5 19.5Z" fill="#313D49" fill-opacity="0.9"/>
</svg>
