<svg width="24" height="24" viewBox="0 0 24 24" fill="none" xmlns="http://www.w3.org/2000/svg">
<path fill-rule="evenodd" clip-rule="evenodd" d="M11.6206 2.00708C11.7465 2.00238 11.873 2.00001 12 2.00001C12.127 2.00001 12.2535 2.00238 12.3794 2.00708C12.4959 1.99299 12.6135 1.99972 12.7265 2.026C17.9102 2.39816 22 6.72147 22 12C22 17.2786 17.9102 21.6019 12.7265 21.974C12.6135 22.0003 12.4959 22.007 12.3794 21.993C12.2535 21.9976 12.127 22 12 22C11.873 22 11.7465 21.9976 11.6206 21.993C11.504 22.007 11.3865 22.0003 11.2735 21.974C6.08979 21.6018 2 17.2785 2 12C2 6.72148 6.08979 2.39818 11.2735 2.026C11.3865 1.99972 11.504 1.99299 11.6206 2.00708ZM14.3753 19.6415C16.3116 19.0403 17.9329 17.7233 18.9297 16H15.6277C15.3421 17.2534 14.9225 18.4744 14.3753 19.6415ZM13.5697 16C13.2202 17.3536 12.6937 18.6602 12 19.885C11.3063 18.6602 10.7797 17.3536 10.4302 16H13.5697ZM15.9663 14H19.748C19.9125 13.3608 20 12.6906 20 12C20 11.3094 19.9125 10.6393 19.748 10H15.9663C16.0404 10.662 16.0778 11.3297 16.0778 12C16.0778 12.6703 16.0404 13.338 15.9663 14ZM13.9523 10C14.0356 10.6612 14.0778 11.3291 14.0778 12C14.0778 12.6709 14.0356 13.3389 13.9523 14H10.0477C9.96437 13.3389 9.92218 12.6709 9.92218 12C9.92218 11.3291 9.96437 10.6612 10.0477 10H13.9523ZM15.6277 8.00001H18.9297C17.9329 6.2767 16.3116 4.95976 14.3753 4.35854C14.9225 5.52566 15.3421 6.74664 15.6277 8.00001ZM13.5697 8.00001H10.4302C10.7797 6.64644 11.3063 5.3398 12 4.11505C12.6937 5.3398 13.2202 6.64644 13.5697 8.00001ZM9.62469 4.35855C7.68839 4.95978 6.06714 6.27671 5.07026 8.00001H8.37225C8.65792 6.74665 9.07745 5.52567 9.62469 4.35855ZM8.03363 10H4.25203C4.08751 10.6393 4 11.3094 4 12C4 12.6906 4.08751 13.3608 4.25204 14H8.03363C7.95961 13.338 7.92218 12.6703 7.92218 12C7.92218 11.3297 7.95961 10.662 8.03363 10ZM8.37225 16C8.65792 17.2534 9.07746 18.4744 9.62469 19.6415C7.68839 19.0403 6.06714 17.7233 5.07026 16H8.37225Z" fill="#313D49" fill-opacity="0.9"/>
</svg>
