<svg width="24" height="24" viewBox="0 0 24 24" fill="none" xmlns="http://www.w3.org/2000/svg">
<path d="M10.7071 7.29289C10.3166 6.90237 9.68342 6.90237 9.29289 7.29289C8.90237 7.68342 8.90237 8.31658 9.29289 8.70711L11.2929 10.7071C11.6834 11.0976 12.3166 11.0976 12.7071 10.7071L14.7071 8.70711C15.0976 8.31658 15.0976 7.68342 14.7071 7.29289C14.3166 6.90237 13.6834 6.90237 13.2929 7.29289L12 8.58579L10.7071 7.29289Z" fill="#313D49" fill-opacity="0.9"/>
<path fill-rule="evenodd" clip-rule="evenodd" d="M22 19C22 20.6568 20.6568 22 19 22H5C3.34314 22 2 20.6568 2 19V5C2 3.34315 3.34315 2 5 2H19C20.6568 2 22 3.34314 22 5V19ZM5 4C4.44771 4 4 4.44771 4 5V15H20V5C20 4.44772 19.5523 4 19 4H5ZM20 19V17H4V19C4 19.5523 4.44772 20 5 20H19C19.5523 20 20 19.5523 20 19Z" fill="#313D49" fill-opacity="0.9"/>
</svg>
