<svg width="24" height="24" viewBox="0 0 24 24" fill="none" xmlns="http://www.w3.org/2000/svg">
<path fill-rule="evenodd" clip-rule="evenodd" d="M12 1C11.4477 1 11 1.44772 11 2C11 2.55228 11.4477 3 12 3C16.9706 3 21 7.02943 21 12C21 16.9706 16.9706 21 12 21C7.02943 21 3 16.9706 3 12C3 11.4477 2.55228 11 2 11C1.44772 11 1 11.4477 1 12C1 18.0751 5.92487 23 12 23C18.0751 23 23 18.0751 23 12C23 5.92487 18.0751 1 12 1ZM12 5C8.13402 5 5 8.13402 5 12C5 15.866 8.13402 19 12 19C12.5523 19 13 18.5523 13 18C13 17.4477 12.5523 17 12 17C9.23858 17 7 14.7614 7 12C7 9.23858 9.23858 7 12 7C14.7614 7 17 9.23858 17 12C17 12.5523 17.4477 13 18 13C18.5523 13 19 12.5523 19 12C19 8.13402 15.866 5 12 5Z" fill="#313D49" fill-opacity="0.9"/>
</svg>
