<svg width="24" height="24" viewBox="0 0 24 24" fill="none" xmlns="http://www.w3.org/2000/svg">
<path d="M2 3C2 2.44772 2.44772 2 3 2H11.9958C12.5481 2 12.9958 2.44772 12.9958 3C12.9958 3.55228 12.5481 4 11.9958 4H4V20H12C12.5523 20 13 20.4477 13 21C13 21.5523 12.5523 22 12 22H3C2.44772 22 2 21.5523 2 21V3Z" fill="#313D49" fill-opacity="0.9"/>
<path d="M15.7929 6.79289C16.1834 6.40237 16.8166 6.40237 17.2071 6.79289L21.6507 11.2365C21.8645 11.4199 22 11.6921 22 11.9958L22 11.9978C22.0006 12.2545 21.9029 12.5113 21.7071 12.7071L17.2071 17.2071C16.8166 17.5976 16.1834 17.5976 15.7929 17.2071C15.4024 16.8166 15.4024 16.1834 15.7929 15.7929L18.5899 12.9958H8C7.44772 12.9958 7 12.5481 7 11.9958C7 11.4436 7.44772 10.9958 8 10.9958H18.5816L15.7929 8.20711C15.4024 7.81658 15.4024 7.18342 15.7929 6.79289Z" fill="#313D49" fill-opacity="0.9"/>
</svg>
