<svg width="24" height="24" viewBox="0 0 24 24" fill="none" xmlns="http://www.w3.org/2000/svg">
<path fill-rule="evenodd" clip-rule="evenodd" d="M12.5675 1.17661C12.2258 0.94113 11.7742 0.94113 11.4325 1.17661L1.43252 8.06857C1.135 8.27362 0.983092 8.61107 1.00139 8.94725C1.00047 8.96476 1 8.98234 1 9V19.9091C1 20.9802 1.8153 22 3 22H21C22.1847 22 23 20.9802 23 19.9091V9C23 8.98235 22.9995 8.96476 22.9986 8.94726C23.0169 8.61107 22.865 8.27362 22.5675 8.06857L12.5675 1.17661ZM20.2832 8.92323L12 3.21449L3.7168 8.92324L12 14.3073L20.2832 8.92323ZM3 19.9091V10.8427L11.455 16.3384C11.7864 16.5539 12.2136 16.5539 12.545 16.3384L21 10.8427V19.9091C21 19.9558 20.9849 19.9856 20.9739 20H3.02609C3.01511 19.9856 3 19.9558 3 19.9091Z" fill="#313D49" fill-opacity="0.9"/>
</svg>
