<svg width="24" height="24" viewBox="0 0 24 24" fill="none" xmlns="http://www.w3.org/2000/svg">
<path d="M1 12V21.9999C1 22.5522 1.4478 23 2.00008 23H12C18.0751 23 23 18.0751 23 12C23 10.0706 22.5033 8.25729 21.6308 6.68087C21.3198 7.35135 20.8286 7.92124 20.2194 8.32829C20.7211 9.44954 21 10.6922 21 12C21 16.9706 16.9706 21 12 21H3V12C3 7.02943 7.02943 3 12 3C12.8206 3 13.6155 3.10982 14.3709 3.31556C14.6827 2.64492 15.1749 2.07514 15.7852 1.6686C14.605 1.23607 13.3301 1 12 1C5.92487 1 1 5.92487 1 12Z" fill="#313D49" fill-opacity="0.9"/>
<path d="M18 7C19.1046 7 20 6.10457 20 5C20 3.89543 19.1046 3 18 3C16.8954 3 16 3.89543 16 5C16 6.10457 16.8954 7 18 7Z" fill="#313D49" fill-opacity="0.9"/>
</svg>
