<svg width="24" height="24" viewBox="0 0 24 24" fill="none" xmlns="http://www.w3.org/2000/svg">
<path d="M17.2072 10.2071C17.5977 9.81658 17.5977 9.18342 17.2072 8.79289C16.8166 8.40237 16.1835 8.40237 15.7929 8.79289L10 14.5858L7.7071 12.2929C7.31657 11.9024 6.68341 11.9024 6.29289 12.2929C5.90237 12.6834 5.90237 13.3166 6.2929 13.7071L9.29295 16.7071C9.68347 17.0976 10.3166 17.0976 10.7072 16.7071L17.2072 10.2071Z" fill="#313D49" fill-opacity="0.9"/>
<path fill-rule="evenodd" clip-rule="evenodd" d="M1 12V21.9999C1 22.5522 1.4478 23 2.00008 23H12C18.0751 23 23 18.0751 23 12C23 5.92487 18.0751 1 12 1C5.92487 1 1 5.92487 1 12ZM3 12C3 7.02943 7.02943 3 12 3C16.9706 3 21 7.02943 21 12C21 16.9706 16.9706 21 12 21H3V12Z" fill="#313D49" fill-opacity="0.9"/>
</svg>
