<svg width="24" height="24" viewBox="0 0 24 24" fill="none" xmlns="http://www.w3.org/2000/svg">
<path fill-rule="evenodd" clip-rule="evenodd" d="M8.5 7C6.567 7 5 8.567 5 10.5C5 12.433 6.567 14 8.5 14C10.433 14 12 12.433 12 10.5C12 8.567 10.433 7 8.5 7ZM7 10.5C7 9.67157 7.67157 9 8.5 9C9.32843 9 10 9.67157 10 10.5C10 11.3284 9.32843 12 8.5 12C7.67157 12 7 11.3284 7 10.5Z" fill="#313D49" fill-opacity="0.9"/>
<path fill-rule="evenodd" clip-rule="evenodd" d="M3 3C1.89543 3 1 3.89543 1 5V19C1 20.1046 1.89544 21 3 21H17C18.1046 21 19 20.1046 19 19V17L21.4 18.8C21.703 19.0273 22.1084 19.0638 22.4472 18.8944C22.786 18.725 23 18.3788 23 18V6.5C23 6.12123 22.786 5.77496 22.4472 5.60557C22.1084 5.43618 21.703 5.47274 21.4 5.7L19 7.5V5C19 3.89544 18.1046 3 17 3H3ZM3 5H17V9.5C17 9.87877 17.214 10.225 17.5528 10.3944C17.8916 10.5638 18.297 10.5273 18.6 10.3L21 8.5V16L18.6 14.2C18.297 13.9727 17.8916 13.9362 17.5528 14.1056C17.214 14.275 17 14.6212 17 15V19H3V5Z" fill="#313D49" fill-opacity="0.9"/>
</svg>
