<svg width="24" height="24" viewBox="0 0 24 24" fill="none" xmlns="http://www.w3.org/2000/svg">
<path d="M2.97488 5.9749C2.97488 5.42261 3.4226 4.9749 3.97488 4.9749H19.9749C20.5272 4.9749 20.9749 5.42261 20.9749 5.9749C20.9749 6.52718 20.5272 6.9749 19.9749 6.9749H3.97488C3.4226 6.9749 2.97488 6.52718 2.97488 5.9749Z" fill="#313D49" fill-opacity="0.9"/>
<path d="M2.97488 11.9749C2.97488 11.4226 3.4226 10.9749 3.97488 10.9749H19.9749C20.5272 10.9749 20.9749 11.4226 20.9749 11.9749C20.9749 12.5272 20.5272 12.9749 19.9749 12.9749H3.97488C3.4226 12.9749 2.97488 12.5272 2.97488 11.9749Z" fill="#313D49" fill-opacity="0.9"/>
<path d="M3.97488 16.9749C3.4226 16.9749 2.97488 17.4226 2.97488 17.9749C2.97488 18.5272 3.4226 18.9749 3.97488 18.9749H19.9749C20.5272 18.9749 20.9749 18.5272 20.9749 17.9749C20.9749 17.4226 20.5272 16.9749 19.9749 16.9749H3.97488Z" fill="#313D49" fill-opacity="0.9"/>
</svg>
