<svg width="24" height="24" viewBox="0 0 24 24" fill="none" xmlns="http://www.w3.org/2000/svg">
<path d="M12 7.5C12.8284 7.5 13.5 6.82843 13.5 6C13.5 5.17157 12.8284 4.5 12 4.5C11.1716 4.5 10.5 5.17157 10.5 6C10.5 6.82843 11.1716 7.5 12 7.5Z" fill="#313D49" fill-opacity="0.9"/>
<path d="M12 13.5C12.8284 13.5 13.5 12.8284 13.5 12C13.5 11.1716 12.8284 10.5 12 10.5C11.1716 10.5 10.5 11.1716 10.5 12C10.5 12.8284 11.1716 13.5 12 13.5Z" fill="#313D49" fill-opacity="0.9"/>
<path d="M13.5 17.5C13.5 18.3284 12.8284 19 12 19C11.1716 19 10.5 18.3284 10.5 17.5C10.5 16.6716 11.1716 16 12 16C12.8284 16 13.5 16.6716 13.5 17.5Z" fill="#313D49" fill-opacity="0.9"/>
</svg>
