<svg width="24" height="24" viewBox="0 0 24 24" fill="none" xmlns="http://www.w3.org/2000/svg">
<path fill-rule="evenodd" clip-rule="evenodd" d="M19 2C17.3431 2 16 3.34315 16 5C16 6.65685 17.3431 8 19 8C20.6569 8 22 6.65685 22 5C22 3.34315 20.6569 2 19 2ZM18 5C18 4.44772 18.4477 4 19 4C19.5523 4 20 4.44772 20 5C20 5.55228 19.5523 6 19 6C18.4477 6 18 5.55228 18 5Z" fill="#313D49" fill-opacity="0.9"/>
<path d="M4 4C3.44772 4 3 4.44772 3 5V20C3 20.5523 3.44772 21 4 21H19C19.5523 21 20 20.5523 20 20V11C20 10.4477 19.5523 10 19 10C18.4477 10 18 10.4477 18 11V19H5V6H13C13.5523 6 14 5.55228 14 5C14 4.44772 13.5523 4 13 4H4Z" fill="#313D49" fill-opacity="0.9"/>
</svg>
