<svg width="24" height="24" viewBox="0 0 24 24" fill="none" xmlns="http://www.w3.org/2000/svg">
<path d="M5.70711 4.70711C6.09763 4.31658 6.09763 3.68342 5.70711 3.29289C5.31658 2.90237 4.68342 2.90237 4.29289 3.29289L1.29293 6.29286L5.70711 3.29289L1.07588 6.61722C0.925907 6.97969 0.998245 7.41246 1.29289 7.70711L4.29289 10.7071C4.68342 11.0976 5.31658 11.0976 5.70711 10.7071C6.09763 10.3166 6.09763 9.68342 5.70711 9.29289L4.41421 8H22C22.5523 8 23 7.55228 23 7C23 6.44772 22.5523 6 22 6H4.41421L5.70711 4.70711Z" fill="#313D49" fill-opacity="0.9"/>
<path d="M19.7071 13.2929C19.3166 12.9024 18.6834 12.9024 18.2929 13.2929C17.9024 13.6834 17.9024 14.3166 18.2929 14.7071L19.5858 16H2C1.44772 16 1 16.4477 1 17C1 17.5523 1.44772 18 2 18H19.5858L18.2929 19.2929C17.9024 19.6834 17.9024 20.3166 18.2929 20.7071C18.6834 21.0976 19.3166 21.0976 19.7071 20.7071L22.7071 17.7071C22.8902 17.524 22.9874 17.2877 22.9989 17.048C22.9996 17.032 23 17.016 23 17" fill="#313D49" fill-opacity="0.9"/>
<path d="M22.9241 16.6172C22.8753 16.4993 22.803 16.3888 22.7071 16.2929L19.7071 13.2929" fill="#313D49" fill-opacity="0.9"/>
<path d="M22.9241 16.6172C22.9719 16.7324 22.9988 16.8585 23 16.9908L22.9241 16.6172Z" fill="#313D49" fill-opacity="0.9"/>
</svg>
