<svg width="24" height="24" viewBox="0 0 24 24" fill="none" xmlns="http://www.w3.org/2000/svg">
<path fill-rule="evenodd" clip-rule="evenodd" d="M8 18H4C3.54584 18 3.14872 17.694 3.033 17.2548C2.91729 16.8156 3.11205 16.3536 3.50725 16.1298C3.91595 15.8984 4.2646 15.5742 4.52514 15.1834C4.77531 14.8082 4.93752 14.3815 5 13.9353V11C5 10.9844 5.00037 10.9687 5.0011 10.9531C5.06917 9.50291 5.53059 8.09857 6.3359 6.8906C7.03636 5.83991 7.97403 4.97224 9.06999 4.35572C9.19207 3.80059 9.47048 3.28688 9.87868 2.87868C10.4413 2.31607 11.2044 2 12 2C12.7956 2 13.5587 2.31607 14.1213 2.87868C14.5295 3.28688 14.8079 3.80059 14.93 4.35572C16.026 4.97224 16.9636 5.83991 17.6641 6.8906C18.4694 8.09857 18.9308 9.50291 18.9989 10.9531C18.9996 10.9687 19 10.9844 19 11V13.9354C19.0625 14.3815 19.2247 14.8082 19.4749 15.1834C19.7354 15.5742 20.084 15.8984 20.4928 16.1298C20.8879 16.3536 21.0827 16.8156 20.967 17.2548C20.8513 17.694 20.4542 18 20 18H16C16 19.0609 15.5786 20.0783 14.8284 20.8284C14.0783 21.5786 13.0609 22 12 22C10.9391 22 9.92172 21.5786 9.17157 20.8284C8.42143 20.0783 8 19.0609 8 18ZM11.2929 4.29289C11.4804 4.10536 11.7348 4 12 4C12.2652 4 12.5196 4.10536 12.7071 4.29289C12.8946 4.48043 13 4.73478 13 5C13 5.38669 13.2229 5.73873 13.5725 5.90403C14.5569 6.36948 15.396 7.09402 16 8C16.5998 8.89972 16.9453 9.9447 17 11.0244V14C17 14.0402 17.0024 14.0803 17.0072 14.1202C17.0875 14.7832 17.2996 15.4222 17.6298 16H6.37021C6.7004 15.4222 6.9125 14.7832 6.99275 14.1202C6.99758 14.0803 7 14.0402 7 14V11.0244C7.05474 9.94469 7.40019 8.89972 8 8C8.60017 7.09974 9.43254 6.37863 10.4088 5.91287C10.4565 5.89148 10.5023 5.86646 10.5456 5.83816C10.6689 5.75812 10.7698 5.65398 10.8449 5.53509C10.9484 5.37135 11.0031 5.17963 11.0001 4.98434C11.0042 4.72479 11.109 4.47674 11.2929 4.29289ZM14 18C14 18.5304 13.7893 19.0391 13.4142 19.4142C13.0391 19.7893 12.5304 20 12 20C11.4696 20 10.9609 19.7893 10.5858 19.4142C10.2107 19.0391 10 18.5304 10 18H14Z" fill="#313D49" fill-opacity="0.9"/>
</svg>
