<svg width="24" height="24" viewBox="0 0 24 24" fill="none" xmlns="http://www.w3.org/2000/svg">
<path fill-rule="evenodd" clip-rule="evenodd" d="M20.7071 2.79289C21.0976 3.18342 21.0976 3.81658 20.7071 4.20711L19.6756 5.23861L21.7389 7.29103C21.9276 7.47872 22.0336 7.73387 22.0336 8C22.0336 8.26614 21.9276 8.52129 21.7389 8.70898L18.5722 11.859C18.1821 12.247 17.5518 12.247 17.1617 11.859L15.1031 9.81114L12.7592 12.155C13.8174 13.5921 14.1835 15.445 13.7147 17.2009C13.1633 19.2665 11.5425 20.8765 9.47163 21.4236C7.40109 21.9705 5.19358 21.3724 3.6869 19.8534L3.67941 19.8458C1.41209 17.5106 1.44463 13.7967 3.75225 11.5012C5.80559 9.45871 8.98562 9.21035 11.3128 10.773L19.2929 2.79289C19.6834 2.40237 20.3166 2.40237 20.7071 2.79289ZM10.7404 12.871C9.17967 11.3716 6.69688 11.3931 5.16273 12.9192C3.63265 14.4412 3.61002 16.8992 5.11062 18.4488C6.11231 19.4559 7.58124 19.8543 8.96086 19.4899C10.3419 19.1251 11.4172 18.0533 11.7824 16.6851C12.1436 15.3319 11.7568 13.8897 10.7658 12.8946C10.7572 12.8869 10.7487 12.879 10.7404 12.871ZM16.5707 8.45001L18.3194 6.7105L19.6157 8L17.867 9.7395L16.5707 8.45001Z" fill="#313D49" fill-opacity="0.9"/>
</svg>
