<svg width="24" height="24" viewBox="0 0 24 24" fill="none" xmlns="http://www.w3.org/2000/svg">
<path d="M12 8C12 7.44772 11.5523 7 11 7C10.4477 7 10 7.44772 10 8V9.38196L8.55279 10.1056C8.05881 10.3526 7.85859 10.9532 8.10557 11.4472C8.35256 11.9412 8.95324 12.1414 9.44722 11.8944L10 11.618V12.382L8.55279 13.1056C8.05881 13.3526 7.85859 13.9532 8.10557 14.4472C8.35256 14.9412 8.95324 15.1414 9.44722 14.8944L10 14.618V17C10 17.2652 10.1054 17.5196 10.2929 17.7071C10.4804 17.8946 10.7348 18 11 18C12.5404 18 14.0455 17.4875 15.1787 16.5356C16.3172 15.5793 17 14.241 17 12.8C17 12.2477 16.5523 11.8 16 11.8C15.4477 11.8 15 12.2477 15 12.8C15 13.5868 14.6293 14.3851 13.8923 15.0041C13.3788 15.4355 12.7234 15.7467 12 15.8975V13.618L13.4472 12.8944C13.9412 12.6474 14.1414 12.0468 13.8944 11.5528C13.6474 11.0588 13.0468 10.8586 12.5528 11.1056L12 11.382V10.618L13.4472 9.89443C13.9412 9.64744 14.1414 9.04676 13.8944 8.55278C13.6474 8.05881 13.0468 7.85858 12.5528 8.10557L12 8.38196V8Z" fill="#313D49" fill-opacity="0.9"/>
<path fill-rule="evenodd" clip-rule="evenodd" d="M12 1C5.92487 1 1 5.92487 1 12C1 18.0751 5.92487 23 12 23C18.0751 23 23 18.0751 23 12C23 5.92487 18.0751 1 12 1ZM3 12C3 7.02943 7.02943 3 12 3C16.9706 3 21 7.02943 21 12C21 16.9706 16.9706 21 12 21C7.02943 21 3 16.9706 3 12Z" fill="#313D49" fill-opacity="0.9"/>
</svg>
