<svg width="24" height="24" viewBox="0 0 24 24" fill="none" xmlns="http://www.w3.org/2000/svg">
<path fill-rule="evenodd" clip-rule="evenodd" d="M8.5 9C8.5 7.06702 10.067 5.5 12 5.5C13.933 5.5 15.5 7.06702 15.5 9C15.5 10.933 13.933 12.5 12 12.5C10.067 12.5 8.5 10.933 8.5 9ZM12 7.5C11.1716 7.5 10.5 8.17158 10.5 9C10.5 9.82841 11.1716 10.5 12 10.5C12.8284 10.5 13.5 9.82841 13.5 9C13.5 8.17158 12.8284 7.5 12 7.5Z" fill="#313D49" fill-opacity="0.9"/>
<path fill-rule="evenodd" clip-rule="evenodd" d="M1 12C1 5.92487 5.92487 1 12 1C18.0751 1 23 5.92487 23 12C23 15.0605 21.7502 17.829 19.7331 19.823C19.7033 19.8563 19.6713 19.8875 19.6373 19.9165C17.6588 21.8257 14.9666 23 12 23C9.06507 23 6.39861 21.8506 4.4262 19.9773C4.34591 19.9194 4.27477 19.8498 4.21505 19.7714C2.22842 17.7813 1 15.0341 1 12ZM6.06681 18.7675C7.65086 20.1574 9.72703 21 12 21C14.273 21 16.3492 20.1574 17.9332 18.7675C17.5895 16.9086 15.9589 15.5 14 15.5H9.99999C8.04113 15.5 6.41058 16.9086 6.06681 18.7675ZM19.4674 17.0254C18.5248 14.946 16.4315 13.5 14 13.5H9.99999C7.56844 13.5 5.47515 14.9461 4.53262 17.0254C3.56491 15.5903 3 13.8611 3 12C3 7.02943 7.02943 3 12 3C16.9706 3 21 7.02943 21 12C21 13.8611 20.4351 15.5903 19.4674 17.0254Z" fill="#313D49" fill-opacity="0.9"/>
</svg>
