<svg width="24" height="24" viewBox="0 0 24 24" fill="none" xmlns="http://www.w3.org/2000/svg">
<path d="M7 8C6.44772 8 6 8.44772 6 9C6 9.55229 6.44772 10 7 10H16C16.5523 10 17 9.55229 17 9C17 8.44772 16.5523 8 16 8H7Z" fill="#313D49" fill-opacity="0.9"/>
<path d="M6 13C6 12.4477 6.44772 12 7 12H16C16.5523 12 17 12.4477 17 13C17 13.5523 16.5523 14 16 14H7C6.44772 14 6 13.5523 6 13Z" fill="#313D49" fill-opacity="0.9"/>
<path d="M7 16C6.44772 16 6 16.4477 6 17C6 17.5523 6.44772 18 7 18H12C12.5523 18 13 17.5523 13 17C13 16.4477 12.5523 16 12 16H7Z" fill="#313D49" fill-opacity="0.9"/>
<path fill-rule="evenodd" clip-rule="evenodd" d="M1 12V21.9999C1 22.5522 1.4478 23 2.00008 23H12C18.0751 23 23 18.0751 23 12C23 5.92487 18.0751 1 12 1C5.92487 1 1 5.92487 1 12ZM3 12C3 7.02943 7.02943 3 12 3C16.9706 3 21 7.02943 21 12C21 16.9706 16.9706 21 12 21H3V12Z" fill="#313D49" fill-opacity="0.9"/>
</svg>
