<svg width="24" height="24" viewBox="0 0 24 24" fill="none" xmlns="http://www.w3.org/2000/svg">
<path d="M6.84 18.864C5.688 18.864 4.76 18.464 4.056 17.664C3.352 16.832 3 15.728 3 14.352C3 12.592 3.512 10.944 4.536 9.408C5.56 7.872 6.824 6.736 8.328 6L8.808 6.816C8.168 7.328 7.592 7.952 7.08 8.688C6.6 9.424 6.216 10.32 5.928 11.376L6.936 11.664C7.96 11.984 8.76 12.464 9.336 13.104C9.944 13.744 10.248 14.528 10.248 15.456C10.248 16.48 9.912 17.312 9.24 17.952C8.568 18.56 7.768 18.864 6.84 18.864ZM16.92 18.864C15.768 18.864 14.84 18.464 14.136 17.664C13.432 16.832 13.08 15.728 13.08 14.352C13.08 12.592 13.592 10.944 14.616 9.408C15.64 7.872 16.904 6.736 18.408 6L18.888 6.816C18.248 7.328 17.672 7.952 17.16 8.688C16.68 9.424 16.296 10.32 16.008 11.376L17.016 11.664C18.04 11.984 18.84 12.464 19.416 13.104C20.024 13.744 20.328 14.528 20.328 15.456C20.328 16.48 19.992 17.312 19.32 17.952C18.648 18.56 17.848 18.864 16.92 18.864Z" fill="#313D49" fill-opacity="0.9"/>
</svg>
