<svg width="24" height="24" viewBox="0 0 24 24" fill="none" xmlns="http://www.w3.org/2000/svg">
<path fill-rule="evenodd" clip-rule="evenodd" d="M16.8302 9.09435C17.042 9.03592 17.2651 9.0047 17.4954 9.0047H17.5C18.8808 9.0047 20 10.124 20 11.5047V18.0302C20 20.0269 18.3139 22.5002 15.4707 22.5002H9.7309C8.1406 22.5002 6.70049 21.3255 5.74517 20.1384C4.77339 18.9308 4 17.3379 4 16.0002C4 14.4288 4.50947 13.0941 5.71774 12.2663C5.80381 12.2074 5.89584 12.1637 5.9906 12.1347V4.003C5.9906 2.62294 7.10939 1.50422 8.4894 1.50422L8.49632 1.50423C9.87786 1.50849 10.9965 2.62967 10.9965 4.01131V7.05148C11.1604 7.01776 11.3303 7.00005 11.5042 7.00005C12.2249 7.00005 12.8746 7.30406 13.332 7.79084C13.6806 7.60631 14.0781 7.5018 14.5 7.5018C15.5606 7.5018 16.467 8.16226 16.8302 9.09435ZM7.9906 4.003C7.9906 3.72755 8.21392 3.50422 8.4894 3.50422L8.49078 3.50422C8.77027 3.50499 8.99645 3.73179 8.99645 4.01131V11.796C8.99645 12.3483 9.44417 12.796 9.99645 12.796C10.5487 12.796 10.9965 12.3483 10.9965 11.796V11.5086L10.9965 11.5042V9.5078C10.9965 9.22738 11.2238 9.00005 11.5042 9.00005C11.7846 9.00005 12.012 9.22738 12.012 9.5078V9.7557C12.004 9.83666 12 9.91876 12 10.0018V11.358C12 11.4108 12.0041 11.4627 12.012 11.5133C12.0169 12.0614 12.4627 12.5042 13.012 12.5042C13.5642 12.5042 14.012 12.0565 14.012 11.5042V9.89259C14.0618 9.66896 14.2613 9.5018 14.5 9.5018C14.7762 9.5018 15 9.72564 15 10.0018V11.5018C15 12.0541 15.4477 12.5018 16 12.5018C16.5523 12.5018 17 12.0541 17 11.5018V11.5001C17 11.2265 17.2218 11.0047 17.4954 11.0047H17.5C17.7761 11.0047 18 11.2286 18 11.5047V18.0302C18 19.1228 17.0189 20.5002 15.4707 20.5002H9.7309C9.07794 20.5002 8.15261 19.9399 7.30329 18.8845C6.47043 17.8495 6 16.6924 6 16.0002C6 15.5103 6.06436 15.1193 6.17788 14.8054C6.35938 15.0581 6.65577 15.2226 6.9906 15.2226C7.54289 15.2226 7.9906 14.7749 7.9906 14.2226V4.003Z" fill="#313D49" fill-opacity="0.9"/>
</svg>
