<svg width="24" height="24" viewBox="0 0 24 24" fill="none" xmlns="http://www.w3.org/2000/svg">
<path d="M6.31372 1.41874C6.63473 1.86815 6.53064 2.4927 6.08122 2.81371L2.58122 5.31371C2.13181 5.63472 1.50726 5.53063 1.18625 5.08121C0.865244 4.6318 0.969335 4.00725 1.41875 3.68624L4.91875 1.18624C5.36816 0.865232 5.99271 0.969324 6.31372 1.41874Z" fill="#313D49" fill-opacity="0.9"/>
<path d="M12.8797 7.67686C12.8797 7.12457 12.4321 6.67681 11.8798 6.67675C11.3275 6.67669 10.8797 7.12436 10.8797 7.67664L10.8791 13.181C10.8791 13.4463 10.9844 13.7007 11.172 13.8883L15.0581 17.7744C15.4487 18.1649 16.0818 18.1649 16.4723 17.7744C16.8629 17.3839 16.8629 16.7507 16.4723 16.3602L12.8791 12.767L12.8797 7.67686Z" fill="#313D49" fill-opacity="0.9"/>
<path fill-rule="evenodd" clip-rule="evenodd" d="M12 2.83331C6.38506 2.83331 1.83331 7.38507 1.83331 13C1.83331 18.6149 6.38506 23.1667 12 23.1667C17.6149 23.1667 22.1666 18.6149 22.1666 13C22.1666 7.38507 17.6149 2.83331 12 2.83331ZM3.83331 13C3.83331 8.48963 7.48963 4.83331 12 4.83331C16.5103 4.83331 20.1666 8.48963 20.1666 13C20.1666 17.5103 16.5103 21.1667 12 21.1667C7.48963 21.1667 3.83331 17.5103 3.83331 13Z" fill="#313D49" fill-opacity="0.9"/>
<path d="M19.0812 1.18624C18.6318 0.865232 18.0073 0.969324 17.6863 1.41874C17.3652 1.86815 17.4693 2.4927 17.9187 2.81371L21.4187 5.31371C21.8682 5.63472 22.4927 5.53063 22.8137 5.08121C23.1347 4.6318 23.0306 4.00725 22.5812 3.68624L19.0812 1.18624Z" fill="#313D49" fill-opacity="0.9"/>
</svg>
