<svg width="24" height="24" viewBox="0 0 24 24" fill="none" xmlns="http://www.w3.org/2000/svg">
<path d="M6 13C6 12.4477 6.44772 12 7 12H17C17.5523 12 18 12.4477 18 13C18 13.5523 17.5523 14 17 14H7C6.44772 14 6 13.5523 6 13Z" fill="#313D49" fill-opacity="0.9"/>
<path d="M7 16C6.44772 16 6 16.4477 6 17C6 17.5523 6.44772 18 7 18H12.0042C12.5564 18 13.0042 17.5523 13.0042 17C13.0042 16.4477 12.5564 16 12.0042 16H7Z" fill="#313D49" fill-opacity="0.9"/>
<path fill-rule="evenodd" clip-rule="evenodd" d="M17.825 2.27076L21.6824 5.87231C21.885 6.06143 22 6.32613 22 6.60325V19.5C22 20.8807 20.8807 22 19.5 22H4.5C3.1193 22 2 20.8807 2 19.5V4.5C2 3.11929 3.11929 2 4.5 2H17.1407C17.4054 2 17.6461 2.10285 17.825 2.27076ZM4.5 4C4.22386 4 4 4.22386 4 4.5V19.5C4 19.7762 4.22385 20 4.5 20H19.5C19.7762 20 20 19.7762 20 19.5V7.0377L16.7464 4H13.003L13 6.6923V6.69342C12.9995 7.25448 12.6335 7.60409 12.3777 7.76154C12.1055 7.92903 11.7927 8 11.5 8H7.5C7.20734 8 6.89452 7.92903 6.62234 7.76154C6.36632 7.60398 6 7.25401 6 6.6923V4H4.5ZM8 4V4.05526V6H11.0008L11.0012 5.63878L11.003 4H8Z" fill="#313D49" fill-opacity="0.9"/>
</svg>
