<svg width="24" height="24" viewBox="0 0 24 24" fill="none" xmlns="http://www.w3.org/2000/svg">
<path fill-rule="evenodd" clip-rule="evenodd" d="M1 10.5C1 5.25332 5.25332 1 10.5 1C15.7467 1 20 5.25332 20 10.5C20 12.7631 19.2086 14.8415 17.8875 16.4733L21.5607 20.1464C21.9512 20.537 21.9512 21.1701 21.5607 21.5607C21.1701 21.9512 20.537 21.9512 20.1464 21.5607L16.4733 17.8875C14.8415 19.2086 12.7631 20 10.5 20C5.25332 20 1 15.7467 1 10.5ZM10.5 3C6.35788 3 3 6.35788 3 10.5C3 14.6421 6.35788 18 10.5 18C14.6421 18 18 14.6421 18 10.5C18 6.35788 14.6421 3 10.5 3ZM6.96447 6.46442C7.86823 5.56072 9.11959 5 10.5 5C11.8804 5 13.1318 5.56072 14.0355 6.46444C14.426 6.85497 14.426 7.48813 14.0355 7.87866C13.645 8.26918 13.0118 8.26918 12.6213 7.87866C12.0773 7.33468 11.3287 7 10.5 7C9.67132 7 8.92268 7.33468 8.37864 7.87868C7.9881 8.26919 7.35493 8.26917 6.96442 7.87863C6.57391 7.48809 6.57393 6.85493 6.96447 6.46442Z" fill="#313D49" fill-opacity="0.9"/>
</svg>
