<svg width="24" height="24" viewBox="0 0 24 24" fill="none" xmlns="http://www.w3.org/2000/svg">
<path fill-rule="evenodd" clip-rule="evenodd" d="M12.2789 1.01889C12.0996 0.966516 11.9091 0.966491 11.7298 1.01882L2.90923 3.59301C2.49135 3.71497 2.20408 4.09806 2.20408 4.53337V9.80997C2.20408 15.7817 6.02603 21.0832 11.6917 22.9704C11.8927 23.0374 12.11 23.0374 12.3109 22.9704C17.9751 21.0831 21.7959 15.7828 21.7959 9.81242V4.53337C21.7959 4.09815 21.5088 3.71512 21.091 3.59308L12.2789 1.01889ZM4.16326 9.80997V5.26795L12.0041 2.97968L19.8367 5.26775V9.81242C19.8367 14.8298 16.6944 19.2962 12.0012 21.0038C7.30668 19.2962 4.16326 14.8287 4.16326 9.80997ZM17.5906 9.509C17.9732 9.12645 17.9732 8.50621 17.5906 8.12365C17.2081 7.7411 16.5878 7.7411 16.2053 8.12365L11.0204 13.3085L8.28451 10.5726C7.90196 10.1901 7.28171 10.1901 6.89916 10.5726C6.5166 10.9552 6.5166 11.5754 6.89916 11.958L10.3277 15.3866C10.7103 15.7691 11.3305 15.7691 11.7131 15.3866L17.5906 9.509Z" fill="#313D49" fill-opacity="0.9"/>
</svg>
