<svg width="24" height="24" viewBox="0 0 24 24" fill="none" xmlns="http://www.w3.org/2000/svg">
<path fill-rule="evenodd" clip-rule="evenodd" d="M12 8C9.79086 8 8 9.79086 8 12C8 14.2091 9.79086 16 12 16C14.2091 16 16 14.2091 16 12C16 9.79086 14.2091 8 12 8ZM10 12C10 10.8954 10.8954 10 12 10C13.1046 10 14 10.8954 14 12C14 13.1046 13.1046 14 12 14C10.8954 14 10 13.1046 10 12Z" fill="#313D49" fill-opacity="0.9"/>
<path fill-rule="evenodd" clip-rule="evenodd" d="M12.7071 1.29289C12.3166 0.902369 11.6834 0.902369 11.2929 1.29289L8.58579 4H5C4.44772 4 4 4.44772 4 5V8.58579L1.29289 11.2929C0.902369 11.6834 0.902369 12.3166 1.29289 12.7071L4 15.4142V19C4 19.5523 4.44772 20 5 20H8.58579L11.2929 22.7071C11.6834 23.0976 12.3166 23.0976 12.7071 22.7071L15.4142 20H19C19.5523 20 20 19.5523 20 19V15.4142L22.7071 12.7071C23.0976 12.3166 23.0976 11.6834 22.7071 11.2929L20 8.58579V5C20 4.44772 19.5523 4 19 4H15.4142L12.7071 1.29289ZM9.70711 5.70711L12 3.41421L14.2929 5.70711C14.4804 5.89464 14.7348 6 15 6H18V9C18 9.26522 18.1054 9.51957 18.2929 9.70711L20.5858 12L18.2929 14.2929C18.1054 14.4804 18 14.7348 18 15V18H15C14.7348 18 14.4804 18.1054 14.2929 18.2929L12 20.5858L9.70711 18.2929C9.51957 18.1054 9.26522 18 9 18H6V15C6 14.7348 5.89464 14.4804 5.70711 14.2929L3.41421 12L5.70711 9.70711C5.89464 9.51957 6 9.26522 6 9V6H9C9.26522 6 9.51957 5.89464 9.70711 5.70711Z" fill="#313D49" fill-opacity="0.9"/>
</svg>
