<svg width="24" height="24" viewBox="0 0 24 24" fill="none" xmlns="http://www.w3.org/2000/svg">
<path d="M12.7071 1.79289C12.3166 1.40237 11.6834 1.40237 11.2929 1.79289L5.29289 7.79289C4.90237 8.18342 4.90237 8.81658 5.29289 9.20711C5.68342 9.59763 6.31658 9.59763 6.70711 9.20711L11.0039 4.91031V16.5C11.0039 17.0523 11.4516 17.5 12.0039 17.5C12.5562 17.5 13.0039 17.0523 13.0039 16.5V4.91811L17.2929 9.20711C17.6834 9.59763 18.3166 9.59763 18.7071 9.20711C19.0976 8.81658 19.0976 8.18342 18.7071 7.79289L12.7071 1.79289Z" fill="#313D49" fill-opacity="0.9"/>
<path d="M3 12.5C3.55228 12.5 4 12.9477 4 13.5C4 14.8069 4.44203 16.5652 5.63839 17.9791C6.80502 19.3578 8.76449 20.5 12 20.5C15.2355 20.5 17.195 19.3578 18.3616 17.9791C19.558 16.5652 20 14.8069 20 13.5C20 12.9477 20.4477 12.5 21 12.5C21.5523 12.5 22 12.9477 22 13.5C22 15.1931 21.442 17.4348 19.8884 19.2709C18.305 21.1422 15.7645 22.5 12 22.5C8.23551 22.5 5.69498 21.1422 4.11161 19.2709C2.55797 17.4348 2 15.1931 2 13.5C2 12.9477 2.44772 12.5 3 12.5Z" fill="#313D49" fill-opacity="0.9"/>
</svg>
