<svg width="24" height="24" viewBox="0 0 24 24" fill="none" xmlns="http://www.w3.org/2000/svg">
<path d="M9.06274 14.6731C8.77303 14.4764 8.3883 14.4378 8.05279 14.6056L9.06274 14.6731Z" fill="#313D49" fill-opacity="0.9"/>
<path fill-rule="evenodd" clip-rule="evenodd" d="M9.3904 15.0448C9.31133 14.8901 9.1972 14.7645 9.06274 14.6731L8.05279 14.6056C7.55881 14.8526 7.35859 15.4532 7.60558 15.9472L8.50001 15.5C7.60558 15.9472 7.60603 15.9481 7.60603 15.9481L7.6065 15.9491L7.60753 15.9511L7.60988 15.9557L7.61579 15.9672C7.62028 15.9758 7.62586 15.9864 7.63255 15.9987C7.64594 16.0235 7.66381 16.0554 7.68632 16.0936C7.73128 16.1699 7.79517 16.2718 7.87929 16.3905C8.04678 16.627 8.2992 16.9372 8.64814 17.2474C9.35443 17.8752 10.4572 18.5 12 18.5C13.5428 18.5 14.6456 17.8752 15.3519 17.2474C15.7008 16.9372 15.9532 16.627 16.1207 16.3905C16.2048 16.2718 16.2687 16.1699 16.3137 16.0936C16.3362 16.0554 16.3541 16.0235 16.3675 15.9987L16.3741 15.9864L16.3842 15.9672L16.3901 15.9557L16.3925 15.9511L16.394 15.9481C16.394 15.9481 16.3944 15.9472 15.5 15.5L16.3944 15.9472C16.6414 15.4532 16.4412 14.8526 15.9472 14.6056C15.4561 14.36 14.8595 14.5565 14.6099 15.0443L14.6089 15.0462L14.6062 15.0511L9.3904 15.0448ZM14.6062 15.0511C14.6029 15.057 14.5974 15.0667 14.5906 15.0783C14.5711 15.1113 14.5374 15.1658 14.4887 15.2345C14.3905 15.373 14.2367 15.5628 14.0231 15.7526C13.6044 16.1248 12.9572 16.5 12 16.5C11.0428 16.5 10.3956 16.1248 9.97687 15.7526C9.76331 15.5628 9.60949 15.373 9.51134 15.2345C9.46266 15.1658 9.42889 15.1113 9.4094 15.0783C9.39968 15.0618 9.39363 15.0508 9.39114 15.0462L9.3904 15.0448L14.6062 15.0511Z" fill="#313D49" fill-opacity="0.9"/>
<path fill-rule="evenodd" clip-rule="evenodd" d="M5.5 10C5.5 8.34315 6.84315 7 8.5 7C10.1569 7 11.5 8.34315 11.5 10C11.5 11.6569 10.1569 13 8.5 13C6.84315 13 5.5 11.6569 5.5 10ZM8.5 9C7.94772 9 7.5 9.44771 7.5 10C7.5 10.5523 7.94772 11 8.5 11C9.05228 11 9.5 10.5523 9.5 10C9.5 9.44771 9.05228 9 8.5 9Z" fill="#313D49" fill-opacity="0.9"/>
<path fill-rule="evenodd" clip-rule="evenodd" d="M15.5 7C13.8431 7 12.5 8.34315 12.5 10C12.5 11.6569 13.8431 13 15.5 13C17.1569 13 18.5 11.6569 18.5 10C18.5 8.34315 17.1569 7 15.5 7ZM14.5 10C14.5 9.44771 14.9477 9 15.5 9C16.0523 9 16.5 9.44771 16.5 10C16.5 10.5523 16.0523 11 15.5 11C14.9477 11 14.5 10.5523 14.5 10Z" fill="#313D49" fill-opacity="0.9"/>
<path fill-rule="evenodd" clip-rule="evenodd" d="M12 1C5.92487 1 1 5.92487 1 12C1 18.0751 5.92487 23 12 23C18.0751 23 23 18.0751 23 12C23 5.92487 18.0751 1 12 1ZM3 12C3 7.02943 7.02943 3 12 3C16.9706 3 21 7.02943 21 12C21 16.9706 16.9706 21 12 21C7.02943 21 3 16.9706 3 12Z" fill="#313D49" fill-opacity="0.9"/>
</svg>
