<svg width="24" height="24" viewBox="0 0 24 24" fill="none" xmlns="http://www.w3.org/2000/svg">
<path d="M11.5 9.5C10.9477 9.5 10.5 9.94772 10.5 10.5C10.5 11.0523 10.9477 11.5 11.5 11.5H12.5013C13.0535 11.5 13.5013 11.0523 13.5013 10.5C13.5013 9.94772 13.0535 9.5 12.5013 9.5H11.5Z" fill="#313D49" fill-opacity="0.9"/>
<path d="M15.5005 10.5C15.5005 9.94772 15.9483 9.5 16.5005 9.5H17.5C18.0523 9.5 18.5 9.94772 18.5 10.5C18.5 11.0523 18.0523 11.5 17.5 11.5H16.5005C15.9483 11.5 15.5005 11.0523 15.5005 10.5Z" fill="#313D49" fill-opacity="0.9"/>
<path d="M6.5005 9.5C5.94822 9.5 5.5005 9.94772 5.5005 10.5C5.5005 11.0523 5.94822 11.5 6.5005 11.5H7.49995C8.05224 11.5 8.49995 11.0523 8.49995 10.5C8.49995 9.94772 8.05224 9.5 7.49995 9.5H6.5005Z" fill="#313D49" fill-opacity="0.9"/>
<path fill-rule="evenodd" clip-rule="evenodd" d="M2 2C1.44772 2 1 2.44772 1 3V18C1 18.5523 1.44772 19 2 19H9.08579L11.2929 21.2071C11.6834 21.5976 12.3166 21.5976 12.7071 21.2071L14.9142 19H22C22.5523 19 23 18.5523 23 18V3C23 2.44772 22.5523 2 22 2H2ZM3 17V4H21V17H14.5C14.2348 17 13.9804 17.1054 13.7929 17.2929L12 19.0858L10.2071 17.2929C10.0196 17.1054 9.76522 17 9.5 17H3Z" fill="#313D49" fill-opacity="0.9"/>
</svg>
