<svg width="24" height="24" viewBox="0 0 24 24" fill="none" xmlns="http://www.w3.org/2000/svg">
<path d="M7.23652 1.84927C7.41992 1.63546 7.69206 1.5 7.99585 1.5L7.99793 1.5C8.25454 1.49947 8.51132 1.5971 8.70711 1.79289L13.2071 6.29289C13.5976 6.68342 13.5976 7.31658 13.2071 7.70711C12.8166 8.09763 12.1834 8.09763 11.7929 7.70711L8.99585 4.91006V15.5C8.99585 16.0523 8.54813 16.5 7.99585 16.5C7.44356 16.5 6.99585 16.0523 6.99585 15.5V4.91836L4.20711 7.70711C3.81658 8.09763 3.18342 8.09763 2.79289 7.70711C2.40237 7.31658 2.40237 6.68342 2.79289 6.29289L7.23652 1.84927Z" fill="#313D49" fill-opacity="0.9"/>
<path d="M11.2929 16.2929C11.6834 15.9024 12.3166 15.9024 12.7071 16.2929L15.4958 19.0816V8.5C15.4958 7.94772 15.9436 7.5 16.4958 7.5C17.0481 7.5 17.4958 7.94772 17.4958 8.5V19.0899L20.2929 16.2929C20.6834 15.9024 21.3166 15.9024 21.7071 16.2929C22.0976 16.6834 22.0976 17.3166 21.7071 17.7071L17.2071 22.2071C17.0113 22.4029 16.7545 22.5006 16.4978 22.5L16.4958 22.5C16.1921 22.5 15.9199 22.3645 15.7365 22.1507L11.2929 17.7071C10.9024 17.3166 10.9024 16.6834 11.2929 16.2929Z" fill="#313D49" fill-opacity="0.9"/>
</svg>
