<svg width="24" height="24" viewBox="0 0 24 24" fill="none" xmlns="http://www.w3.org/2000/svg">
<path fill-rule="evenodd" clip-rule="evenodd" d="M3 17.4196H5.35337C5.40977 17.5036 5.4733 17.5961 5.54368 17.6957C5.86285 18.1473 6.32942 18.7527 6.9178 19.362C8.05699 20.5416 9.83034 21.92 12 21.92C12.5523 21.92 13 21.4723 13 20.92V3C13 2.44772 12.5523 2 12 2C9.83034 2 8.05699 3.37837 6.9178 4.55805C6.32942 5.16734 5.86285 5.77268 5.54368 6.22429C5.47191 6.32584 5.40727 6.42008 5.35004 6.5054L3 6.5054C1.89544 6.5054 1 7.40081 1 8.5054V15.4196C1 16.5241 1.89544 17.4196 3 17.4196ZM6.76819 8.00048L6.78563 7.97128C6.80206 7.94405 6.82796 7.90174 6.8629 7.8465C6.93287 7.73592 7.03868 7.57424 7.17697 7.37857C7.45482 6.98542 7.85718 6.46441 8.35649 5.94735C9.12957 5.14679 10.0367 4.45683 11 4.15806V19.7619C10.0367 19.4632 9.12957 18.7732 8.35649 17.9726C7.85718 17.4556 7.45482 16.9346 7.17697 16.5414C7.03868 16.3458 6.93287 16.1841 6.8629 16.0735C6.82796 16.0183 6.80206 15.976 6.78563 15.9487L6.76819 15.9195C6.58714 15.6116 6.25878 15.4146 5.89927 15.4146H4.44965V15.4196H3V8.5054L5.89927 8.5054C6.25878 8.5054 6.58714 8.30843 6.76819 8.00048Z" fill="#313D49" fill-opacity="0.9"/>
<path d="M15.4179 9.43579C15.8084 9.04527 16.4416 9.04527 16.8321 9.43579L18.2461 10.8498L19.6601 9.43579C20.0506 9.04527 20.6838 9.04527 21.0743 9.43579C21.4649 9.82632 21.4649 10.4595 21.0743 10.85L19.6603 12.264L21.0748 13.6784C21.4653 14.069 21.4653 14.7021 21.0748 15.0927C20.6842 15.4832 20.0511 15.4832 19.6605 15.0927L18.2461 13.6782L16.8317 15.0927C16.4412 15.4832 15.808 15.4832 15.4175 15.0927C15.0269 14.7021 15.0269 14.069 15.4175 13.6784L16.8319 12.264L15.4179 10.85C15.0274 10.4595 15.0274 9.82632 15.4179 9.43579Z" fill="#313D49" fill-opacity="0.9"/>
</svg>
