<svg width="24" height="24" viewBox="0 0 24 24" fill="none" xmlns="http://www.w3.org/2000/svg">
<path fill-rule="evenodd" clip-rule="evenodd" d="M5.35337 17.4196H3C1.89544 17.4196 1 16.5241 1 15.4196V8.5054C1 7.40081 1.89544 6.5054 3 6.5054L5.35004 6.5054C5.40727 6.42008 5.47191 6.32584 5.54368 6.22429C5.86285 5.77268 6.32942 5.16734 6.9178 4.55805C8.05699 3.37837 9.83034 2 12 2C12.5523 2 13 2.44772 13 3V20.92C13 21.4723 12.5523 21.92 12 21.92C9.83034 21.92 8.05699 20.5416 6.9178 19.362C6.32942 18.7527 5.86285 18.1473 5.54368 17.6957C5.4733 17.5961 5.40977 17.5036 5.35337 17.4196ZM6.78563 7.97128L6.76819 8.00048C6.58714 8.30843 6.25878 8.5054 5.89927 8.5054L3 8.5054V15.4196H4.44965V15.4146H5.89927C6.25878 15.4146 6.58714 15.6116 6.76819 15.9195L6.78563 15.9487C6.80206 15.976 6.82796 16.0183 6.8629 16.0735C6.93287 16.1841 7.03868 16.3458 7.17697 16.5414C7.45482 16.9346 7.85718 17.4556 8.35649 17.9726C9.12957 18.7732 10.0367 19.4632 11 19.7619V4.15806C10.0367 4.45683 9.12957 5.14679 8.35649 5.94735C7.85718 6.46441 7.45482 6.98542 7.17697 7.37857C7.03868 7.57424 6.93287 7.73592 6.8629 7.8465C6.82796 7.90174 6.80206 7.94405 6.78563 7.97128Z" fill="#313D49" fill-opacity="0.9"/>
<path d="M16.4031 2.96344C16.6936 2.49376 17.3099 2.34855 17.7796 2.63911C20.9104 4.57594 22.9999 8.04354 22.9999 12C22.9999 16.019 20.844 19.5334 17.6304 21.4515C17.1562 21.7346 16.5423 21.5796 16.2592 21.1054C15.9762 20.6311 16.1311 20.0172 16.6054 19.7342C19.2394 18.1619 20.9999 15.2861 20.9999 12C20.9999 8.76496 19.2937 5.92757 16.7274 4.33996C16.2577 4.0494 16.1125 3.43311 16.4031 2.96344Z" fill="#313D49" fill-opacity="0.9"/>
<path d="M16.6661 6.7541C16.2541 6.38624 15.622 6.42198 15.2541 6.83393C14.8863 7.24588 14.922 7.87803 15.3339 8.24589C15.5929 8.47709 15.8279 8.73634 16.0345 9.01921C16.6399 9.8481 17 10.8785 17 12C17 13.1118 16.6461 14.134 16.0502 14.9592C15.8398 15.2505 15.5994 15.517 15.3339 15.7541C14.922 16.122 14.8863 16.7541 15.2541 17.1661C15.622 17.578 16.2541 17.6137 16.6661 17.2459C17.0397 16.9123 17.377 16.538 17.6716 16.1301C18.5074 14.9727 19 13.5427 19 12C19 10.4438 18.4988 9.00229 17.6496 7.83958C17.3602 7.44335 17.0304 7.0794 16.6661 6.7541Z" fill="#313D49" fill-opacity="0.9"/>
</svg>
