<svg width="24" height="24" viewBox="0 0 24 24" fill="none" xmlns="http://www.w3.org/2000/svg">
<path d="M7.9988 22.3518L8.4356 16.5218L2.29945 14.0395C1.95404 13.8998 1.89301 13.3723 2.19219 13.1113L8.15905 7.90364L9.4303 1.435C9.5177 0.990277 10.0144 0.845727 10.2564 1.19462L14.3398 7.08029C14.4622 7.25679 14.4713 7.50714 14.3616 7.70264C13.2418 9.69729 11.3711 10.9967 11.3711 10.9967C14.2923 10.4003 19.0194 7.26949 21.1823 5.75469C21.5676 5.48484 22.0188 5.91654 21.8508 6.39494C18.1891 16.8239 10.9644 21.5691 8.65805 22.861C8.3323 23.0436 7.9681 22.7614 7.9988 22.3518Z" fill="#313D49" fill-opacity="0.9"/>
<path d="M17.0438 16.4987C17.7954 15.8358 18.6094 14.7512 18.9873 14.224C19.1071 14.0568 19.3661 14.0415 19.5164 14.187C20.8619 15.4909 21.3941 17.9748 21.5788 19.1661C21.6192 19.4264 21.2963 19.6045 21.0573 19.4545L17.0862 16.9617C16.9138 16.8534 16.8936 16.6312 17.0438 16.4987Z" fill="#313D49" fill-opacity="0.9"/>
</svg>
