<svg width="24" height="24" viewBox="0 0 24 24" fill="none" xmlns="http://www.w3.org/2000/svg">
<path fill-rule="evenodd" clip-rule="evenodd" d="M11.9967 1.5C12.3775 1.49903 12.7258 1.71437 12.895 2.05544L15.7584 7.82487L22.1443 8.75601C22.5204 8.81086 22.833 9.07424 22.9508 9.43565C23.0686 9.79707 22.9713 10.194 22.6997 10.46L18.0549 15.0089L19.1578 21.3281C19.2235 21.7046 19.0689 22.0856 18.7594 22.3098C18.4499 22.534 18.0396 22.5622 17.7023 22.3825L11.9993 19.3428L6.29763 22.3824C5.96016 22.5623 5.54962 22.534 5.24005 22.3095C4.93047 22.0849 4.77608 21.7035 4.84231 21.3268L5.95321 15.0089L1.30093 10.4606C1.0289 10.1947 0.931336 9.7974 1.04922 9.43569C1.1671 9.07399 1.48 8.81049 1.85649 8.7559L8.27698 7.82489L11.1013 2.06004C11.2688 1.71811 11.616 1.50098 11.9967 1.5ZM12.0051 4.7611L9.84082 9.17876C9.69552 9.47534 9.41315 9.68106 9.0863 9.72845L4.14578 10.4449L7.72852 13.9475C7.96455 14.1783 8.0715 14.5106 8.01434 14.8357L7.16743 19.6523L11.5289 17.3272C11.8229 17.1704 12.1756 17.1704 12.4697 17.3271L16.8354 19.654L15.9942 14.8345C15.9376 14.5101 16.0443 14.1785 16.2796 13.9481L19.8578 10.4438L14.9514 9.72834C14.6266 9.68099 14.3458 9.47732 14.1999 9.18336L12.0051 4.7611Z" fill="#313D49" fill-opacity="0.9"/>
</svg>
