<svg width="24" height="24" viewBox="0 0 24 24" fill="none" xmlns="http://www.w3.org/2000/svg">
<path d="M17.7071 9.70711C18.0976 9.31658 18.0976 8.68342 17.7071 8.29289C17.3166 7.90237 16.6834 7.90237 16.2929 8.29289L11 13.5858L8.70711 11.2929C8.31658 10.9024 7.68342 10.9024 7.29289 11.2929C6.90237 11.6834 6.90237 12.3166 7.29289 12.7071L10.2929 15.7071C10.6834 16.0976 11.3166 16.0976 11.7071 15.7071L17.7071 9.70711Z" fill="#313D49" fill-opacity="0.9"/>
<path fill-rule="evenodd" clip-rule="evenodd" d="M12 1C8.96273 1 6.21136 2.23232 4.22183 4.22182C2.23233 6.21135 1 8.96273 1 12C1 15.0373 2.23231 17.7886 4.22182 19.7782C6.21135 21.7677 8.96273 23 12 23C15.0373 23 17.7886 21.7677 19.7782 19.7782C21.7677 17.7886 23 15.0373 23 12C23 8.96273 21.7677 6.21136 19.7782 4.22183C17.7886 2.23232 15.0373 1 12 1ZM5.63603 5.63604C7.26584 4.00626 9.51447 3 12 3C14.4855 3 16.7342 4.00627 18.3639 5.63604C19.9937 7.26584 21 9.51447 21 12C21 14.4855 19.9937 16.7342 18.3639 18.3639C16.7342 19.9937 14.4855 21 12 21C9.51447 21 7.26584 19.9937 5.63604 18.3639C4.00627 16.7342 3 14.4855 3 12C3 9.51447 4.00625 7.26585 5.63603 5.63604Z" fill="#313D49" fill-opacity="0.9"/>
</svg>
