<svg width="24" height="24" viewBox="0 0 24 24" fill="none" xmlns="http://www.w3.org/2000/svg">
<path d="M16 11C16 11.5523 15.5523 12 15 12H13V18C13 18.5523 12.5523 19 12 19C11.4477 19 11 18.5523 11 18V12H9C8.44772 12 8 11.5523 8 11C8 10.4477 8.44772 10 9 10H15C15.5523 10 16 10.4477 16 11Z" fill="#313D49" fill-opacity="0.9"/>
<path fill-rule="evenodd" clip-rule="evenodd" d="M5 1C3.89543 1 3 1.89543 3 3V21C3 22.1046 3.89544 23 5 23H19C20.1046 23 21 22.1046 21 21V7C21 6.74138 20.9018 6.5057 20.7407 6.32817L16.2433 1.33104C16.0537 1.12032 15.7835 1 15.5 1H5ZM14 3H5V21H19V8H15C14.4477 8 14 7.55228 14 7V3ZM17.7546 6H16V4.0504L17.7546 6Z" fill="#313D49" fill-opacity="0.9"/>
</svg>
