<svg width="24" height="24" viewBox="0 0 24 24" fill="none" xmlns="http://www.w3.org/2000/svg">
<path fill-rule="evenodd" clip-rule="evenodd" d="M19.3034 4.44821C18.8183 3.80772 18.2361 3.30145 17.5483 2.96431C16.7358 2.56607 15.8381 2.43441 14.8897 2.52968C13.3287 2.6865 12.2322 3.56363 11.6122 4.83573C11.1108 5.86433 10.9277 7.12584 10.9658 8.4593C9.75622 8.87007 8.68913 8.60047 7.72097 7.9824C6.54639 7.23255 5.55513 5.97912 4.84945 4.82887C4.6398 4.48714 4.24633 4.30366 3.84979 4.36271C3.45325 4.42176 3.13031 4.71193 3.02932 5.09991C2.5277 7.02712 1.9727 9.57453 3.06384 12.409L3.99708 12.0498L3.06384 12.409C3.64991 13.9315 4.82646 15.2003 6.47577 16.2537C4.88839 16.9058 3.6393 17.0802 2.6872 16.8988C2.20448 16.8068 1.72645 17.0792 1.55948 17.5413C1.39251 18.0035 1.58609 18.5185 2.01614 18.7563C2.03901 18.7689 2.06547 18.7836 2.0954 18.8003C2.69679 19.135 4.70084 20.2506 7.18941 20.9362C9.77583 21.6488 13.1038 21.957 15.9398 20.1851C21.157 16.9254 21.1195 11.395 21.1021 8.83001C21.1018 8.78384 21.1015 8.73862 21.1012 8.69441C21.1595 8.5992 21.2322 8.49365 21.3275 8.35774L21.3453 8.33241C21.4912 8.12449 21.6796 7.85588 21.8531 7.52736C22.2333 6.80717 22.5 5.88541 22.5 4.4719C22.5 4.07464 22.2648 3.71505 21.9009 3.55578C21.537 3.39652 21.1133 3.46778 20.8214 3.73735C20.2077 4.30427 19.7182 4.47498 19.3034 4.44821ZM16.6681 4.7602C16.238 4.5494 15.7233 4.456 15.0896 4.51966C14.2776 4.60124 13.7535 5.0074 13.41 5.71202C13.0384 6.47436 12.8805 7.60551 13.0004 9.01883C13.0348 9.42516 12.8191 9.81171 12.4552 9.99574C10.2514 11.1102 8.24198 10.6878 6.64478 9.66817C5.83282 9.14981 5.12084 8.47624 4.51582 7.77084C4.35549 9.00956 4.3995 10.3116 4.93032 11.6905C5.44701 13.0327 6.74173 14.3014 9.08903 15.4077C9.43005 15.5685 9.6517 15.9073 9.66229 16.2842C9.67289 16.661 9.47064 17.0118 9.13919 17.1915C8.10118 17.7541 7.10527 18.196 6.15797 18.4983C6.64555 18.6812 7.17043 18.8565 7.72064 19.008C10.107 19.6655 12.7518 19.8187 14.8801 18.4889C19.1247 15.8368 19.1098 11.3834 19.101 8.77525C19.1007 8.66085 19.1003 8.54999 19.1003 8.443C19.1003 8.29393 19.1336 8.14675 19.1978 8.01222C19.3487 7.69622 19.5362 7.42878 19.6821 7.2208L19.6899 7.2096C19.8464 6.98642 19.9714 6.80774 20.0845 6.59351C20.1231 6.52036 20.1618 6.44024 20.1991 6.35093C19.6327 6.49416 19.0405 6.49198 18.4312 6.30996C18.2054 6.24248 18.0106 6.09737 17.8813 5.90024C17.5092 5.33298 17.1002 4.972 16.6681 4.7602Z" fill="#313D49" fill-opacity="0.9"/>
</svg>
