<svg width="24" height="24" viewBox="0 0 24 24" fill="none" xmlns="http://www.w3.org/2000/svg">
<path d="M1.8079 7.00041C3.41034 3.92631 6.74223 2.15851 10.1862 2.55517C13.3677 2.92161 16.0363 5.06529 17.1037 8.03725L17.5256 8.03725C19.855 8.03572 22.1831 9.26687 22.9533 11.698C23.6918 14.0289 22.8343 16.5696 20.8341 17.9761C20.3823 18.2937 19.7586 18.185 19.4409 17.7333C19.1232 17.2815 19.2319 16.6577 19.6837 16.34C20.9701 15.4354 21.5218 13.8013 21.0468 12.302C20.6036 10.9032 19.2152 10.0359 17.5271 10.0372L16.3658 10.0372C15.9093 10.0372 15.5107 9.72802 15.3972 9.28579C14.7415 6.73045 12.5781 4.84389 9.95733 4.54203C7.33646 4.24017 4.80087 5.58548 3.58141 7.92489C2.36194 10.2643 2.71113 13.1134 4.45946 15.089C4.82546 15.5026 4.78687 16.1346 4.37328 16.5006C3.95968 16.8666 3.32769 16.828 2.96169 16.4145C0.664316 13.8183 0.205464 10.0745 1.8079 7.00041Z" fill="#313D49" fill-opacity="0.9"/>
<path d="M13.0006 13.0509L14.4748 14.5251C14.8653 14.9156 15.4985 14.9156 15.889 14.5251C16.2795 14.1346 16.2795 13.5014 15.889 13.1109L12.707 9.92894C12.3165 9.53842 11.6833 9.53842 11.2928 9.92894L8.1108 13.1109C7.72027 13.5014 7.72027 14.1346 8.11079 14.5251C8.50131 14.9156 9.13448 14.9156 9.525 14.5251L11.0006 13.0496L11.004 20.5005C11.0043 21.0528 11.4522 21.5003 12.0045 21.5C12.5568 21.4997 13.0043 21.0518 13.004 20.4995L13.0006 13.0509Z" fill="#313D49" fill-opacity="0.9"/>
</svg>
