<svg width="24" height="24" viewBox="0 0 24 24" fill="none" xmlns="http://www.w3.org/2000/svg">
<g clip-path="url(#clip0_7:274)">
<path d="M12 16.5001C12.5523 16.5001 13 16.9478 13 17.5001V18.0001C13 18.5524 12.5523 19.0001 12 19.0001C11.4477 19.0001 11 18.5524 11 18.0001V17.5001C11 16.9478 11.4477 16.5001 12 16.5001Z" fill="#313D49" fill-opacity="0.9"/>
<path d="M13 9.49952C12.9995 8.94724 12.5515 8.49989 11.9992 8.50035C11.4469 8.50081 10.9995 8.9489 11 9.50118L11.0042 14.5009C11.0046 15.0532 11.4527 15.5006 12.005 15.5001C12.5573 15.4996 13.0046 15.0516 13.0042 14.4993L13 9.49952Z" fill="#313D49" fill-opacity="0.9"/>
<path fill-rule="evenodd" clip-rule="evenodd" d="M12 1.50009C12.3568 1.50009 12.6866 1.69024 12.8654 1.99906L23.8654 20.9991C24.0445 21.3084 24.0449 21.6899 23.8663 21.9996C23.6878 22.3093 23.3575 22.5001 23 22.5001H1C0.642521 22.5001 0.31223 22.3093 0.133676 21.9996C-0.0448788 21.6899 -0.0445365 21.3084 0.134574 20.9991L11.1346 1.99906C11.3134 1.69024 11.6432 1.50009 12 1.50009ZM21.2656 20.5001L12 4.49596L2.73445 20.5001H21.2656Z" fill="#313D49" fill-opacity="0.9"/>
</g>
<defs>
<clipPath id="clip0_7:274">
<rect width="24" height="24" fill="white"/>
</clipPath>
</defs>
</svg>
