<?xml version="1.0" standalone="no"?>
<!DOCTYPE svg PUBLIC "-//W3C//DTD SVG 20010904//EN"
 "http://www.w3.org/TR/2001/REC-SVG-20010904/DTD/svg10.dtd">
<svg version="1.0" xmlns="http://www.w3.org/2000/svg"
 width="16.000000pt" height="16.000000pt" viewBox="0 0 16.000000 16.000000"
 preserveAspectRatio="xMidYMid meet">
<metadata>
Created by potrace 1.11, written by Peter Selinger 2001-2013
</metadata>
<g transform="translate(0.000000,16.000000) scale(0.002286,-0.002286)"
fill="#000000" stroke="none">
<path d="M3375 6928 c-66 -39 -208 -121 -315 -183 -107 -61 -451 -260 -765
-442 -534 -309 -1252 -724 -1320 -763 -16 -10 -124 -72 -239 -139 -115 -66
-211 -121 -214 -121 -2 0 -14 -8 -26 -17 -15 -13 -21 -27 -20 -48 2 -30 11
-193 19 -365 3 -52 7 -124 10 -160 3 -36 7 -121 10 -190 3 -69 8 -154 10 -190
2 -36 7 -119 10 -185 3 -66 8 -151 10 -190 4 -74 15 -269 20 -370 2 -33 6
-112 9 -175 4 -63 9 -160 11 -215 3 -55 7 -134 10 -175 3 -41 8 -124 10 -185
3 -60 8 -148 11 -195 2 -47 7 -128 9 -180 3 -52 7 -140 11 -195 3 -55 7 -129
9 -165 13 -267 18 -326 23 -332 4 -3 313 -195 687 -425 374 -231 1010 -623
1414 -872 l733 -452 37 24 c20 14 187 118 371 232 184 114 437 271 562 349
125 78 262 162 305 188 43 26 98 61 123 76 25 16 225 141 445 277 220 136 416
258 435 270 19 13 103 65 185 115 354 219 355 219 356 254 0 17 2 47 3 66 2
19 7 94 10 165 4 72 9 153 11 180 2 28 6 102 10 165 3 63 8 142 10 175 3 33 7
110 10 170 3 61 8 135 10 165 2 30 7 105 10 165 3 61 8 142 10 180 3 39 7 108
10 155 3 47 7 123 10 170 2 47 7 128 10 180 3 52 7 127 10 165 3 39 7 117 10
175 3 58 8 134 10 170 2 36 7 112 10 170 3 58 7 130 10 160 2 30 7 109 10 175
3 66 8 145 10 175 2 30 7 105 10 165 3 61 7 124 10 142 4 31 1 33 -97 90 -56
32 -120 69 -142 82 -23 13 -60 34 -83 47 -23 13 -108 63 -190 110 -81 48 -238
138 -348 202 -110 63 -254 146 -320 185 -66 38 -140 81 -164 95 -25 14 -68 38
-95 55 -28 16 -65 38 -83 48 -55 31 -551 318 -709 410 -83 48 -169 98 -190
110 -21 12 -77 44 -124 72 -47 27 -103 60 -125 72 -22 13 -96 56 -165 95 -174
101 -190 110 -193 110 -1 -1 -56 -33 -122 -72z m253 -352 c70 -40 287 -166
482 -278 195 -113 683 -395 1083 -627 400 -231 747 -431 770 -445 146 -82 262
-155 260 -163 -1 -6 -5 -63 -8 -129 -4 -65 -8 -141 -10 -169 -3 -47 -11 -176
-20 -345 -3 -41 -7 -109 -10 -150 -2 -41 -7 -122 -10 -180 -4 -58 -8 -127 -10
-155 -2 -27 -7 -104 -10 -170 -4 -66 -8 -140 -10 -165 -2 -25 -6 -103 -10
-175 -3 -71 -8 -150 -10 -175 -2 -24 -6 -99 -10 -165 -3 -66 -8 -140 -10 -165
-2 -25 -7 -99 -10 -165 -4 -66 -9 -142 -10 -170 -2 -27 -7 -102 -10 -165 -4
-63 -8 -135 -10 -160 -1 -25 -6 -108 -10 -185 -4 -77 -9 -143 -12 -147 -4 -8
-32 -25 -778 -488 -422 -261 -468 -290 -552 -344 -80 -51 -951 -591 -1013
-628 -36 -21 -93 -57 -127 -79 l-62 -40 -133 82 c-73 45 -155 97 -183 114 -53
34 -1281 797 -1327 824 -14 9 -107 66 -205 127 -98 61 -281 176 -408 254 -272
168 -282 175 -282 192 -2 58 -15 272 -18 308 -2 25 -6 97 -10 160 -3 63 -7
149 -10 190 -12 179 -15 221 -20 325 -3 61 -8 137 -10 170 -2 33 -7 107 -10
165 -3 58 -8 129 -10 158 -2 30 -6 108 -10 175 -3 67 -8 142 -10 167 -2 25 -7
99 -10 165 -4 66 -8 140 -10 165 -2 25 -7 98 -10 163 -3 65 -7 146 -10 180 -2
34 -7 112 -10 172 -3 61 -8 135 -10 165 -2 30 -7 105 -10 165 -4 61 -7 112 -7
115 -1 22 13 34 94 81 51 29 102 57 113 63 11 6 27 16 35 22 8 6 35 23 60 36
49 27 881 507 1075 621 66 38 136 79 155 90 19 10 107 61 195 112 88 51 261
151 385 223 124 71 241 139 260 151 19 11 44 25 55 30 11 6 81 46 155 90 74
44 136 80 138 81 2 0 61 -33 130 -74z"/>
<path d="M2852 5447 c-49 -15 -118 -81 -138 -132 -25 -66 -16 -141 25 -207 31
-49 33 -57 33 -146 0 -51 -2 -95 -4 -97 -5 -5 -241 -147 -288 -173 -25 -14
-90 -53 -145 -86 -55 -34 -116 -69 -135 -80 l-36 -18 -76 46 c-84 51 -92 59
-101 97 -4 15 -24 44 -45 66 -131 135 -365 55 -385 -132 -14 -135 104 -254
240 -243 50 4 59 2 125 -39 38 -23 74 -43 78 -43 5 0 11 -8 13 -17 8 -28 6
-708 -1 -719 -4 -6 -41 -29 -83 -51 -72 -38 -81 -40 -147 -37 -50 2 -81 -2
-104 -13 -145 -70 -178 -251 -66 -362 70 -69 172 -85 258 -41 43 22 110 95
110 121 0 12 30 33 92 66 l92 49 300 -179 c166 -99 302 -180 304 -182 2 -2 4
-499 3 -665 l-1 -66 -84 -43 c-77 -40 -88 -43 -134 -36 -94 13 -180 -31 -226
-114 -60 -111 -12 -258 101 -307 116 -51 240 -7 298 105 20 40 34 52 108 90
l85 44 91 -54 c108 -64 306 -182 396 -236 11 -7 27 -15 35 -19 8 -4 17 -10 20
-13 3 -3 19 -14 35 -23 l30 -17 1 -98 c0 -92 -1 -100 -28 -137 -82 -114 -46
-263 81 -334 13 -8 48 -16 77 -19 127 -13 243 87 246 212 1 56 -20 120 -48
146 -22 21 -24 30 -24 128 l0 106 62 35 c78 44 102 58 345 203 l198 119 87
-43 c74 -36 89 -48 104 -80 98 -218 420 -157 430 81 6 138 -118 244 -263 226
-43 -6 -56 -2 -128 37 l-80 44 0 364 0 363 239 143 c132 79 243 143 248 143 4
0 8 5 8 10 0 6 5 10 10 10 6 0 31 13 56 28 l45 29 77 -40 c90 -46 112 -64 112
-87 0 -32 86 -108 140 -124 225 -67 388 203 224 370 -50 51 -105 69 -183 61
-48 -5 -61 -2 -137 36 l-84 42 0 45 c-1 25 -1 189 -2 365 l0 320 82 49 c77 47
87 50 154 51 105 1 167 41 207 133 65 150 -47 308 -216 305 -89 -1 -173 -62
-201 -145 -8 -25 -28 -43 -90 -80 -43 -26 -83 -47 -89 -47 -5 0 -143 80 -305
177 l-295 178 -1 99 c0 93 2 102 27 135 57 74 61 169 12 248 -94 153 -318 140
-394 -23 -26 -56 -25 -137 3 -191 12 -24 25 -44 29 -44 16 0 24 -60 21 -145
-3 -69 -7 -87 -20 -93 -9 -3 -75 -41 -145 -84 -71 -43 -130 -78 -131 -78 -2 0
-70 -40 -152 -90 -81 -49 -152 -90 -156 -90 -6 0 -294 168 -363 212 -16 10
-77 47 -135 81 l-104 63 -2 94 c-2 88 0 97 26 135 66 97 63 201 -8 286 -49 59
-161 89 -240 66z m2184 -1567 l0 -365 -211 -128 c-115 -70 -223 -134 -240
-142 -16 -9 -57 -33 -91 -54 l-61 -38 -124 74 c-68 40 -131 77 -139 82 -8 6
-88 53 -177 106 l-163 97 0 367 0 367 91 54 c51 30 108 65 128 77 20 13 56 34
81 48 25 14 103 60 174 103 l129 78 301 -180 302 -180 0 -366z m-1051 -810
c160 -95 291 -174 293 -175 2 -2 4 -597 2 -707 0 -25 -26 -43 -296 -204 -163
-98 -302 -177 -308 -177 -10 0 -569 332 -591 351 -7 6 -11 133 -10 372 l0 363
295 178 c162 98 302 176 310 175 8 -2 146 -81 305 -176z"/>
</g>
</svg>
