<svg xmlns:dc="http://purl.org/dc/elements/1.1/" xmlns:cc="http://creativecommons.org/ns#" xmlns:rdf="http://www.w3.org/1999/02/22-rdf-syntax-ns#" xmlns:svg="http://www.w3.org/2000/svg" xmlns="http://www.w3.org/2000/svg" xmlns:sodipodi="http://sodipodi.sourceforge.net/DTD/sodipodi-0.dtd" xmlns:inkscape="http://www.inkscape.org/namespaces/inkscape" version="1.1" x="0px" y="0px" viewBox="0 0 100 100"><g transform="translate(0,-952.36218)"><path style="font-size:medium;font-style:normal;font-variant:normal;font-weight:normal;font-stretch:normal;text-indent:0;text-align:start;text-decoration:none;line-height:normal;letter-spacing:normal;word-spacing:normal;text-transform:none;direction:ltr;block-progression:tb;writing-mode:lr-tb;text-anchor:start;baseline-shift:baseline;opacity:1;color:#000000;fill:#000000;fill-opacity:1;stroke:none;stroke-width:3.99999976000000010;marker:none;visibility:visible;display:inline;overflow:visible;enable-background:accumulate;font-family:Sans;-inkscape-font-specification:Sans" d="M 50 14 C 42.038197 14 34.848654 15.18703 29.46875 17.25 C 26.778798 18.28149 24.526006 19.53229 22.84375 21.0625 C 21.161494 22.59271 20 24.53188 20 26.71875 L 20 73.25 C 20 75.4369 21.161494 77.37605 22.84375 78.90625 C 24.526006 80.43655 26.778798 81.68725 29.46875 82.71875 C 34.848654 84.78165 42.038197 86 50 86 C 57.961803 86 65.151346 84.78165 70.53125 82.71875 C 73.221202 81.68725 75.473994 80.43655 77.15625 78.90625 C 78.838506 77.37605 80 75.4369 80 73.25 L 80 26.71875 C 80 24.53188 78.838506 22.59271 77.15625 21.0625 C 75.473994 19.53229 73.221202 18.28149 70.53125 17.25 C 65.151346 15.18703 57.961803 14 50 14 z M 50 18 C 57.550197 18 64.351654 19.1816 69.09375 21 C 71.464798 21.9092 73.324756 22.99065 74.46875 24.03125 C 75.612744 25.07185 76 25.93152 76 26.71875 L 76 42.4375 A 2.0064593 2.0064593 0 0 0 75.96875 42.59375 C 75.854774 43.3519 75.307112 44.27003 74.0625 45.28125 C 72.817888 46.29247 70.95114 47.33178 68.59375 48.1875 C 63.878969 49.8989 57.280198 51 50 51 C 42.719802 51 36.121031 49.8989 31.40625 48.1875 C 29.04886 47.33178 27.182112 46.29247 25.9375 45.28125 C 24.692888 44.27003 24.145226 43.3519 24.03125 42.59375 A 2.0001999 2.0001999 0 0 0 24 42.40625 L 24 32.8125 C 25.675409 34.045292 27.740883 35.100401 30.15625 35.96875 C 35.452514 37.87281 42.373027 39 50 39 C 58.115459 39 65.430723 37.73175 70.84375 35.59375 A 2.0001999 2.0001999 0 1 0 69.375 31.875 C 64.624153 33.75146 57.695903 35 50 35 C 42.767329 35 36.208508 33.91151 31.5 32.21875 C 29.145746 31.37237 27.26102 30.34902 26 29.34375 C 24.73898 28.33848 24.165094 27.41302 24.03125 26.65625 A 2.0001999 2.0001999 0 0 0 24.03125 26.59375 C 24.071382 25.840928 24.448321 25.016304 25.53125 24.03125 C 26.675244 22.99065 28.535202 21.9092 30.90625 21 C 35.648346 19.1816 42.449803 18 50 18 z M 32 40 C 30.895431 40 30 40.895431 30 42 C 30 43.104569 30.895431 44 32 44 C 33.104569 44 34 43.104569 34 42 C 34 40.895431 33.104569 40 32 40 z M 24 48.84375 C 25.652826 50.05916 27.688321 51.075694 30.0625 51.9375 C 35.372273 53.8649 42.32292 55 50 55 C 57.67708 55 64.627727 53.8649 69.9375 51.9375 C 72.311679 51.075694 74.347174 50.05916 76 48.84375 L 76 57.4375 A 2.0064556 2.0064556 0 0 0 75.96875 57.59375 C 75.854774 58.35185 75.307112 59.27005 74.0625 60.28125 C 72.817888 61.29255 70.95114 62.3318 68.59375 63.1875 C 63.878969 64.8989 57.280198 66 50 66 C 42.719802 66 36.121031 64.8989 31.40625 63.1875 C 29.04886 62.3318 27.182112 61.29255 25.9375 60.28125 C 24.692888 59.27005 24.145226 58.35185 24.03125 57.59375 A 2.0001999 2.0001999 0 0 0 24 57.40625 L 24 48.84375 z M 32 56 C 30.895431 56 30 56.895431 30 58 C 30 59.104569 30.895431 60 32 60 C 33.104569 60 34 59.104569 34 58 C 34 56.895431 33.104569 56 32 56 z M 24 63.84375 C 25.652826 65.05916 27.688321 66.075694 30.0625 66.9375 C 35.372273 68.8649 42.32292 70 50 70 C 57.67708 70 64.627727 68.8649 69.9375 66.9375 C 72.311679 66.075694 74.347174 65.05916 76 63.84375 L 76 73.25 C 76 74.0372 75.612744 74.92815 74.46875 75.96875 C 73.324756 77.00925 71.464798 78.05955 69.09375 78.96875 C 64.351654 80.78705 57.550197 82 50 82 C 42.449803 82 35.648346 80.78705 30.90625 78.96875 C 28.535202 78.05955 26.675244 77.00925 25.53125 75.96875 C 24.387256 74.92815 24 74.0372 24 73.25 L 24 63.84375 z M 32 71 C 30.895431 71 30 71.895431 30 73 C 30 74.104569 30.895431 75 32 75 C 33.104569 75 34 74.104569 34 73 C 34 71.895431 33.104569 71 32 71 z " transform="translate(0,952.36218)"></path></g></svg>