<svg height='100px' width='100px'  fill="#ffffff" xmlns="http://www.w3.org/2000/svg" xmlns:xlink="http://www.w3.org/1999/xlink" version="1.1" x="0px" y="0px" viewBox="0 0 100 100" style="enable-background:new 0 0 100 100;" xml:space="preserve"><g><path d="M58.6,8.1c-2.1-0.4-4.2,0.9-4.6,3L38.3,87.8c-0.4,2.1,0.9,4.2,3,4.6c0.3,0.1,0.5,0.1,0.8,0.1   c1.8,0,3.4-1.3,3.8-3.1l15.7-76.7C62.1,10.6,60.8,8.5,58.6,8.1z"></path><path d="M92.3,44.7L69.8,28.6c-1.7-1.3-4.2-0.9-5.4,0.9c-1.3,1.7-0.9,4.2,0.9,5.4l21,15.1L65.2,65.6   c-1.7,1.3-2.1,3.7-0.8,5.4c0.8,1,1.9,1.6,3.1,1.6c0.8,0,1.6-0.2,2.3-0.8l22.5-16.6C94,54,95,52,95,50S94,45.9,92.3,44.7z"></path><path d="M35.6,29.5c-1.3-1.7-3.7-2.2-5.4-0.9L7.7,44.7C6,45.9,5,47.9,5,50c0,2.1,1,4,2.6,5.3l22.5,16.6   c0.7,0.5,1.5,0.8,2.3,0.8c1.2,0,2.4-0.5,3.1-1.6c1.3-1.7,0.9-4.2-0.8-5.4L13.7,50l21-15.1C36.5,33.7,36.9,31.3,35.6,29.5z"></path></g></svg>