<svg xmlns="http://www.w3.org/2000/svg" xmlns:xlink="http://www.w3.org/1999/xlink" width="100" height="100" viewBox="0 0 100 100"><g><g transform="translate(50 50) scale(0.69 0.69) rotate(0) translate(-50 -50)" style="fill:#4d4d4d"><svg fill="#4d4d4d" xmlns="http://www.w3.org/2000/svg" data-name="Слой 1" viewBox="0 0 128 128" x="0px" y="0px"><title>rocket,stopwatch, startup,launch, fast, starting,mvp_1</title><path d="M17.14,106.11a1,1,0,0,0,.1-1.41A61.53,61.53,0,0,1,2.21,59,62.55,62.55,0,0,1,4.37,47a1,1,0,1,0-1.92-.55A64.51,64.51,0,0,0,.22,58.8,63.51,63.51,0,0,0,15.73,106a1,1,0,0,0,1.41.1Z"></path><path d="M64.81,126h0c-1.92,0-3.88,0-5.82-.2a61.49,61.49,0,0,1-35.84-15.17,1,1,0,1,0-1.32,1.5,63.47,63.47,0,0,0,37,15.66c1.75.14,3.52.21,5.26.21h.75a1,1,0,0,0,0-2Z"></path><path d="M77.63,124.5c-1.5.34-3,.62-4.53.84a1,1,0,0,0,.14,2h.15c1.56-.23,3.13-.52,4.68-.87a1,1,0,1,0-.44-2Z"></path><path d="M125.08,74.5A62.67,62.67,0,0,1,122.66,84a1,1,0,0,0,.62,1.27,1,1,0,0,0,.32.05,1,1,0,0,0,.95-.68,64.69,64.69,0,0,0,2.5-9.85,63.42,63.42,0,0,0-11.81-49.15,1,1,0,1,0-1.6,1.2A61.45,61.45,0,0,1,125.08,74.5Z"></path><path d="M64.65,2a62.71,62.71,0,0,1,9.83.9,61.36,61.36,0,0,1,26.47,11.31,1,1,0,0,0,1.19-1.6A63.33,63.33,0,0,0,74.81.93,64.66,64.66,0,0,0,64.67,0h0a1,1,0,0,0,0,2Z"></path><path d="M50.64,3.42l.21,0c1.61-.35,3.26-.64,4.89-.85a1,1,0,0,0-.26-2c-1.69.23-3.38.52-5,.88a1,1,0,0,0,.21,2Z"></path><path d="M30.92,53.74a38.08,38.08,0,0,0-7.68,10.74,1,1,0,0,0,.84,1.39l16.71,1.41a30.14,30.14,0,0,0-1.23,6.56,1,1,0,0,0,.29.77l6.08,6.08-3,3a1,1,0,1,0,1.41,1.41l3-3,6.08,6.08a1,1,0,0,0,.71.29h.06a30.15,30.15,0,0,0,6.56-1.23L62.16,104a1,1,0,0,0,1.39.84,38,38,0,0,0,10.74-7.68C86.55,84.84,87.61,81.16,86.05,71.65c.62-.59,1.24-1.18,1.86-1.8,9.38-9.38,17.27-24.55,21.18-36.28a1.23,1.23,0,0,0,.16-.49c2.54-7.78,3.29-14,1.48-15.77-2.76-2.76-13.59.25-22,3.67-12.15,4.92-23.27,11.9-30.51,19.14-.61.61-1.21,1.23-1.8,1.86C46.87,40.42,43.19,41.48,30.92,53.74ZM25.67,64a38.58,38.58,0,0,1,6.66-8.84c11.58-11.58,15-12.52,22.44-11.41-6.25,7-10.92,14.61-13.36,21.57Zm37.51-.57-4.1,4.1c-3-3-5.88-5.7-8.16-7.71A34.22,34.22,0,0,0,47.49,57q1.46-2.5,3.23-5C52.1,53,56.5,56.78,63.19,63.43Zm7.75,17.14c-1-1.69-3.8-4.95-10.44-11.63l4.1-4.1C71.25,71.53,75.07,75.93,76,77.31Q73.47,79.1,70.94,80.57ZM41.59,73.51C42,69.07,43.69,64,46.5,58.79A114.6,114.6,0,0,1,57.67,68.94L47.35,79.27Zm7.17,7.17L59.08,70.36A114.66,114.66,0,0,1,69.24,81.52C64,84.34,59,86.07,54.52,86.44Zm24.11,15A38.55,38.55,0,0,1,64,102.35L62.71,86.61c7-2.43,14.56-7.11,21.57-13.36C85.38,80.65,84.44,84.12,72.87,95.69Zm36.44-77c1,1,.48,5.42-1.3,11.52l-.25-.35a46.49,46.49,0,0,0-4.5-5.12,39.14,39.14,0,0,0-5.58-4.83C104.4,18,108.47,17.89,109.31,18.72ZM59.59,41.54c7.06-7.06,17.93-13.87,29.85-18.7,1.91-.77,3.69-1.43,5.34-2a1,1,0,0,0,.41,0c.74.25,3.21,1.93,6.65,5.37s5.11,5.89,5.37,6.64c-3.55,10.85-10.66,25.56-20.72,35.62a82.21,82.21,0,0,1-8.94,7.74c-1.13-1.8-4.17-5.35-11.54-12.75l5.54-5.54a1,1,0,0,0-1.41-1.41L64.6,62c-3.31-3.29-6.48-6.3-9-8.52a40,40,0,0,0-3.73-3.07A82.25,82.25,0,0,1,59.59,41.54Z"></path><path d="M39.69,88.34a1,1,0,0,0-1.41,0L16.54,110.08A1,1,0,1,0,18,111.49L39.69,89.76A1,1,0,0,0,39.69,88.34Z"></path><path d="M35.6,75.76a1,1,0,0,0-1.41,0L22,88a1,1,0,1,0,1.41,1.41L35.6,77.17A1,1,0,0,0,35.6,75.76Z"></path><path d="M39.34,106.36a1,1,0,0,0,.71-.29L52.27,93.84a1,1,0,0,0-1.41-1.41L38.63,104.65a1,1,0,0,0,.71,1.71Z"></path><path d="M31.2,87.07,19,99.29a1,1,0,1,0,1.41,1.41L32.61,88.49a1,1,0,0,0-1.41-1.41Z"></path><path d="M41,95.42a1,1,0,0,0-1.41,0L27.32,107.64A1,1,0,1,0,28.74,109L41,96.83A1,1,0,0,0,41,95.42Z"></path><path d="M85,52.91A9.91,9.91,0,1,0,75.09,43,9.93,9.93,0,0,0,85,52.91Zm0-17.83A7.91,7.91,0,1,1,77.09,43,7.92,7.92,0,0,1,85,35.08Z"></path><path d="M21.89,50.15A21.88,21.88,0,0,0,36.52,12l2.56-3.12,1.52,1.25a1,1,0,1,0,1.27-1.55l-4.64-3.8A1,1,0,0,0,36,6.32L37.53,7.6,35,10.72A21.89,21.89,0,1,0,21.89,50.15Zm0-41.78A19.89,19.89,0,1,1,2,28.25,19.91,19.91,0,0,1,21.89,8.36Z"></path><path d="M21.89,43.56a15.31,15.31,0,0,0,6.34-29.25,1,1,0,0,0-.83,1.82,13.32,13.32,0,1,1-13.09,1.19l-.46,1.51a1,1,0,1,0,1.91.59L17,15.5a1,1,0,0,0-.66-1.25L12.37,13A1,1,0,1,0,11.79,15l1.68.52a15.31,15.31,0,0,0,8.42,28.09Z"></path><path d="M20.89,31.55v.74a1,1,0,0,0,2,0v-.74a3.44,3.44,0,0,0,0-6.6v-11a1,1,0,0,0-2,0V25a3.44,3.44,0,0,0,0,6.6Zm1-4.76a1.46,1.46,0,1,1-1.46,1.46A1.47,1.47,0,0,1,21.89,26.79Z"></path><path d="M16,5.35H27.78a1,1,0,0,0,1-1V1a1,1,0,0,0-1-1H16a1,1,0,0,0-1,1V4.35A1,1,0,0,0,16,5.35ZM17,2h9.77V3.35H17Z"></path><path d="M117.92,91.35l0,0,0,0a18.74,18.74,0,0,0-26.39-.07.48.48,0,0,0-.26.27,18.75,18.75,0,0,0,.07,26.33l0,0,0,0a1,1,0,0,0,1.41,0l2.71-2.71A1,1,0,0,0,94,113.74l-2,2a16.63,16.63,0,0,1-4.19-10.12h2.79a1,1,0,0,0,0-2H87.88a16.69,16.69,0,0,1,4.18-10.11l2,2a1,1,0,0,0,.71.29h0A1,1,0,0,0,95.46,94l-2-2a16.69,16.69,0,0,1,10.12-4.2v2.79a1,1,0,0,0,2,0V87.85A16.69,16.69,0,0,1,115.73,92l-2,2a1,1,0,1,0,1.41,1.41l2-2a16.69,16.69,0,0,1,4.2,10.12h-2.79a1,1,0,0,0,0,2h2.79A16.86,16.86,0,0,1,121,108l-2.73-.74a1,1,0,0,0-.53,1.93l2.73.74a16.55,16.55,0,0,1-1,2.34l-2.44-1.45a1,1,0,1,0-1,1.72l2.43,1.44a16.89,16.89,0,0,1-1.35,1.71l-2-2a1,1,0,0,0-1.41,1.41l2.71,2.71a1.11,1.11,0,0,0,1.48,0,18.76,18.76,0,0,0,0-26.47Z"></path><path d="M112.95,107.58l-5.33-3.52s0,0,0,0a3.14,3.14,0,1,0-1.71,3.33l6.18,2a1,1,0,0,0,.86-1.79Zm-9.44-2.8a1.09,1.09,0,0,1,.88-1.27l.2,0a1.09,1.09,0,0,1,.19,2.16A1.09,1.09,0,0,1,103.51,104.78Z"></path><path d="M104.58,81.17A23.42,23.42,0,1,0,128,104.58,23.44,23.44,0,0,0,104.58,81.17Zm0,44.83A21.42,21.42,0,1,1,126,104.58,21.44,21.44,0,0,1,104.58,126Z"></path></svg></g></g></svg>