<svg height='100px' width='100px'  fill="#ffffff" xmlns="http://www.w3.org/2000/svg" xmlns:xlink="http://www.w3.org/1999/xlink" version="1.1" x="0px" y="0px" viewBox="0 0 1024 1024" style="enable-background:new 0 0 1024 1024;" xml:space="preserve"><g><g><g><path d="M279,560c-0.6-3.8-1.2-7.6-1.7-11.4c0.4,2.7,0.7,5.3,1.1,8c-3.9-29.6-3.9-59.5,0-89     c-0.4,2.7-0.7,5.3-1.1,8c3.9-29,11.6-57.3,22.9-84.3c-1,2.4-2,4.8-3,7.2c6.5-15.4,14.1-30.3,22.9-44.6c4.3-7.1,9-14,13.8-20.8     c1.2-1.6,2.3-3.2,3.5-4.8c0.5-0.7,1.2-2.2,2-2.6c0.1-0.1-5,6.4-2.3,3c2.7-3.4,5.4-6.8,8.3-10.2c10.6-12.5,22.1-24.2,34.4-35     c3-2.6,5.9-5.1,9-7.6c1.5-1.2,3.1-2.5,4.6-3.7c0.7-0.5,1.4-1.1,2.1-1.6c-7.7,6.1-3.7,2.9-1.9,1.5c6.6-5,13.5-9.7,20.5-14.2     c15.9-10.2,32.8-19,50.2-26.4c-2.4,1-4.8,2-7.2,3c27-11.3,55.3-19,84.3-22.9c-2.7,0.4-5.3,0.7-8,1.1c29.5-3.9,59.3-3.9,88.8,0     c-2.7-0.4-5.3-0.7-8-1.1c29,3.9,57.3,11.6,84.3,22.9c-2.4-1-4.8-2-7.2-3c15.4,6.5,30.3,14.1,44.6,22.9c7.1,4.3,14,9,20.8,13.8     c1.6,1.2,3.2,2.3,4.8,3.5c0.7,0.5,2.2,1.2,2.6,2c0.1,0.1-6.4-5-3-2.3c3.4,2.7,6.8,5.4,10.2,8.3c12.5,10.6,24.2,22.1,35,34.4     c2.6,3,5.1,5.9,7.6,9c1.2,1.5,2.5,3.1,3.7,4.6c0.5,0.7,1.1,1.4,1.6,2.1c-6.1-7.7-2.9-3.7-1.5-1.9c5,6.6,9.7,13.5,14.2,20.5     c10.2,15.9,19,32.8,26.4,50.2c-1-2.4-2-4.8-3-7.2c11.3,27,19,55.3,22.9,84.3c-0.4-2.7-0.7-5.3-1.1-8c3.9,29.5,3.9,59.3,0,88.8     c0.4-2.7,0.7-5.3,1.1-8c-3.9,29-11.6,57.3-22.9,84.3c1-2.4,2-4.8,3-7.2c-6.5,15.4-14.1,30.3-22.9,44.6c-4.3,7.1-9,14-13.8,20.8     c-1.2,1.6-2.3,3.2-3.5,4.8c-0.5,0.7-1.2,2.2-2,2.6c-0.1,0.1,5-6.4,2.3-3c-2.7,3.4-5.4,6.8-8.3,10.2c-10.6,12.5-22.1,24.2-34.4,35     c-3,2.6-5.9,5.1-9,7.6c-1.5,1.2-3.1,2.5-4.6,3.7c-0.7,0.5-1.4,1.1-2.1,1.6c7.7-6.1,3.7-2.9,1.9-1.5c-6.6,5-13.5,9.7-20.5,14.2     c-15.9,10.2-32.8,19-50.2,26.4c2.4-1,4.8-2,7.2-3c-27,11.3-55.3,19-84.3,22.9c2.7-0.4,5.3-0.7,8-1.1c-29.7,3.9-59.7,3.9-89.4-0.1     c2.7,0.4,5.3,0.7,8,1.1c-28.9-4-57.1-11.7-84.1-23c2.4,1,4.8,2,7.2,3c-16.8-7.1-33-15.6-48.4-25.3c-7.5-4.8-14.9-9.9-22-15.2     c-5.1-3.8,4.9,3.8-0.2-0.1c-1.9-1.5-3.7-2.9-5.5-4.4c-3.6-3-7.2-6.1-10.7-9.2c-11.7-10.5-31-12.4-42.4,0     c-10.5,11.4-12.5,31.3,0,42.4c27.8,24.8,59,46,93.1,61.2c37.3,16.6,75.9,26.9,116.5,30.9c67,6.7,135.2-6.8,195.4-36.5     c56.4-27.8,104.6-71.4,139.7-123.4c36.1-53.5,56.3-116.8,60.1-181c3.8-65.1-11-130.9-41.2-188.6     c-29.1-55.7-73.6-103.1-126.4-136.9c-54.2-34.7-117.9-53.8-182.1-56.1c-65-2.3-130.4,13.6-187.3,45     c-55,30.3-101.7,75.6-134.4,129.1c-33.7,55.2-51.8,119.7-52.5,184.4c-0.2,22.6,2,45.1,5.7,67.5c1.2,7,7.9,14.5,13.8,17.9     c6.4,3.8,15.9,5.4,23.1,3c7.3-2.3,14.3-6.8,17.9-13.8C280,575.6,280.4,568.4,279,560L279,560z"></path></g></g><g><g><path d="M547,324c0,24.2,0,48.5,0,72.7c0,34.5,0,69,0,103.6c0,12.6-0.5,23.3,9.6,33.7c6.2,6.4,12.7,12.7,19.1,19     c26.1,26,52.2,51.9,78.3,77.9c18.6,18.5,37,37.3,55.8,55.6c0.3,0.3,0.6,0.6,0.9,0.9c11.1,11.1,31.4,12,42.4,0     c11-12,11.9-30.6,0-42.4c-17.5-17.4-34.9-34.7-52.4-52.1c-27.8-27.7-55.6-55.4-83.4-83c-6.4-6.3-12.7-12.7-19.1-19     c2.9,7.1,5.9,14.1,8.8,21.2c0-21.2,0-42.4,0-63.6c0-33.6,0-67.3,0-100.9c0-7.8,0-15.6,0-23.5c0-15.7-13.8-30.7-30-30     C560.7,294.7,547,307.2,547,324L547,324z"></path></g></g><g><g><path d="M362.8,429c-15.2,15.2-30.4,30.4-45.6,45.6c-24.2,24.2-48.5,48.5-72.7,72.7c-5.6,5.6-11.1,11.1-16.7,16.7     c14.1,0,28.3,0,42.4,0c-15.2-15.2-30.4-30.4-45.6-45.6c-24.2-24.2-48.5-48.5-72.7-72.7c-5.6-5.6-11.1-11.1-16.7-16.7     c-11.1-11.1-31.5-11.9-42.4,0c-11,12-11.9,30.6,0,42.4c15.2,15.2,30.4,30.4,45.6,45.6c24.2,24.2,48.5,48.5,72.7,72.7     c5.6,5.6,11.1,11.1,16.7,16.7c11.5,11.5,30.9,11.5,42.4,0c15.2-15.2,30.4-30.4,45.6-45.6c24.2-24.2,48.5-48.5,72.7-72.7     c5.6-5.6,11.1-11.1,16.7-16.7c11.1-11.1,11.9-31.5,0-42.4C393.2,418,374.6,417.2,362.8,429L362.8,429z"></path></g></g></g></svg>