<?xml version="1.0" encoding="utf-8"?>
<!-- Generator: Adobe Illustrator 19.1.0, SVG Export Plug-In . SVG Version: 6.00 Build 0)  -->
<svg version="1.1" xmlns="http://www.w3.org/2000/svg" xmlns:xlink="http://www.w3.org/1999/xlink" x="0px" y="0px" width="24px"
	 height="24px" viewBox="0 0 24 24" enable-background="new 0 0 24 24" xml:space="preserve">
<g id="Header_x2F_BG" display="none">
	<rect x="-94" y="-358" display="inline" fill="#8cc63e" width="520" height="520"/>
</g>
<g id="Bounding_Boxes">
	<g id="ui_x5F_spec_x5F_header_copy_3">
	</g>
	<path fill="none" d="M0,0h24v24H0V0z"/>
</g>
<g id="Rounded" display="none">
	<g id="ui_x5F_spec_x5F_header_copy_5" display="inline">
	</g>
	<path  display="inline" d="M12,10.9c-0.61,0-1.1,0.49-1.1,1.1s0.49,1.1,1.1,1.1c0.61,0,1.1-0.49,1.1-1.1S12.61,10.9,12,10.9z M12,2
		C6.48,2,2,6.48,2,12s4.48,10,10,10s10-4.48,10-10S17.52,2,12,2z M14.19,14.19L6,18l3.81-8.19L18,6L14.19,14.19z"/>
</g>
<g id="Sharp" display="none">
	<g id="ui_x5F_spec_x5F_header_copy_4" display="inline">
	</g>
	<path display="inline" d="M12,10.9c-0.61,0-1.1,0.49-1.1,1.1s0.49,1.1,1.1,1.1c0.61,0,1.1-0.49,1.1-1.1S12.61,10.9,12,10.9z M12,2
		C6.48,2,2,6.48,2,12s4.48,10,10,10s10-4.48,10-10S17.52,2,12,2z M14.19,14.19L6,18l3.81-8.19L18,6L14.19,14.19z"/>
</g>
<g id="Outline">
	<g id="ui_x5F_spec_x5F_header">
	</g>
	<g>
		<path fill="#8cc63e" stroke="#8cc63e" d="M12,2C6.48,2,2,6.48,2,12c0,5.52,4.48,10,10,10s10-4.48,10-10C22,6.48,17.52,2,12,2z M12,20c-4.41,0-8-3.59-8-8
			c0-4.41,3.59-8,8-8s8,3.59,8,8C20,16.41,16.41,20,12,20z" stroke-width="0.5"/>
		<path stroke="#8cc63e" stroke-width="0.5" fill="#8cc63e" d="M6.5,17.5l7.51-3.49L17.5,6.5L9.99,9.99L6.5,17.5z M12,10.9c0.61,0,1.1,0.49,1.1,1.1s-0.49,1.1-1.1,1.1s-1.1-0.49-1.1-1.1
			S11.39,10.9,12,10.9z"/>
	</g>
</g>
<g id="Duotone" display="none">
	<g id="ui_x5F_spec_x5F_header_copy_2" display="inline">
	</g>
	<g display="inline">
		<path stroke="#8cc63e" opacity="0.3" d="M12,4c-4.41,0-8,3.59-8,8s3.59,8,8,8c4.41,0,8-3.59,8-8S16.41,4,12,4z M14.01,14.01L6.5,17.5l3.49-7.51
			L17.5,6.5L14.01,14.01z"/>
		<g>
			<path stroke="#8cc63e" d="M12,2C6.48,2,2,6.48,2,12s4.48,10,10,10c5.52,0,10-4.48,10-10S17.52,2,12,2z M12,20c-4.41,0-8-3.59-8-8s3.59-8,8-8
				c4.41,0,8,3.59,8,8S16.41,20,12,20z"/>
			<path stroke="#8cc63e" d="M6.5,17.5l7.51-3.49L17.5,6.5L9.99,9.99L6.5,17.5z M12,10.9c0.61,0,1.1,0.49,1.1,1.1s-0.49,1.1-1.1,1.1
				s-1.1-0.49-1.1-1.1S11.39,10.9,12,10.9z"/>
		</g>
	</g>
</g>
<g id="Fill" display="none">
	<g id="ui_x5F_spec_x5F_header_copy" display="inline">
	</g>
	<path stroke="#8cc63e" display="inline" d="M12,10.9c-0.61,0-1.1,0.49-1.1,1.1s0.49,1.1,1.1,1.1c0.61,0,1.1-0.49,1.1-1.1S12.61,10.9,12,10.9z M12,2
		C6.48,2,2,6.48,2,12s4.48,10,10,10s10-4.48,10-10S17.52,2,12,2z M14.19,14.19L6,18l3.81-8.19L18,6L14.19,14.19z"/>
</g>
<g id="nyt_x5F_exporter_x5F_info" display="none">
</g>
</svg>
