<?xml version="1.0" encoding="UTF-8"?><svg id="Layer_1" xmlns="http://www.w3.org/2000/svg" viewBox="0 0 1213.65 541.92"><defs><style>.cls-1{fill:#fff;}</style></defs><path class="cls-1" d="M250.24,208.27c-46.07,0-83.41,37.35-83.41,83.41s37.34,83.41,83.41,83.41,83.41-37.34,83.41-83.41-37.34-83.41-83.41-83.41Zm0,141.8c-32.2,0-58.39-26.19-58.39-58.39s26.19-58.39,58.39-58.39,58.39,26.19,58.39,58.39-26.19,58.39-58.39,58.39Z"/><path class="cls-1" d="M571.17,208.27c-22.88,0-43.6,9.21-58.67,24.13v-65.83h-25.02v125.12h.28c0,46.07,37.34,83.41,83.41,83.41s83.41-37.34,83.41-83.41-37.34-83.41-83.41-83.41Zm0,141.8c-32.2,0-58.39-26.19-58.39-58.39s26.19-58.39,58.39-58.39,58.39,26.19,58.39,58.39-26.19,58.39-58.39,58.39Z"/><path class="cls-1" d="M387.87,240.11v-31.85h-25.02v166.82h25.02v-70.43c0-39.09,31.81-70.9,70.9-70.9v-25.02c-28.06,0-53.34,12.11-70.9,31.38Z"/><rect class="cls-1" x="683.58" y="208.27" width="25.02" height="166.82"/><rect class="cls-1" x="1021.8" y="166.56" width="25.02" height="208.53"/><path class="cls-1" d="M909.19,208.27c-46.07,0-83.41,37.35-83.41,83.41s37.34,83.41,83.41,83.41c22.74,0,43.34-9.1,58.39-23.85v24.12h25.02v-83.68h0c0-46.07-37.34-83.41-83.41-83.41Zm0,141.8c-32.2,0-58.39-26.19-58.39-58.39s26.19-58.39,58.39-58.39,58.39,26.19,58.39,58.39-26.19,58.39-58.39,58.39Z"/><rect class="cls-1" x="682.77" y="166.56" width="26.65" height="26.65"/><path class="cls-1" d="M783.71,166.56h-25.02v41.97h-20.72v25.02h20.72v95.79h.13c0,25.22,20.52,45.74,45.74,45.74v-25.02c-11.43,0-20.72-9.3-20.72-20.72h-.13v-95.79h20.85v-25.02h-20.85v-41.97Z"/></svg>