<svg xmlns:dc="http://purl.org/dc/elements/1.1/" xmlns:cc="http://creativecommons.org/ns#" xmlns:rdf="http://www.w3.org/1999/02/22-rdf-syntax-ns#" xmlns:svg="http://www.w3.org/2000/svg" xmlns="http://www.w3.org/2000/svg" xmlns:sodipodi="http://sodipodi.sourceforge.net/DTD/sodipodi-0.dtd" xmlns:inkscape="http://www.inkscape.org/namespaces/inkscape" viewBox="0 0 8.4666667 8.4666669" version="1.1" x="0px" y="0px"><svg:g><svg:path style="color:#000000;font-style:normal;font-variant:normal;font-weight:normal;font-stretch:normal;font-size:medium;line-height:normal;font-family:sans-serif;font-variant-ligatures:normal;font-variant-position:normal;font-variant-caps:normal;font-variant-numeric:normal;font-variant-alternates:normal;font-feature-settings:normal;text-indent:0;text-align:start;text-decoration:none;text-decoration-line:none;text-decoration-style:solid;text-decoration-color:#000000;letter-spacing:normal;word-spacing:normal;text-transform:none;writing-mode:lr-tb;direction:ltr;text-orientation:mixed;dominant-baseline:auto;baseline-shift:baseline;text-anchor:start;white-space:normal;shape-padding:0;clip-rule:nonzero;display:inline;overflow:visible;visibility:visible;opacity:1;isolation:auto;mix-blend-mode:normal;color-interpolation:sRGB;color-interpolation-filters:linearRGB;solid-color:#000000;solid-opacity:1;vector-effect:none;fill:#000000;fill-opacity:1;fill-rule:nonzero;stroke:none;stroke-width:0.52916676;stroke-linecap:round;stroke-linejoin:round;stroke-miterlimit:4;stroke-dasharray:none;stroke-dashoffset:0;stroke-opacity:1;color-rendering:auto;image-rendering:auto;shape-rendering:auto;text-rendering:auto;enable-background:accumulate" d="M 3.5550151,-1.5666667e-5 A 0.26460987,0.26460987 0 0 0 3.2914661,0.26353433 V 1.2030113 c -0.452342,0.142284 -0.861923,0.378563 -1.211297,0.699182 l -0.812353,-0.470772 a 0.26460987,0.26460987 0 0 0 -0.36121696,0.09767 l -0.677995,1.176155 a 0.26460987,0.26460987 0 0 0 0.09612,0.361219 l 0.77721396,0.449068 c -0.05417,0.236158 -0.10519296,0.473992 -0.10542296,0.716752 a 0.26460987,0.26460987 0 0 0 0,0.0021 c 6.93e-4,0.243197 0.05268,0.48029 0.10748696,0.716752 l -0.77927996,0.449068 a 0.26460987,0.26460987 0 0 0 -0.09612,0.361735 l 0.677995,1.175639 a 0.26460987,0.26460987 0 0 0 0.36121696,0.09767 l 0.812353,-0.468706 c 0.349456,0.319833 0.759251,0.555383 1.211297,0.697115 v 0.937408 a 0.26460987,0.26460987 0 0 0 0.263551,0.265616 h 1.35754 a 0.26460987,0.26460987 0 0 0 0.263551,-0.265616 v -0.937411 c 0.452342,-0.142284 0.861404,-0.378563 1.210778,-0.699182 l 0.812353,0.470772 a 0.26460987,0.26460987 0 0 0 0.361736,-0.09767 l 0.677479,-1.175638 a 0.26460987,0.26460987 0 0 0 -0.09767,-0.361735 l -0.777214,-0.449068 c 0.05443,-0.236709 0.107257,-0.4734 0.107487,-0.716753 a 0.26460987,0.26460987 0 0 0 0,-0.0021 c -6.9e-4,-0.242704 -0.05289,-0.480749 -0.107487,-0.716752 l 0.777214,-0.449068 a 0.26460987,0.26460987 0 0 0 0.09767,-0.361218 l -0.677478,-1.176153 a 0.26460987,0.26460987 0 0 0 -0.361736,-0.09767 l -0.812353,0.468705 c -0.348928,-0.319415 -0.7595,-0.555258 -1.210779,-0.697114 V 0.26353433 A 0.26460987,0.26460987 0 0 0 4.9125551,-1.5666667e-5 Z M 3.8206331,0.52915033 h 0.826306 V 1.3420213 a 0.26460987,0.26460987 0 0 0 0.204637,0.257348 c 0.518628,0.121421 0.988928,0.393412 1.353923,0.781348 a 0.26460987,0.26460987 0 0 0 0.326078,0.04909 l 0.703318,-0.406177 0.413928,0.716752 -0.705385,0.406177 a 0.26460987,0.26460987 0 0 0 -0.118856,0.306441 c 0.07728,0.253485 0.116552,0.516345 0.117306,0.781348 -4.4e-4,0.264436 -0.04065,0.52826 -0.117306,0.781348 a 0.26460987,0.26460987 0 0 0 0.120925,0.306441 l 0.703316,0.404626 -0.413928,0.716753 -0.705384,-0.406177 a 0.26460987,0.26460987 0 0 0 -0.326078,0.04651 c -0.364554,0.387869 -0.833681,0.659538 -1.351857,0.781347 a 0.26460987,0.26460987 0 0 0 -0.204637,0.257865 v 0.814421 h -0.826306 v -0.812354 a 0.26460987,0.26460987 0 0 0 -0.205156,-0.257865 c -0.518625,-0.121421 -0.990478,-0.393412 -1.355473,-0.781348 a 0.26460987,0.26460987 0 0 0 -0.324012,-0.04858 L 1.2326771,6.4435123 0.81874914,5.7267603 1.5215491,5.3200663 a 0.26460987,0.26460987 0 0 0 0.121438,-0.306441 c -0.07728,-0.253484 -0.116549,-0.516345 -0.117305,-0.781347 4.42e-4,-0.264437 0.04065,-0.52826 0.117305,-0.781348 a 0.26460987,0.26460987 0 0 0 -0.121438,-0.306441 l -0.70279996,-0.40411 0.41392796,-0.716752 0.704866,0.406177 a 0.26460987,0.26460987 0 0 0 0.324527,-0.04703 c 0.364554,-0.387871 0.835234,-0.659539 1.353407,-0.781348 a 0.26460987,0.26460987 0 0 0 0.205156,-0.257866 z m 1.326017,2.77244097 a 0.26460981,0.26460981 0 0 0 -0.02739,10e-4 0.26460981,0.26460981 0 0 0 -0.158128,0.453202 l 0.476457,0.478524 -0.476457,0.476457 a 0.26460981,0.26460981 0 1 0 0.375169,0.373104 l 0.664043,-0.664043 a 0.26460981,0.26460981 0 0 0 0,-0.373103 l -0.664043,-0.664039 a 0.26460981,0.26460981 0 0 0 -0.189651,-0.08113 z m -1.833996,10e-4 a 0.26460981,0.26460981 0 0 0 -0.181385,0.0801 l -0.664041,0.664042 a 0.26460981,0.26460981 0 0 0 0,0.373104 l 0.664041,0.664042 a 0.26460981,0.26460981 0 1 0 0.373104,-0.3731 l -0.476975,-0.476457 0.476975,-0.478523 a 0.26460981,0.26460981 0 0 0 -0.191719,-0.453202 z m 1.104841,0.02325 a 0.26460981,0.26460981 0 0 0 -0.0248,5.17e-4 0.26460981,0.26460981 0 0 0 -0.241845,0.198954 l -0.344169,1.281063 a 0.26460981,0.26460981 0 1 0 0.510045,0.139009 l 0.343649,-1.283126 a 0.26460981,0.26460981 0 0 0 -0.24288,-0.336413 z"></svg:path></svg:g></svg>