<?xml version="1.0" encoding="UTF-8"?>
<svg width="38" height="38" viewBox="0 0 48 48" fill="none" xmlns="http://www.w3.org/2000/svg">
  <path d="M43 26V32C43 33.1046 42.1046 34 41 34H7C5.89543 34 5 33.1046 5 32V12C5 10.8954 5.89543 10 7 10H16"
        stroke="#4f46e5" stroke-width="2" stroke-linecap="round"/>
  <path d="M4 40L44 40" stroke="#4f46e5" stroke-width="2" stroke-linecap="round" stroke-linejoin="round"/>
  <circle cx="30" cy="17" r="9" fill="none" stroke="#4f46e5" stroke-width="2"/>
  <path d="M19 18V16" stroke="#4f46e5" stroke-width="2" stroke-linecap="round" stroke-linejoin="round"/>
  <path d="M41 18V16" stroke="#4f46e5" stroke-width="2" stroke-linecap="round" stroke-linejoin="round"/>
  <path d="M30 8C29.8333 7 28.8 4.8 26 4" stroke="#4f46e5" stroke-width="2" stroke-linecap="round"
        stroke-linejoin="round"/>
  <path d="M30 8C30.0833 7 30.6 4.8 32 4" stroke="#4f46e5" stroke-width="2" stroke-linecap="round"
        stroke-linejoin="round"/>
  <circle cx="33" cy="16" r="2" fill="#4f46e5"/>
  <circle cx="27" cy="16" r="2" fill="#4f46e5"/>
</svg>
