<?xml version="1.0" encoding="UTF-8"?>
<svg width="38" height="38" viewBox="0 0 48 48" fill="none" xmlns="http://www.w3.org/2000/svg">
  <path d="M40 30V15L27.5 7.96875M20.5 7.96875L8 15V30M11 34.6875L24 42L32 37.5L37 34.6875" stroke="#4f46e5"
        stroke-width="2" stroke-linecap="round" stroke-linejoin="round"/>
  <path d="M21 18.75L18 20.5V24V27.5L21 29.25L24 31L27 29.25L30 27.5V24V20.5L27 18.75L24 17L21 18.75Z" fill="none"
        stroke="#4f46e5" stroke-width="2" stroke-linecap="round" stroke-linejoin="round"/>
  <path d="M24 17V10" stroke="#4f46e5" stroke-width="2" stroke-linecap="round" stroke-linejoin="round"/>
  <path d="M30 27L37 31" stroke="#4f46e5" stroke-width="2" stroke-linecap="round" stroke-linejoin="round"/>
  <path d="M18 27L11 31" stroke="#4f46e5" stroke-width="2" stroke-linecap="round" stroke-linejoin="round"/>
  <circle cx="24" cy="7" r="3" fill="none" stroke="#4f46e5" stroke-width="2" stroke-linecap="round"
          stroke-linejoin="round"/>
  <circle cx="8" cy="33" r="3" fill="none" stroke="#4f46e5" stroke-width="2" stroke-linecap="round"
          stroke-linejoin="round"/>
  <circle cx="40" cy="33" r="3" fill="none" stroke="#4f46e5" stroke-width="2" stroke-linecap="round"
          stroke-linejoin="round"/>
</svg>
