<?xml version="1.0" encoding="UTF-8"?>
<svg width="38" height="38" viewBox="0 0 48 48" fill="none" xmlns="http://www.w3.org/2000/svg">
  <path d="M7 37C7 29.2967 7 11 7 11C7 7.68629 9.68629 5 13 5H35V31C35 31 18.2326 31 13 31C9.7 31 7 33.6842 7 37Z"
        fill="none" stroke="#4f46e5" stroke-width="2" stroke-linejoin="round"/>
  <path
    d="M35 31C35 31 14.1537 31 13 31C9.68629 31 7 33.6863 7 37C7 40.3137 9.68629 43 13 43C15.2091 43 25.8758 43 41 43V7"
    stroke="#4f46e5" stroke-width="2" stroke-linecap="round" stroke-linejoin="round"/>
  <path d="M14 37H34" stroke="#4f46e5" stroke-width="2" stroke-linecap="round" stroke-linejoin="round"/>
</svg>
