<?xml version="1.0" encoding="UTF-8"?>
<svg width="38" height="38" viewBox="0 0 48 48" fill="none" xmlns="http://www.w3.org/2000/svg">
  <path d="M4 11L11 4L18 11H4Z" stroke="#4f46e5" stroke-width="2" stroke-linecap="round" stroke-linejoin="round"/>
  <path d="M30 11L37 4L44 11H30Z" stroke="#4f46e5" stroke-width="2" stroke-linecap="round" stroke-linejoin="round"/>
  <path
    d="M44 44V26H40V17H34V26H28V21L24 17L20 21V26H14V17H8V26H4V44H18V40C18 36.6863 20.6863 34 24 34C27.3137 34 30 36.6863 30 40V44H44Z"
    fill="none" stroke="#4f46e5" stroke-width="2" stroke-linecap="round" stroke-linejoin="round"/>
  <rect x="7" y="11" width="8" height="6" stroke="#4f46e5" stroke-width="2" stroke-linecap="round"
        stroke-linejoin="round"/>
  <rect x="33" y="11" width="8" height="6" stroke="#4f46e5" stroke-width="2" stroke-linecap="round"
        stroke-linejoin="round"/>
</svg>
