<?xml version="1.0" encoding="UTF-8"?>
<svg width="38" height="38" viewBox="0 0 48 48" fill="none" xmlns="http://www.w3.org/2000/svg">
  <path d="M37 25V37M11 37V44H37V37M11 37H4V18L10.125 13L17 18L24 10L31 18L37.875 13L44 18V37H37M11 37V25"
        stroke="#4f46e5" stroke-width="2" stroke-linecap="round" stroke-linejoin="round"/>
  <path d="M17 18L24 10L31 18L42 10L39.5 4H9L6 10L17 18Z" fill="none"/>
  <path d="M19 10H24M29 10H24M24 10L17 18L6 10L9 4H39.5L42 10L31 18L24 10Z" stroke="#4f46e5" stroke-width="2"
        stroke-linecap="round" stroke-linejoin="round"/>
</svg>
