<?xml version="1.0" encoding="UTF-8"?>
<svg width="38" height="38" viewBox="0 0 48 48" fill="none" xmlns="http://www.w3.org/2000/svg">
  <path d="M30 27L24 44" stroke="#4f46e5" stroke-width="2" stroke-linecap="round" stroke-linejoin="round"/>
  <path d="M18 27L24 44" stroke="#4f46e5" stroke-width="2" stroke-linecap="round" stroke-linejoin="round"/>
  <path d="M18 27L30 27" stroke="#4f46e5" stroke-width="2" stroke-linecap="round" stroke-linejoin="round"/>
  <path d="M41 34L30 27" stroke="#4f46e5" stroke-width="2" stroke-linecap="round" stroke-linejoin="round"/>
  <path d="M41 14L30 27" stroke="#4f46e5" stroke-width="2" stroke-linecap="round" stroke-linejoin="round"/>
  <path d="M41 14L24 17" stroke="#4f46e5" stroke-width="2" stroke-linecap="round" stroke-linejoin="round"/>
  <path d="M30 27L24 17" stroke="#4f46e5" stroke-width="2" stroke-linecap="round" stroke-linejoin="round"/>
  <path d="M24 4V17" stroke="#4f46e5" stroke-width="2" stroke-linecap="round" stroke-linejoin="round"/>
  <path d="M7 14L24 17" stroke="#4f46e5" stroke-width="2" stroke-linecap="round" stroke-linejoin="round"/>
  <path d="M18 27L24 17" stroke="#4f46e5" stroke-width="2" stroke-linecap="round" stroke-linejoin="round"/>
  <path d="M18 27L7 14" stroke="#4f46e5" stroke-width="2" stroke-linecap="round" stroke-linejoin="round"/>
  <path d="M18 27L7 34" stroke="#4f46e5" stroke-width="2" stroke-linecap="round" stroke-linejoin="round"/>
  <path d="M41.3207 14L24.0002 4L6.67969 14V34L24.0002 44L41.3207 34V14Z" stroke="#4f46e5" stroke-width="2"
        stroke-linecap="round" stroke-linejoin="round"/>
</svg>
