<?xml version="1.0" encoding="UTF-8"?>
<svg width="38" height="38" viewBox="0 0 48 48" fill="none" xmlns="http://www.w3.org/2000/svg">
  <path
    d="M36 27C36 34.2165 30.6274 44 24 44C17.3726 44 12 34.2165 12 27C12 19.7835 13.5 16 24 16C34.5 16 36 19.7835 36 27Z"
    fill="none" stroke="#4f46e5" stroke-width="2"/>
  <ellipse rx="5" ry="3.5" transform="matrix(0.707107 -0.707107 -0.707107 -0.707107 38.9996 17.5003)" fill="none"
           stroke="#4f46e5" stroke-width="2"/>
  <ellipse cx="8.99963" cy="17.4997" rx="5" ry="3.5" transform="rotate(45 8.99963 17.4997)" fill="none" stroke="#4f46e5"
           stroke-width="2"/>
  <path d="M12 4C12 10.6274 17.3726 16 24 16C30.6274 16 36 10.6274 36 4" stroke="#4f46e5" stroke-width="2"
        stroke-linecap="round"/>
  <path d="M18 7C18 11.9706 20.6863 16 24 16C27.3137 16 30 11.9706 30 7" stroke="#4f46e5" stroke-width="2"
        stroke-linecap="round"/>
  <circle cx="19.9995" cy="26" r="2" fill="#4f46e5"/>
  <circle cx="23.9995" cy="34" r="2" fill="#4f46e5"/>
  <circle cx="27.9995" cy="26" r="2" fill="#4f46e5"/>
</svg>
