<?xml version="1.0" encoding="UTF-8"?>
<svg width="38" height="38" viewBox="0 0 48 48" fill="none" xmlns="http://www.w3.org/2000/svg">
  <path d="M25 40H7C5.34315 40 4 38.6569 4 37V11C4 9.34315 5.34315 8 7 8H41C42.6569 8 44 9.34315 44 11V23.0588"
        stroke="#4f46e5" stroke-width="2" stroke-linecap="round" stroke-linejoin="round"/>
  <circle cx="38" cy="35" r="6" stroke="#4f46e5" stroke-width="2"/>
  <path d="M34 31L42 39" stroke="#4f46e5" stroke-width="2" stroke-linecap="round" stroke-linejoin="round"/>
  <path d="M4 11C4 9.34315 5.34315 8 7 8H41C42.6569 8 44 9.34315 44 11V20H4V11Z" fill="none" stroke="#4f46e5"
        stroke-width="2"/>
  <circle r="2" transform="matrix(-1.31134e-07 -1 -1 1.31134e-07 10 14)" fill="#4f46e5"/>
  <circle r="2" transform="matrix(-1.31134e-07 -1 -1 1.31134e-07 16 14)" fill="#4f46e5"/>
</svg>
