<?xml version="1.0" encoding="UTF-8"?>
<svg width="38" height="38" viewBox="0 0 48 48" fill="none" xmlns="http://www.w3.org/2000/svg">
  <rect x="6" y="6" width="36" height="36" rx="3" fill="none" stroke="#4f46e5" stroke-width="2" stroke-linecap="round"
        stroke-linejoin="round"/>
  <path
    d="M30 24C32.2091 24 34 22.2091 34 20C34 17.7909 32.2091 16 30 16C27.7909 16 26 17.7909 26 20C26 22.2091 27.7909 24 30 24Z"
    stroke="#4f46e5" stroke-width="2"/>
  <path
    d="M30 33C32.2091 33 34 31.2091 34 29C34 26.7909 32.2091 25 30 25C27.7909 25 26 26.7909 26 29C26 31.2091 27.7909 33 30 33Z"
    stroke="#4f46e5" stroke-width="2"/>
  <path d="M21 16H14V32" stroke="#4f46e5" stroke-width="2" stroke-linecap="round" stroke-linejoin="round"/>
  <path d="M14 24H21" stroke="#4f46e5" stroke-width="2" stroke-linecap="round" stroke-linejoin="round"/>
</svg>
