<?xml version="1.0" encoding="UTF-8"?>
<svg width="38" height="38" viewBox="0 0 48 48" fill="none" xmlns="http://www.w3.org/2000/svg">
  <path d="M19 30L19 33C19 36.866 15.866 40 12 40V40C8.13401 40 5 36.866 5 33L5 19" stroke="#4f46e5" stroke-width="2"
        stroke-linecap="round" stroke-linejoin="round"/>
  <path d="M29 30L29 33C29 36.866 32.134 40 36 40V40C39.866 40 43 36.866 43 33L43 19" stroke="#4f46e5" stroke-width="2"
        stroke-linecap="round" stroke-linejoin="round"/>
  <rect x="5" y="8" width="38" height="22" rx="11" fill="none" stroke="#4f46e5" stroke-width="2"/>
  <path d="M21 19H13" stroke="#4f46e5" stroke-width="2" stroke-linecap="round" stroke-linejoin="round"/>
  <path d="M17 15V23" stroke="#4f46e5" stroke-width="2" stroke-linecap="round" stroke-linejoin="round"/>
  <rect x="32" y="15" width="4" height="4" rx="2" fill="#4f46e5"/>
  <rect x="28" y="20" width="4" height="4" rx="2" fill="#4f46e5"/>
</svg>
