<?xml version="1.0" encoding="UTF-8"?>
<svg width="38" height="38" viewBox="0 0 48 48" fill="none" xmlns="http://www.w3.org/2000/svg">
  <rect x="7" y="25" width="34" height="18" rx="6" stroke="#4f46e5" stroke-width="2" stroke-linejoin="round"/>
  <circle cx="17" cy="34" r="3" fill="none" stroke="#4f46e5" stroke-width="2"/>
  <circle cx="31" cy="34" r="3" fill="none" stroke="#4f46e5" stroke-width="2"/>
  <path d="M11 19C11 15.6863 13.6863 13 17 13H31C34.3137 13 37 15.6863 37 19V25H11V19Z" fill="none" stroke="#4f46e5"
        stroke-width="2" stroke-linejoin="round"/>
  <circle cx="20" cy="19" r="2" fill="#4f46e5"/>
  <circle cx="28" cy="19" r="2" fill="#4f46e5"/>
  <path d="M18 5C19.6569 5 21 6.34315 21 8L21 13L15 13L15 8C15 6.34315 16.3431 5 18 5Z" fill="none" stroke="#4f46e5"
        stroke-width="2" stroke-linejoin="round"/>
  <path d="M30 5C31.6569 5 33 6.34315 33 8L33 13L27 13L27 8C27 6.34315 28.3431 5 30 5Z" fill="none" stroke="#4f46e5"
        stroke-width="2" stroke-linejoin="round"/>
</svg>
