<?xml version="1.0" encoding="UTF-8"?>
<svg width="38" height="38" viewBox="0 0 48 48" fill="none" xmlns="http://www.w3.org/2000/svg">
  <circle cx="24" cy="24" r="20" fill="none" stroke="#4f46e5" stroke-width="2"/>
  <path
    d="M20 24C20 17.6364 22.6275 15.3535 24 15C25.22 15.1768 28 17.2121 28 24C28 30.7879 25.22 33 24 33C22.6275 32.8232 20 30.3636 20 24Z"
    fill="none" stroke="#4f46e5" stroke-width="2"/>
  <path
    d="M19.9995 22.9999C18.4464 21.4623 13.6179 21.8398 12.0002 21.9999C11.5149 23.7617 12.3521 27.4922 14.2934 29.4142C16.72 31.8166 18.6609 32.9999 23.9995 32.9999"
    stroke="#4f46e5" stroke-width="2"/>
  <path
    d="M28 22.9999C29.4358 21.4668 33.5044 21.8402 35 21.9999C35.2991 23.5969 35.1402 27.1878 32.6276 29.8707C30.115 32.5536 25.5 32.9999 24 32.9999"
    stroke="#4f46e5" stroke-width="2"/>
</svg>
