<?xml version="1.0" encoding="UTF-8"?><svg width="38" height="38" viewBox="0 0 48 48" fill="none" xmlns="http://www.w3.org/2000/svg"><path d="M6 23C6 21.5 7.99903 17.5 13.0614 16.4286C18.1786 15.3455 22.8477 10.8571 24 9" stroke="#4f46e5" stroke-width="2" stroke-linecap="round" stroke-linejoin="round"/><path d="M41.9999 23C42.0118 21.5 40.0009 17.5 34.9385 16.4286C29.8213 15.3455 25.1522 10.8571 24 9" stroke="#4f46e5" stroke-width="2" stroke-linecap="round" stroke-linejoin="round"/><circle r="4" transform="matrix(-4.37114e-08 1 1 4.37114e-08 24 9)" fill="#4f46e5"/><path d="M24 9L24 23" stroke="#4f46e5" stroke-width="2" stroke-linecap="round" stroke-linejoin="round"/><path d="M5 33H11" stroke="#4f46e5" stroke-width="2" stroke-linecap="round" stroke-linejoin="round"/><path d="M5 41H11" stroke="#4f46e5" stroke-width="2" stroke-linecap="round" stroke-linejoin="round"/><path d="M37 33H43" stroke="#4f46e5" stroke-width="2" stroke-linecap="round" stroke-linejoin="round"/><path d="M37 41H43" stroke="#4f46e5" stroke-width="2" stroke-linecap="round" stroke-linejoin="round"/><path d="M21 33H27" stroke="#4f46e5" stroke-width="2" stroke-linecap="round" stroke-linejoin="round"/><path d="M21 41H27" stroke="#4f46e5" stroke-width="2" stroke-linecap="round" stroke-linejoin="round"/></svg>