<?xml version="1.0" encoding="UTF-8"?><svg width="38" height="38" viewBox="0 0 48 48" fill="none" xmlns="http://www.w3.org/2000/svg"><path d="M44 24V40.8182C44 42.0232 43.1046 43 42 43H6C4.89543 43 4 42.0232 4 40.8182V24L24 37L44 24Z" stroke="#4f46e5" stroke-width="2" stroke-linejoin="round"/><path d="M4 23.784L14 16.8921M44 23.784L34 16.8921" stroke="#4f46e5" stroke-width="2" stroke-linecap="round" stroke-linejoin="round"/><path d="M34 5H14V29.4146C14 30.0916 14.3424 30.7226 14.91 31.0915L22.91 36.2915C23.5728 36.7223 24.4272 36.7223 25.09 36.2915L33.09 31.0915C33.6576 30.7226 34 30.0916 34 29.4146V5Z" fill="none" stroke="#4f46e5" stroke-width="2" stroke-linejoin="round"/><path d="M20 13H24" stroke="#4f46e5" stroke-width="2" stroke-linecap="round" stroke-linejoin="round"/><path d="M20 19H28" stroke="#4f46e5" stroke-width="2" stroke-linecap="round" stroke-linejoin="round"/></svg>