<?xml version="1.0" encoding="UTF-8"?><svg width="38" height="38" viewBox="0 0 48 48" fill="none" xmlns="http://www.w3.org/2000/svg"><path d="M44 24C44 35.0457 35.0457 44 24 44C12.9543 44 4 35.0457 4 24C4 12.9543 12.9543 4 24 4" stroke="#4f46e5" stroke-width="2" stroke-linecap="round" stroke-linejoin="round"/><path d="M37.6098 9.47214L37.8652 10.2582H38.6917L38.023 10.744L38.2784 11.5301L37.6098 11.0443L36.9411 11.5301L37.1965 10.744L36.5278 10.2582H37.3543L37.6098 9.47214Z" stroke="#4f46e5" stroke-width="2"/><path d="M16 31C16 31 18 35 24 35C30 35 32 31 32 31" stroke="#4f46e5" stroke-width="2" stroke-linecap="round" stroke-linejoin="round"/><circle cx="17" cy="22" r="3" fill="none" stroke="#4f46e5" stroke-width="2"/><circle cx="31" cy="22" r="3" fill="none" stroke="#4f46e5" stroke-width="2"/></svg>