<?xml version="1.0" encoding="UTF-8"?><svg width="38" height="38" viewBox="0 0 48 48" fill="none" xmlns="http://www.w3.org/2000/svg"><path d="M5 8C5 6.89543 5.89543 6 7 6H41C42.1046 6 43 6.89543 43 8V32C43 33.1046 42.1046 34 41 34H7C5.89543 34 5 33.1046 5 32V8Z" stroke="#4f46e5" stroke-width="2" stroke-linecap="round" stroke-linejoin="round"/><path d="M5 26C5 24.8954 5.89543 24 7 24H41C42.1046 24 43 24.8954 43 26V32C43 33.1046 42.1046 34 41 34H7C5.89543 34 5 33.1046 5 32V26Z" fill="none" stroke="#4f46e5" stroke-width="2" stroke-linecap="round" stroke-linejoin="round"/><path d="M22 12L18 17" stroke="#4f46e5" stroke-width="2" stroke-linecap="round" stroke-linejoin="round"/><path d="M28 14L25 18" stroke="#4f46e5" stroke-width="2" stroke-linecap="round" stroke-linejoin="round"/><circle cx="24" cy="29" r="2" fill="#4f46e5"/><path d="M17 34L14 42H34L31 34" stroke="#4f46e5" stroke-width="2" stroke-linecap="round" stroke-linejoin="round"/></svg>