<?xml version="1.0" encoding="UTF-8"?><svg width="38" height="38" viewBox="0 0 48 48" fill="none" xmlns="http://www.w3.org/2000/svg"><path d="M13 40L9 40C7.89543 40 7 39.1046 7 38L7 6C7 4.89543 7.89543 4 9 4L29 4C30.1046 4 31 4.89543 31 6L31 10" stroke="#4f46e5" stroke-width="2" stroke-linecap="round"/><rect x="13" y="44" width="34" height="28" rx="2" transform="rotate(-90 13 44)" fill="none" stroke="#4f46e5" stroke-width="2"/><circle cx="27" cy="27" r="8" stroke="#4f46e5" stroke-width="2"/><path d="M34.9998 28C34.9998 28 32 27.5 29.9995 29C27.999 30.5 27.401 34.1025 27.9999 35" stroke="#4f46e5" stroke-width="2" stroke-linecap="round"/><path d="M24 27C24 29 22 31 20 31" stroke="#4f46e5" stroke-width="2" stroke-linecap="round"/><path d="M31 20C31 20 31 24 28 24" stroke="#4f46e5" stroke-width="2" stroke-linecap="round"/></svg>