<?xml version="1.0" encoding="UTF-8"?><svg width="38" height="38" viewBox="0 0 48 48" fill="none" xmlns="http://www.w3.org/2000/svg"><path d="M24 4L24 21" stroke="#4f46e5" stroke-width="2" stroke-linecap="round" stroke-linejoin="round"/><path d="M24 4C12.9543 4 4 12.9543 4 24C4 35.0457 12.9543 44 24 44C35.0457 44 44 35.0457 44 24C44 19.3743 42.4296 15.1154 39.7929 11.7273" stroke="#4f46e5" stroke-width="2" stroke-linecap="round"/><path d="M24 13C17.9249 13 13 17.9249 13 24C13 30.0751 17.9249 35 24 35C30.0751 35 35 30.0751 35 24C35 21.4559 34.1363 19.1135 32.6861 17.25" stroke="#4f46e5" stroke-width="2" stroke-linecap="round"/><circle cx="24" cy="24" r="3" stroke="#4f46e5" stroke-width="2"/></svg>