<?xml version="1.0" encoding="UTF-8"?><svg width="38" height="38" viewBox="0 0 48 48" fill="none" xmlns="http://www.w3.org/2000/svg"><path d="M20 16L24 20L28 16" stroke="#4f46e5" stroke-width="2" stroke-linecap="round" stroke-linejoin="round"/><path d="M32 29L36 33L40 29" stroke="#4f46e5" stroke-width="2" stroke-linecap="round" stroke-linejoin="round"/><path d="M8 29L12 33L16 29" stroke="#4f46e5" stroke-width="2" stroke-linecap="round" stroke-linejoin="round"/><path d="M24 20V4" stroke="#4f46e5" stroke-width="2" stroke-linecap="round" stroke-linejoin="round"/><path d="M36 32.8669V19.637C36 17.4278 37.7909 15.637 40 15.637H44" stroke="#4f46e5" stroke-width="2" stroke-linecap="round" stroke-linejoin="round"/><path d="M12 32.8669V19.637C12 17.4278 10.2091 15.637 8 15.637H4" stroke="#4f46e5" stroke-width="2" stroke-linecap="round" stroke-linejoin="round"/><path d="M4 36V40C4 42.2091 5.79086 44 8 44H40C42.2091 44 44 42.2091 44 40V36" stroke="#4f46e5" stroke-width="2" stroke-linecap="round" stroke-linejoin="round"/></svg>