<?xml version="1.0" encoding="UTF-8"?><svg width="38" height="38" viewBox="0 0 48 48" fill="none" xmlns="http://www.w3.org/2000/svg"><rect x="9" y="18" width="30" height="24" rx="2" fill="none" stroke="#4f46e5" stroke-width="2"/><circle cx="17" cy="26" r="2" fill="#4f46e5"/><circle cx="31" cy="26" r="2" fill="#4f46e5"/><path d="M20 32C18.8954 32 18 32.8954 18 34C18 35.1046 18.8954 36 20 36V32ZM28 36C29.1046 36 30 35.1046 30 34C30 32.8954 29.1046 32 28 32V36ZM20 36H28V32H20V36Z" fill="#4f46e5"/><path d="M24 10V18" stroke="#4f46e5" stroke-width="2" stroke-linecap="round" stroke-linejoin="round"/><path d="M4 26V34" stroke="#4f46e5" stroke-width="2" stroke-linecap="round" stroke-linejoin="round"/><path d="M44 26V34" stroke="#4f46e5" stroke-width="2" stroke-linecap="round" stroke-linejoin="round"/><circle cx="24" cy="8" r="2" stroke="#4f46e5" stroke-width="2"/></svg>