<?xml version="1.0" encoding="UTF-8"?><svg width="38" height="38" viewBox="0 0 48 48" fill="none" xmlns="http://www.w3.org/2000/svg"><path d="M4 33C4 31.8954 4.89543 31 6 31H12V24L24 16L36 24V31H42C43.1046 31 44 31.8954 44 33V42C44 43.1046 43.1046 44 42 44H4V33Z" fill="none" stroke="#4f46e5" stroke-width="2" stroke-linejoin="round"/><path d="M24 6V16" stroke="#4f46e5" stroke-width="2" stroke-linecap="round"/><path d="M36 11.9998V5.99984C36 5.99984 34.5 8.99984 30 5.99984C25.5 2.99984 24 5.99984 24 5.99984V11.9998C24 11.9998 25.5 8.99984 30 11.9998C34.5 14.9998 36 11.9998 36 11.9998Z" stroke="#4f46e5" stroke-width="2" stroke-linecap="round" stroke-linejoin="round"/><path d="M28 44V31H20L20 44" stroke="#4f46e5" stroke-width="2" stroke-linecap="round" stroke-linejoin="round"/><path d="M18 44L30 44" stroke="#4f46e5" stroke-width="2" stroke-linecap="round" stroke-linejoin="round"/></svg>