<?xml version="1.0" encoding="UTF-8"?><svg width="38" height="38" viewBox="0 0 48 48" fill="none" xmlns="http://www.w3.org/2000/svg"><path d="M38 38V6C38 4.89543 37.1046 4 36 4H12C10.8954 4 10 4.89543 10 6V38" stroke="#4f46e5" stroke-width="2" stroke-linecap="round" stroke-linejoin="round"/><path d="M25 14H23" stroke="#4f46e5" stroke-width="2" stroke-linecap="round" stroke-linejoin="round"/><path d="M25 22H23" stroke="#4f46e5" stroke-width="2" stroke-linecap="round" stroke-linejoin="round"/><path d="M10 38C10 34.6863 12.6863 32 16 32H32C35.3137 32 38 34.6863 38 38C38 41.3137 35.3137 44 32 44H16C12.6863 44 10 41.3137 10 38Z" fill="none" stroke="#4f46e5" stroke-width="2" stroke-linecap="round" stroke-linejoin="round"/><path d="M17 39V44" stroke="#4f46e5" stroke-width="2" stroke-linecap="round" stroke-linejoin="round"/><path d="M22 39V44" stroke="#4f46e5" stroke-width="2" stroke-linecap="round" stroke-linejoin="round"/><path d="M27 39V44" stroke="#4f46e5" stroke-width="2" stroke-linecap="round" stroke-linejoin="round"/><circle cx="32" cy="38" r="2" fill="#4f46e5"/><path d="M29 44H15" stroke="#4f46e5" stroke-width="2" stroke-linecap="round" stroke-linejoin="round"/></svg>