<?xml version="1.0" encoding="UTF-8"?><svg width="38" height="38" viewBox="0 0 48 48" fill="none" xmlns="http://www.w3.org/2000/svg"><path d="M6 12C6 7.58172 9.58172 4 14 4H19C20.1046 4 21 4.89543 21 6V40C21 41.1046 20.1046 42 19 42H14C9.58172 42 6 38.4183 6 34V12Z" fill="none" stroke="#4f46e5" stroke-width="2"/><path d="M42 14C42 9.58172 38.4183 6 34 6H28C26.8954 6 26 6.89543 26 8V42C26 43.1046 26.8954 44 28 44H34C38.4183 44 42 40.4183 42 36V14Z" fill="none" stroke="#4f46e5" stroke-width="2"/><rect x="11" y="30" width="5" height="5" rx="2.5" fill="#4f46e5"/><rect x="31.5" y="14" width="5" height="5" rx="2.5" fill="#4f46e5"/><path d="M15 17H12" stroke="#4f46e5" stroke-width="2" stroke-linecap="round" stroke-linejoin="round"/><path d="M34 28V34" stroke="#4f46e5" stroke-width="2" stroke-linecap="round" stroke-linejoin="round"/><path d="M31 31L37 31" stroke="#4f46e5" stroke-width="2" stroke-linecap="round" stroke-linejoin="round"/></svg>