<?xml version="1.0" encoding="UTF-8"?><svg width="38" height="38" viewBox="0 0 48 48" fill="none" xmlns="http://www.w3.org/2000/svg"><path d="M42 6H6C4.89543 6 4 6.89543 4 8V40C4 41.1046 4.89543 42 6 42H42C43.1046 42 44 41.1046 44 40V8C44 6.89543 43.1046 6 42 6Z" fill="none" stroke="#4f46e5" stroke-width="2" stroke-linejoin="round"/><path d="M4 18H44" stroke="#4f46e5" stroke-width="2" stroke-linecap="round" stroke-linejoin="round"/><path d="M17.5 18V42" stroke="#4f46e5" stroke-width="2" stroke-linecap="round" stroke-linejoin="round"/><path d="M30.5 18V42" stroke="#4f46e5" stroke-width="2" stroke-linecap="round" stroke-linejoin="round"/><path d="M4 30H44" stroke="#4f46e5" stroke-width="2" stroke-linecap="round" stroke-linejoin="round"/><path d="M44 8V40C44 41.1046 43.1046 42 42 42H6C4.89543 42 4 41.1046 4 40V8" stroke="#4f46e5" stroke-width="2" stroke-linecap="round" stroke-linejoin="round"/></svg>