<?xml version="1.0" encoding="UTF-8"?><svg width="38" height="38" viewBox="0 0 48 48" fill="none" xmlns="http://www.w3.org/2000/svg"><rect x="16" y="12" width="28" height="18" rx="3" fill="none" stroke="#4f46e5" stroke-width="2" stroke-linejoin="round"/><path d="M24 18V24" stroke="#4f46e5" stroke-width="2" stroke-linecap="round"/><path d="M36 18V24" stroke="#4f46e5" stroke-width="2" stroke-linecap="round"/><path d="M36 12V6H24V12" stroke="#4f46e5" stroke-width="2" stroke-linecap="round" stroke-linejoin="round"/><path d="M44 36H12C10.8954 36 10 35.1046 10 34V11C10 9.89543 9.10457 9 8 9H4" stroke="#4f46e5" stroke-width="2" stroke-linecap="round" stroke-linejoin="round"/><path d="M19 42C17.3431 42 16 40.6569 16 39V36H22V39C22 40.6569 20.6569 42 19 42Z" fill="none" stroke="#4f46e5" stroke-width="2" stroke-linecap="round" stroke-linejoin="round"/><path d="M37 42C35.3431 42 34 40.6569 34 39V36H40V39C40 40.6569 38.6569 42 37 42Z" fill="none" stroke="#4f46e5" stroke-width="2" stroke-linecap="round" stroke-linejoin="round"/></svg>