<?xml version="1.0" encoding="UTF-8"?><svg width="38" height="38" viewBox="0 0 48 48" fill="none" xmlns="http://www.w3.org/2000/svg"><path d="M12 22C14.2091 22 16 20.2091 16 18C16 15.7909 14.2091 14 12 14C9.79086 14 8 15.7909 8 18C8 20.2091 9.79086 22 12 22Z" fill="none" stroke="#4f46e5" stroke-width="2" stroke-linejoin="round"/><path d="M36 28C38.2091 28 40 26.2091 40 24C40 21.7909 38.2091 20 36 20C33.7909 20 32 21.7909 32 24C32 26.2091 33.7909 28 36 28Z" fill="none" stroke="#4f46e5" stroke-width="2" stroke-linejoin="round"/><path d="M19 9L24 4L29 9" stroke="#4f46e5" stroke-width="2" stroke-linecap="round" stroke-linejoin="round"/><path d="M25 39L12 28.2632V22" stroke="#4f46e5" stroke-width="2" stroke-linecap="round" stroke-linejoin="round"/><path d="M36 28V32.7895L24 41" stroke="#4f46e5" stroke-width="2" stroke-linecap="round" stroke-linejoin="round"/><path d="M24 4V43" stroke="#4f46e5" stroke-width="2" stroke-linecap="round" stroke-linejoin="round"/><path d="M21 44H27" stroke="#4f46e5" stroke-width="2" stroke-linecap="round" stroke-linejoin="round"/></svg>