<?xml version="1.0" encoding="UTF-8"?>
<svg width="100pt" height="100pt" version="1.1" viewBox="0 0 100 100" xmlns="http://www.w3.org/2000/svg">
  <path
    d="m22.773 66.793c-2.2852 0-2.0391-0.003907-2.125 0-7.1719 0.03125-10.801 0.050781-13.766-3.8047-1.6094-2.0898-2.0586-4.3711-1.8086-6.9727 0.22656-2.3633 1.0312-4.9102 2.0391-7.8398l5.9219-17.211c1.0078-2.9258 2.1914-4.7383 3.7461-5.875 1.6172-1.1797 3.4414-1.5195 5.7305-1.5195h54.398c2.2891 0 4.1172 0.34375 5.7305 1.5195 1.5547 1.1328 2.7422 2.9492 3.7461 5.875l5.9219 17.211c1.0078 2.9297 1.8086 5.4727 2.0391 7.8398 0.25391 2.6055-0.19922 4.8828-1.8086 6.9727-2.9648 3.8555-6.5977 3.8398-13.766 3.8047h-2.125-53.879zm55.707-21.387h-8.2305v8.2344h-8.2461v-8.2461h-8.2422v8.2422h-8.2461v-8.2344h-8.207v8.2344h-8.2461v-8.2422h-8.2422v-8.2461h8.2461v8.2422h8.2148v-8.2344h8.2461v8.2344h8.2305v-8.2422h8.2461v8.2461h8.2305v-8.2344h8.2461zm-57.848 17.754c1.4336-0.007812 1.3438-0.015625 2.1367-0.015625h53.879c0.79297 0 0.70312 0.007813 2.1367 0.015625 5.9727 0.027344 9 0.042969 10.871-2.3945 0.96875-1.2578 1.2305-2.707 1.0664-4.4102-0.1875-1.9414-0.92969-4.2773-1.8672-6.9961l-5.9219-17.211c-0.75391-2.1836-1.5195-3.4531-2.4375-4.1211-0.85938-0.625-2.0312-0.80859-3.5938-0.80859h-54.398c-1.5625 0-2.7344 0.18359-3.5938 0.80859-0.91797 0.67188-1.6875 1.9375-2.4375 4.1211l-5.9219 17.211c-0.9375 2.7227-1.6797 5.0586-1.8672 6.9961-0.16406 1.7031 0.10156 3.1523 1.0664 4.4102 1.875 2.4375 4.8984 2.4219 10.871 2.3945z"
    fill="#04bbc1"/>
</svg>
