<?xml version="1.0" encoding="UTF-8" standalone="no"?>
<svg
   xmlns:dc="http://purl.org/dc/elements/1.1/"
   xmlns:cc="http://creativecommons.org/ns#"
   xmlns:rdf="http://www.w3.org/1999/02/22-rdf-syntax-ns#"
   xmlns:svg="http://www.w3.org/2000/svg"
   xmlns="http://www.w3.org/2000/svg"
   xmlns:sodipodi="http://sodipodi.sourceforge.net/DTD/sodipodi-0.dtd"
   xmlns:inkscape="http://www.inkscape.org/namespaces/inkscape"
   width="512"
   height="512"
   viewBox="0 0 512 512"
   version="1.1"
   id="svg2"
   inkscape:version="0.91 r13725"
   sodipodi:docname="covalent-quickstart.svg">
  <metadata
     id="metadata14">
    <rdf:RDF>
      <cc:Work
         rdf:about="">
        <dc:format>image/svg+xml</dc:format>
        <dc:type
           rdf:resource="http://purl.org/dc/dcmitype/StillImage" />
        <dc:title></dc:title>
      </cc:Work>
    </rdf:RDF>
  </metadata>
  <defs
     id="defs12" />
  <sodipodi:namedview
     pagecolor="#ffffff"
     bordercolor="#666666"
     borderopacity="1"
     objecttolerance="10"
     gridtolerance="10"
     guidetolerance="10"
     inkscape:pageopacity="0"
     inkscape:pageshadow="2"
     inkscape:window-width="1920"
     inkscape:window-height="1018"
     id="namedview10"
     showgrid="false"
     fit-margin-top="0"
     fit-margin-left="4"
     fit-margin-right="4"
     fit-margin-bottom="0"
     inkscape:zoom="1.357645"
     inkscape:cx="263.27889"
     inkscape:cy="268.79705"
     inkscape:window-x="1358"
     inkscape:window-y="-8"
     inkscape:window-maximized="1"
     inkscape:current-layer="svg2" />
  <g
     id="covalent-logo"
     style="fill-rule:evenodd"
     transform="matrix(8.6779661,0,0,8.6779661,34.711864,-78.101695)">
    <g
       transform="translate(0,9)"
       id="Group">
      <path
         inkscape:connector-curvature="0"
         id="Combined-Shape"
         d="M 25.5,0 51,14.75 49.258637,44.25 25.5,59 1.5830572,44.25 0,14.75 25.5,0 Z m 0,2.9449917 L 48.454329,16.222496 46.871272,42.777504 25.5,56.055008 4.1287279,42.777504 2.5456708,16.222496 25.5,2.9449917 Z" />
      <path
         inkscape:connector-curvature="0"
         id="Shape"
         d="m 43.98389,30.195 c -0.476976,-0.2508 -1.034084,-0.260933 -1.525052,-0.0874 l -1.467815,-0.7714 0,-6.1218 1.44492,-0.8664 c 0.178071,0.05447 0.362502,0.08993 0.553293,0.08993 0.345966,0 0.686846,-0.09373 0.983207,-0.272333 0.436274,-0.2622 0.744083,-0.677667 0.867461,-1.169133 0.122106,-0.492734 0.04579,-1.0032 -0.217502,-1.437667 -0.521494,-0.8626 -1.750185,-1.169133 -2.618917,-0.647267 -0.480792,0.2888 -0.780969,0.757467 -0.88018,1.267934 l -1.404219,0.842333 -5.087747,-3.038733 0,-1.677067 c 0.387941,-0.348333 0.635969,-0.846133 0.635969,-1.406 0,-1.047533 -0.856014,-1.9 -1.907905,-1.9 -1.051892,0 -1.907906,0.852467 -1.907906,1.9 0,0.559867 0.248028,1.057667 0.635969,1.406 l 0,1.677067 -5.087747,3.04 -5.087747,-3.04 0,-1.677067 c 0.387941,-0.348333 0.635968,-0.846133 0.635968,-1.406 0,-1.047533 -0.856013,-1.9 -1.907905,-1.9 -1.051891,0 -1.907905,0.852467 -1.907905,1.9 0,0.559867 0.248028,1.057667 0.635968,1.406 l 0,1.677067 -5.086474,3.038733 -1.404219,-0.842333 C 12.778194,19.669 12.478017,19.199067 11.997225,18.911533 11.128492,18.3884 9.9010734,18.6962 9.3783074,19.557533 9.1137445,19.992 9.0374283,20.503733 9.1595343,20.996467 9.2829121,21.487933 9.5907208,21.9034 10.026995,22.1656 c 0.297633,0.1786 0.63724,0.272333 0.983207,0.272333 0.190791,0 0.375222,-0.03547 0.553293,-0.08993 l 1.44492,0.867667 0,6.120533 -1.466543,0.772667 c -0.490968,-0.173534 -1.048076,-0.164667 -1.526324,0.0874 -0.9297861,0.4902 -1.2859284,1.6416 -0.7949608,2.567533 0.3319755,0.624467 0.9781198,1.012067 1.6878598,1.012067 0.309081,0 0.615618,-0.076 0.890356,-0.2204 0.496055,-0.260934 0.822943,-0.713134 0.950137,-1.216 l 1.491982,-0.785334 5.127176,3.0628 0,6.119267 -1.466543,0.772667 c -0.492239,-0.173534 -1.049347,-0.1634 -1.526324,0.0874 -0.929785,0.4902 -1.285928,1.6416 -0.79496,2.567533 0.331975,0.624467 0.978119,1.012067 1.68786,1.012067 0.309081,0 0.615617,-0.076 0.890356,-0.2204 0.496055,-0.260934 0.822943,-0.713134 0.950136,-1.216 l 1.491982,-0.785334 5.127177,3.0628 0,1.677067 c -0.387941,0.348333 -0.635968,0.846133 -0.635968,1.406 0,1.047533 0.856013,1.9 1.907905,1.9 1.051892,0 1.907905,-0.852467 1.907905,-1.9 0,-0.559867 -0.248028,-1.057667 -0.635968,-1.406 l 0,-1.677067 5.127177,-3.0628 1.491981,0.785334 c 0.128466,0.504133 0.454082,0.955066 0.950137,1.217266 0.273467,0.143134 0.581275,0.219134 0.890356,0.219134 0.709741,0 1.355885,-0.3876 1.68786,-1.012067 0.492239,-0.925933 0.134825,-2.0786 -0.794961,-2.567533 -0.476976,-0.252067 -1.034084,-0.260934 -1.525052,-0.0874 l -1.467815,-0.772667 0,-6.119267 5.127177,-3.0628 1.491982,0.785334 c 0.128466,0.504133 0.454082,0.955066 0.950137,1.217266 0.273466,0.143134 0.581275,0.219134 0.890356,0.219134 0.70974,0 1.355884,-0.3876 1.68786,-1.012067 0.492239,-0.925933 0.134825,-2.0786 -0.794961,-2.5688 l 0,0 z m -11.896424,10.5868 -5.087747,3.04 -5.087747,-3.04 0,-6.164867 5.087747,-3.04 5.087747,3.04 0,6.164867 0,0 z m 6.359684,-11.4 -5.087747,3.04 -5.087747,-3.04 0,-6.164867 5.087747,-3.04 5.087747,3.04 0,6.164867 0,0 z" />
    </g>
  </g>
</svg>
