<!-- Generator: Adobe Illustrator 25.0.0, SVG Export Plug-In . SVG Version: 6.00 Build 0)  -->
<svg version="1.1" id="Layer_1" xmlns="http://www.w3.org/2000/svg" xmlns:xlink="http://www.w3.org/1999/xlink" x="0px" y="0px"
	 viewBox="0 0 2174.7 2114" style="enable-background:new 0 0 3374.7 2114;" xml:space="preserve">
<path fill='currentColor' d="M799.9,951.7c-0.4,12.8,1.3,25.7,4.7,38.1c3.9,10.7,8.6,21,13.7,30.8c1.7,3,3,6.4,3,9.8
	c-0.4,5.1-3.4,10.3-8.1,12.8l-27,18c-3.4,2.1-7.3,3.9-11.1,3.9c-4.7-0.4-9.4-2.6-12.8-6c-5.6-6-11.1-12.8-15.4-20.1
	s-8.6-15.4-13.3-25.3c-33.4,39.4-75.3,59.1-125.8,59.1c-36,0-64.6-10.3-85.6-30.8c-21-20.5-31.7-47.9-31.7-82.2
	c0-36.4,12.8-65.9,38.9-88.2c26.1-22.3,60.8-33.4,104.9-33.4c15,0,30.4,1.3,45.4,3.4c15.8,2.1,32.1,5.6,49.2,9.4v-31.2
	c0-32.5-6.8-55.2-20.1-68.5c-13.3-13.3-36.8-19.7-69.8-19.7c-15.4,0-31.2,1.7-46.2,5.6c-15.8,3.9-31.2,8.6-46.2,14.6
	c-4.7,2.1-9.8,3.9-15,5.6c-2.1,0.9-4.7,1.3-6.8,1.3c-6,0-9-4.3-9-13.3v-21c-0.4-5.1,0.9-10.3,3-15c3.4-3.9,7.3-6.8,12-9
	c17.1-8.6,35.1-15,53.9-19.3c21.8-5.6,44.5-8.1,66.8-8.1c50.9,0,88.2,11.6,112.1,34.7S799,766,799,813v138.7H799.9z M626.1,1016.8
	c15,0,30-2.6,44.1-7.7c15.8-5.6,29.5-15,40.7-27.4c6.8-7.7,12-17.1,14.6-27.4c3-12,4.3-24.8,4.3-37.2v-18c-12.8-3-26.1-5.6-39.4-7.3
	c-13.3-1.7-27-2.6-40.2-2.6c-28.7,0-49.6,5.6-63.8,17.1c-14.1,11.6-21,27.8-21,49.2c0,20.1,5.1,35.1,15.8,45.4
	C591.8,1011.2,606.4,1016.8,626.1,1016.8L626.1,1016.8z M969.8,1063c-5.6,0.4-11.6-0.9-16.3-4.3c-4.3-4.7-7.7-10.3-9-16.7
	L843.9,711.2c-2.1-5.6-3.4-11.1-3.9-17.1c-0.4-5.1,3-9.8,8.1-10.7h44.5c8.1,0,13.7,1.3,16.7,4.3c3,3,6,8.6,8.6,16.7l71.5,283.3
	l66.8-283.3c2.1-8.6,4.7-14.1,8.1-16.7c5.1-3,11.1-4.7,17.1-4.3h34.2c8.1,0,13.7,1.3,17.1,4.3c4.3,4.7,7.3,10.3,8.1,16.7l67.6,286.8
	l74-286.8c1.3-6.4,4.3-12,8.6-16.7c5.1-3,10.7-4.7,16.7-4.3h39.8c5.1-0.9,9.8,3,10.7,8.1v2.6c0,2.1-0.4,4.7-0.9,6.8
	c-0.9,3.9-1.7,7.3-3,10.7l-103.2,330.9c-2.6,8.6-5.6,14.1-9,16.7c-4.7,3-10.7,4.7-16.3,4.3h-36.8c-8.1,0-13.7-1.3-17.1-4.3
	c-4.3-4.7-7.3-10.7-8.1-17.1L1097.8,766l-65.9,275.6c-0.9,6.4-3.9,12.4-8.1,17.1c-5.1,3.4-11.1,4.7-17.1,4.3H969.8z M1519.8,1074.5
	c-22.3,0-44.5-2.6-65.9-7.7c-21.4-5.1-38.1-10.7-49.2-17.1c-5.6-2.6-10.3-6.8-13.3-12c-1.7-3.9-2.6-7.7-2.6-12v-21.8
	c0-9,3.4-13.3,9.8-13.3c2.6,0,5.1,0.4,7.7,1.3c2.6,0.9,6.4,2.6,10.7,4.3c15,6.8,30.8,11.6,47.1,15c16.7,3.4,33.8,5.1,50.9,5.1
	c27,0,47.9-4.7,62.5-14.1c14.1-8.6,22.7-24,22.3-40.7c0.4-11.1-3.9-21.8-11.6-30c-7.7-8.1-22.3-15.4-43.2-22.3l-62.1-19.3
	c-31.2-9.8-54.4-24.4-68.5-43.7c-13.7-18-21.4-39.4-21.4-62.1c-0.4-16.7,3.4-33,11.6-47.5c7.7-13.7,18-25.7,30.8-35.1
	c13.3-10.3,28.2-17.5,44.5-22.3c17.5-5.1,35.5-7.7,53.9-7.3c9.4,0,19.3,0.4,28.7,1.7c9.8,1.3,18.8,3,27.8,4.7
	c9,1.7,16.7,4.3,24.4,6.8c6.4,2.1,12.4,4.7,18,7.7c5.1,2.6,9.4,6,12.8,10.7c3,4.3,4.3,9,3.9,14.1v20.1c0,9-3.4,13.7-9.8,13.7
	c-5.6-0.9-11.1-2.6-16.3-5.1c-25.7-11.6-53.9-17.1-82.2-16.7c-24.4,0-43.7,3.9-56.9,12c-13.3,8.1-20.1,20.5-20.1,38.1
	c-0.4,11.6,4.3,22.7,12.8,30.4c8.6,8.1,24.4,16.3,47.1,23.5l60.8,19.3c30.8,9.8,53.1,23.5,66.3,41.1c13.3,17.1,20.1,38.5,19.7,59.9
	c0.4,17.1-3.4,34.2-11.1,49.6c-7.7,14.6-18.4,27.4-31.2,37.7c-14.1,11.1-30.4,19.3-47.5,24
	C1561.3,1071.6,1540.7,1074.5,1519.8,1074.5L1519.8,1074.5z"/>
<path fill='currentColor' d="M1600.7,1282.6c-140.8,104-345.4,159.2-521.3,159.2c-246.5,0-468.7-91.2-636.4-242.7
	c-13.3-12-1.3-28.2,14.6-18.8c181.5,105.3,405.3,169.1,636.9,169.1c166.9-0.9,332.1-34.7,485.8-99.3
	C1603.7,1239.3,1623.8,1265.4,1600.7,1282.6L1600.7,1282.6z"/>
<path fill='currentColor' d="M1659.3,1215.8c-18-23.1-119-11.1-164.8-5.6c-13.7,1.7-15.8-10.3-3.4-19.3c80.5-56.5,212.7-40.2,228.1-21.4
	c15.4,18.8-4.3,151.5-79.6,214.9c-11.6,9.8-22.7,4.7-17.5-8.1C1639.2,1333.9,1677.3,1238.5,1659.3,1215.8z"/>
</svg>
