<svg xmlns:xlink="http://www.w3.org/1999/xlink" xmlns="http://www.w3.org/2000/svg" width="1127" height="184"
     viewBox="0 0 1127 184">
  <defs>
    <clipPath id="clip-path">
      <rect id="Rectangle_92" data-name="Rectangle 92" width="1127" height="184" transform="translate(793 776)"
            fill="#fff" stroke="#707070" stroke-width="1"/>
    </clipPath>
  </defs>
  <g id="Data_pattern_-_light" data-name="Data pattern - light" transform="translate(-793 -776)"
     clip-path="url(#clip-path)">
    <g id="orbital_data_pattern" transform="translate(782.67 800)">
      <g id="Group_23" data-name="Group 23">
        <g id="Group_18" data-name="Group 18">
          <g id="Group_14" data-name="Group 14">
            <path id="Path_14" data-name="Path 14"
                  d="M680.33,32a3,3,0,1,1-3,3,3.009,3.009,0,0,1,3-3m0-1a4,4,0,1,0,4,4,4,4,0,0,0-4-4Z" fill="#fff"/>
            <rect id="Rectangle_14" data-name="Rectangle 14" width="8" height="1" transform="translate(756.33 34.5)"
                  fill="#fff"/>
          </g>
          <g id="Group_15" data-name="Group 15">
            <path id="Path_15" data-name="Path 15"
                  d="M840.33,32a3,3,0,1,1-3,3,3.009,3.009,0,0,1,3-3m0-1a4,4,0,1,0,4,4,4,4,0,0,0-4-4Z" fill="#fff"/>
            <rect id="Rectangle_15" data-name="Rectangle 15" width="1" height="8" transform="translate(919.83 31)"
                  fill="#fff"/>
          </g>
          <g id="Group_16" data-name="Group 16">
            <path id="Path_16" data-name="Path 16"
                  d="M1000.33,32a3,3,0,1,1-3,3,3.009,3.009,0,0,1,3-3m0-1a4,4,0,1,0,4,4,4,4,0,0,0-4-4Z" fill="#fff"/>
            <rect id="Rectangle_16" data-name="Rectangle 16" width="8" height="1" transform="translate(1076.33 34.5)"
                  fill="#fff"/>
          </g>
          <g id="Group_17" data-name="Group 17">
            <path id="Path_17" data-name="Path 17"
                  d="M1160.33,32a3,3,0,1,1-3,3,3.009,3.009,0,0,1,3-3m0-1a4,4,0,1,0,4,4,4,4,0,0,0-4-4Z" fill="#fff"/>
            <rect id="Rectangle_17" data-name="Rectangle 17" width="1" height="8" transform="translate(1239.83 31)"
                  fill="#fff"/>
          </g>
        </g>
        <g id="Group_22" data-name="Group 22">
          <g id="Group_19" data-name="Group 19">
            <path id="Path_18" data-name="Path 18"
                  d="M760.33,112a3,3,0,1,1-3,3,3.009,3.009,0,0,1,3-3m0-1a4,4,0,1,0,4,4,4,4,0,0,0-4-4Z" fill="#fff"/>
            <rect id="Rectangle_18" data-name="Rectangle 18" width="8" height="1" transform="translate(836.33 114.5)"
                  fill="#fff"/>
          </g>
          <g id="Group_20" data-name="Group 20">
            <path id="Path_19" data-name="Path 19"
                  d="M920.33,112a3,3,0,1,1-3,3,3.009,3.009,0,0,1,3-3m0-1a4,4,0,1,0,4,4,4,4,0,0,0-4-4Z" fill="#fff"/>
            <rect id="Rectangle_19" data-name="Rectangle 19" width="1" height="8" transform="translate(999.83 111)"
                  fill="#fff"/>
          </g>
          <g id="Group_21" data-name="Group 21">
            <path id="Path_20" data-name="Path 20"
                  d="M1080.33,112a3,3,0,1,1-3,3,3.009,3.009,0,0,1,3-3m0-1a4,4,0,1,0,4,4,4,4,0,0,0-4-4Z" fill="#fff"/>
            <rect id="Rectangle_20" data-name="Rectangle 20" width="8" height="1" transform="translate(1156.33 114.5)"
                  fill="#fff"/>
          </g>
          <path id="Path_21" data-name="Path 21"
                d="M1240.33,112a3,3,0,1,1-3,3,3.009,3.009,0,0,1,3-3m0-1a4,4,0,1,0,4,4,4,4,0,0,0-4-4Z" fill="#fff"/>
          <rect id="Rectangle_21" data-name="Rectangle 21" width="1" height="8" transform="translate(679.83 111)"
                fill="#fff"/>
        </g>
      </g>
      <g id="Group_33" data-name="Group 33">
        <g id="Group_28" data-name="Group 28">
          <g id="Group_24" data-name="Group 24">
            <path id="Path_22" data-name="Path 22"
                  d="M40.33,32a3,3,0,1,1-3,3,3.009,3.009,0,0,1,3-3m0-1a4,4,0,1,0,4,4,4,4,0,0,0-4-4Z" fill="#fff"/>
            <rect id="Rectangle_22" data-name="Rectangle 22" width="8" height="1" transform="translate(116.33 34.5)"
                  fill="#fff"/>
          </g>
          <g id="Group_25" data-name="Group 25">
            <path id="Path_23" data-name="Path 23"
                  d="M200.33,32a3,3,0,1,1-3,3,3.009,3.009,0,0,1,3-3m0-1a4,4,0,1,0,4,4,4,4,0,0,0-4-4Z" fill="#fff"/>
            <rect id="Rectangle_23" data-name="Rectangle 23" width="1" height="8" transform="translate(279.83 31)"
                  fill="#fff"/>
          </g>
          <g id="Group_26" data-name="Group 26">
            <path id="Path_24" data-name="Path 24"
                  d="M360.33,32a3,3,0,1,1-3,3,3.009,3.009,0,0,1,3-3m0-1a4,4,0,1,0,4,4,4,4,0,0,0-4-4Z" fill="#fff"/>
            <rect id="Rectangle_24" data-name="Rectangle 24" width="8" height="1" transform="translate(436.33 34.5)"
                  fill="#fff"/>
          </g>
          <g id="Group_27" data-name="Group 27">
            <path id="Path_25" data-name="Path 25"
                  d="M520.33,32a3,3,0,1,1-3,3,3.009,3.009,0,0,1,3-3m0-1a4,4,0,1,0,4,4,4,4,0,0,0-4-4Z" fill="#fff"/>
            <rect id="Rectangle_25" data-name="Rectangle 25" width="1" height="8" transform="translate(599.83 31)"
                  fill="#fff"/>
          </g>
        </g>
        <g id="Group_32" data-name="Group 32">
          <g id="Group_29" data-name="Group 29">
            <path id="Path_26" data-name="Path 26"
                  d="M120.33,112a3,3,0,1,1-3,3,3.009,3.009,0,0,1,3-3m0-1a4,4,0,1,0,4,4,4,4,0,0,0-4-4Z" fill="#fff"/>
            <rect id="Rectangle_26" data-name="Rectangle 26" width="8" height="1" transform="translate(196.33 114.5)"
                  fill="#fff"/>
          </g>
          <g id="Group_30" data-name="Group 30">
            <path id="Path_27" data-name="Path 27"
                  d="M280.33,112a3,3,0,1,1-3,3,3.009,3.009,0,0,1,3-3m0-1a4,4,0,1,0,4,4,4,4,0,0,0-4-4Z" fill="#fff"/>
            <rect id="Rectangle_27" data-name="Rectangle 27" width="1" height="8" transform="translate(359.83 111)"
                  fill="#fff"/>
          </g>
          <g id="Group_31" data-name="Group 31">
            <path id="Path_28" data-name="Path 28"
                  d="M440.33,112a3,3,0,1,1-3,3,3.009,3.009,0,0,1,3-3m0-1a4,4,0,1,0,4,4,4,4,0,0,0-4-4Z" fill="#fff"/>
            <rect id="Rectangle_28" data-name="Rectangle 28" width="8" height="1" transform="translate(516.33 114.5)"
                  fill="#fff"/>
          </g>
          <path id="Path_29" data-name="Path 29"
                d="M600.33,112a3,3,0,1,1-3,3,3.009,3.009,0,0,1,3-3m0-1a4,4,0,1,0,4,4,4,4,0,0,0-4-4Z" fill="#fff"/>
          <rect id="Rectangle_29" data-name="Rectangle 29" width="1" height="8" transform="translate(39.83 111)"
                fill="#fff"/>
        </g>
      </g>
    </g>
  </g>
</svg>
