<svg id="Layer_1" data-name="Layer 1" xmlns="http://www.w3.org/2000/svg" xmlns:xlink="http://www.w3.org/1999/xlink" viewBox="0 0 400 300" width="406" height="306" class="illustration styles_illustrationTablet__1DWOa"><defs><linearGradient id="linear-gradient" x1="59" y1="203.67" x2="77.28" y2="148.83" gradientUnits="userSpaceOnUse"><stop offset="0" stop-color="#fff" stop-opacity="0"></stop><stop offset="0.98" stop-color="#0800bf"></stop></linearGradient><linearGradient id="linear-gradient-2" x1="122.98" y1="271.38" x2="146.41" y2="201.09" xlink:href="#linear-gradient"></linearGradient><linearGradient id="linear-gradient-3" x1="265.99" y1="220.24" x2="284.5" y2="164.71" xlink:href="#linear-gradient"></linearGradient></defs><title>81-90</title><ellipse cx="200.39" cy="188.78" rx="176.09" ry="88.76" fill="#58e6ca"></ellipse><path d="M37.05,208.38C52,200.32,93.11,180.23,108,172L92.79,164.8,24.3,192.55C40,200.75,15.38,195,37.05,208.38Z" opacity="0.32" fill="url(#linear-gradient)"></path><path d="M137.25,291.55c15-8.07,67.41-41.23,82.27-49.49l-105.4-37.89L46.57,240.3C62.24,248.5,115.57,278.14,137.25,291.55Z" opacity="0.32" fill="url(#linear-gradient-2)"></path><path d="M254.84,228.7c15-8.07,53.79-31.8,68.66-40.05l-40-6.69-58.63,20.73C240.54,210.88,233.16,215.29,254.84,228.7Z" opacity="0.32" fill="url(#linear-gradient-3)"></path><path d="M115.69,51.13s5.55-4,6-7.18a4.51,4.51,0,0,0-2.5-4.55L115.31,44" fill="#e56461"></path><path d="M114.41,41.74c-.59,0-1.82-1.5-2.22-1.95a10.22,10.22,0,0,1-1.68-2.52c-2.39-5.18.81-12.13,6.77-12.54a11,11,0,0,1,1.27,0c3.91.18,6.9,4.08,7.26,7.76a10.91,10.91,0,0,1-.94,5.42,8.2,8.2,0,0,1-1.48,2.19c-.42.45-1.7,1.83-2.35,1.81Z" fill="#fbb03b"></path><path d="M116.3,42.13l-.76-10.35s-1.39-2.54-2.36-.74,1,3,5.17,2.8,4.87-2.12,4-2.87-2.4.29-2.47.82-.93,10.35-.93,10.35" fill="none" stroke="#f2f2f2" stroke-miterlimit="10" stroke-width="0.5"></path><rect x="112.75" y="41.57" width="10.09" height="2.38" rx="1.19" ry="1.19" fill="#ccc"></rect><rect x="112.75" y="43.95" width="10.09" height="2.38" rx="1.19" ry="1.19" fill="#ccc"></rect><path d="M111.56,49.54s.89-4.38.89-4.71,1.22-4.06,2.43-4.14,3.81.08,4.14.81-1.79,1.42-3.16,1.44a6.29,6.29,0,0,1,1.38,5.38,8.69,8.69,0,0,1-3.57,4.57" fill="#f67770"></path><path d="M98.09,160.08a3.74,3.74,0,0,0,.76,3.07c1.16,1.25,5.59,5.18,6,6s1,3.17,0,4-3,.89-5.39,0a42.64,42.64,0,0,1-9.29-5.8c-1.07-1.16,0-13.13,0-13.13s6.22-1.52,8.3,0Z" fill="#42210b"></path><path d="M81.72,168.07a3.74,3.74,0,0,0,.76,3.07c1.16,1.25,5.59,5.18,6,6s1,3.17,0,4-3,.89-5.39,0a42.64,42.64,0,0,1-9.29-5.8c-1.07-1.16,0-13.13,0-13.13s6.22-1.52,8.3,0Z" fill="#42210b"></path><path d="M98.85,82.77A155.07,155.07,0,0,1,102.23,110c.21,13.16-1.35,48.5-1.35,48.5s-3.64,3.5-11.66,2.27v-49s-2.79,1-2.79,3.12-2.55,52.25-2.55,52.25-1.43,2.66-11.91-1.41c0,0-3.58-66.5,4.11-79.39" fill="#e6e6e6"></path><path d="M78.61,86.2c1.84-.07,7,1.22,10.49,1a38.57,38.57,0,0,0,10-1.76c.13-.62.25-1.27.34-2,2.33-18,1.71-30.58,0-33.42s-11.92-5.1-16.57-3.81S71.22,52.9,71.22,52.9,73.13,68.14,76.55,79C77.5,82,77.5,82,78.61,86.2Z" fill="#42210b"></path><path d="M90.28,47.89c1.64.35,1.95-4.19,1.25-4.61s-8.38-.47-9.56.06c-2.59,1.15,0,5,0,5" fill="#42210b"></path><path d="M80.42,28.9c1.48-.26,1.43-2.73,4.18-3.85s6,.49,7.2,1.36,2.08-.9,3.4.46.48,3.44,1.25,4.18l.11.08a3.83,3.83,0,0,1,.11,3.72A11.23,11.23,0,0,1,94.54,37L82.21,43.43c-1.49-1.05-4.34-11-4.18-12.19A2.6,2.6,0,0,1,80.42,28.9Z" fill="#200904"></path><path d="M94,32.67c.56.6-1.29,12.5-4.9,12.92s-7.88-4.36-8.26-5.78-.16-9,1.31-9.76S90.56,29,94,32.67Z" fill="#f67770"></path><path d="M92.26,29.24S93,32,88.65,32.53,84,34,83.52,35.53c-1,2.85-4,6.16-5-2.39-.05-.41,3.06-6.27,6.42-6.73S92.26,29.24,92.26,29.24Z" fill="#200904"></path><path d="M83.14,37s-1.36-2.34-2.41-1.23-.29,3.72,1.13,4.54" fill="#f67770"></path><path d="M99.43,50a58.64,58.64,0,0,1,5.13,11.72s5.66-13.58,6.76-13.39,4.87,2.55,5.19,4.12-5.6,22.47-12.86,24.36S92.31,62.56,92.31,62.56" fill="#42210b"></path><path d="M78.7,82l3.78,1.31s3.3,1,3.5,2-3.71.09-4.54,0,3.65,4.23,3.63,4.95-.74.82-1.26.62.72,1.24-.31,1.55a1.73,1.73,0,0,1-1.75-.72s-.1,1.44-1.13,1.24S75,87.45,74.54,85.6,76.76,81.34,78.7,82Z" fill="#f67770"></path><path d="M74.5,86.07s1.76,5.59,2.8,5.51,1.32-2.44,1.32-2.44-2.85-4.22-3.56-4.55S74.5,86.07,74.5,86.07Z" fill="#f67770"></path><path d="M71.39,52.69S60,66.44,58.78,71.34,73.25,88.06,73.25,88.06L79,82s-10.15-9.61-8.7-11.07,9.25-8.79,9.25-8.79" fill="#42210b"></path><polyline points="191.32 39.16 176.38 47.13 217.17 85.54 253.13 96.84 265.11 80.59" fill="#ffe8bc"></polyline><polyline points="247.63 88.66 261.5 80.77 191.32 39.16 192.97 38.2 265.11 80.59 265.11 188.85 249.37 197.81 243.37 191.55" fill="#68e1fd"></polyline><polyline points="247.63 88.66 261.5 80.77 191.32 39.16 192.97 38.2 265.11 80.59 265.11 188.85 249.37 197.81 243.37 191.55" fill="#1371a5" opacity="0.42"></polyline><polygon points="176.38 47.13 249.37 89.68 249.37 197.81 175.23 153.5 176.38 47.13" fill="#68e1fd"></polygon><polygon points="246.61 82.58 242.16 85.4 242.16 108.46 239.33 104.83 237.34 107.08 237.34 82.66 241.51 79.67 246.61 82.58" fill="#e85858"></polygon><polyline points="172.82 50.28 157.88 58.26 198.67 96.66 234.63 107.97 246.61 91.72" fill="#ffe8bc"></polyline><polyline points="229.13 99.79 243 91.89 172.82 50.28 174.47 49.33 246.61 91.72 246.61 199.98 230.87 208.94 224.87 202.68" fill="#68e1fd"></polyline><polyline points="229.13 99.79 243 91.89 172.82 50.28 174.47 49.33 246.61 91.72 246.61 199.98 230.87 208.94 224.87 202.68" fill="#1371a5" opacity="0.42"></polyline><polygon points="157.88 58.26 230.87 100.81 230.87 208.94 156.73 164.62 157.88 58.26" fill="#68e1fd"></polygon><polygon points="228.11 93.71 223.66 96.53 223.66 119.59 220.83 115.96 218.84 118.2 218.84 93.79 223.01 90.8 228.11 93.71" fill="#e85858"></polygon><path d="M249.07,226c.29,0,2.87-1,.69-2.7a44.73,44.73,0,0,0-4.52-3.09" fill="#fec64b"></path><path d="M249.07,212.35s-2.17,8,0,12.34l-29.56,17.37L190.28,259v-12.5" fill="#ffe8bc"></path><path d="M250.05,211.1q-.1.84-.21,1.67l-59.56,33.71V259l59.51-34.71c0,.49,0,1,0,1.48L188,261.52v-17Z" fill="#fec64b"></path><path d="M249.72,211.32,188.3,246.48l-86.19-50.6,60.1-34.47a5.93,5.93,0,0,1,6,0l81.54,48.33A.89.89,0,0,1,249.72,211.32Z" fill="#fec64b"></path><path d="M188,261.52s-86.13-50.72-85.87-51,0-14.68,0-14.68l86.19,50.6Z" fill="#fec64b"></path><path d="M249.74,209.78a2.19,2.19,0,0,1,.9,1.56c.1,1-1,1.56-1.4,1.78" fill="#fec64b"></path><path d="M249.07,209c.29,0,2.87-1,.69-2.7a44.73,44.73,0,0,0-4.52-3.09" fill="#58e6ca"></path><path d="M249.07,195.31s-2.17,8,0,12.34L219.52,225l-29.24,16.92v-12.5" fill="#ffe8bc"></path><path d="M250.05,194.06q-.1.84-.21,1.67l-59.56,33.71v12.5l59.51-34.71c0,.49,0,1,0,1.48L188,244.49v-17Z" fill="#58e6ca"></path><path d="M249.72,194.28,188.3,229.44l-86.19-50.6,60.1-34.47a5.93,5.93,0,0,1,6,0l81.54,48.33A.89.89,0,0,1,249.72,194.28Z" fill="#58e6ca"></path><path d="M188,244.49s-86.13-50.72-85.87-51,0-14.68,0-14.68l86.19,50.6Z" fill="#46d1b6"></path><path d="M249.74,192.75a2.19,2.19,0,0,1,.9,1.56c.1,1-1,1.56-1.4,1.78" fill="#58e6ca"></path><path d="M249.07,194.23c.29,0,2.87-1,.69-2.7a44.73,44.73,0,0,0-4.52-3.09" fill="#3484c6"></path><path d="M249.07,180.53s-2.17,8,0,12.34l-29.56,17.37-29.24,16.92v-12.5" fill="#ffe8bc"></path><path d="M250.05,179.28q-.1.84-.21,1.67l-59.56,33.71v12.5l59.51-34.71c0,.49,0,1,0,1.48L188,229.71v-17Z" fill="#3484c6"></path><path d="M249.72,179.5,188.3,214.66l-86.19-50.6,60.1-34.47a5.93,5.93,0,0,1,6,0L249.74,178A.89.89,0,0,1,249.72,179.5Z" fill="#3484c6"></path><path d="M188,229.71s-86.13-50.72-85.87-51,0-14.68,0-14.68l86.19,50.6Z" fill="#2571a5"></path><path d="M249.74,178a2.19,2.19,0,0,1,.9,1.56c.1,1-1,1.56-1.4,1.78" fill="#3484c6"></path><path d="M249.07,177.06c.29,0,2.87-1,.69-2.7a44.73,44.73,0,0,0-4.52-3.09" fill="#db948f"></path><path d="M249.07,163.36s-2.17,8,0,12.34l-29.56,17.37L190.28,210v-12.5" fill="#ffe8bc"></path><path d="M250.05,162.11q-.1.84-.21,1.67l-59.56,33.71V210l59.51-34.71c0,.49,0,1,0,1.48L188,212.54v-17Z" fill="#db948f"></path><path d="M249.72,162.34,188.3,197.49l-86.19-50.6,60.1-34.47a5.93,5.93,0,0,1,6,0l81.54,48.33A.89.89,0,0,1,249.72,162.34Z" fill="#db948f"></path><path d="M188,212.54s-86.13-50.72-85.87-51,0-14.68,0-14.68l86.19,50.6Z" fill="#b26967"></path><path d="M249.74,160.8a2.19,2.19,0,0,1,.9,1.56c.1,1-1,1.56-1.4,1.78" fill="#db948f"></path><path d="M290.27,168.84a4.6,4.6,0,0,1-1.92-.42l-.29,1.94,31.21.8v-2.33Z" fill="#ba4d02"></path><path d="M288.34,168.49l-.28,1.87,17.23,9.95V177.9C299.47,175.07,293.87,171.84,288.34,168.49Z" fill="#ba4d02"></path><path d="M305.73,34a5,5,0,0,1-3-.43L283,186.06c1.21.73,2.45,1.39,3.67,2.07l20-154.27C306.33,33.89,306,33.92,305.73,34Z" fill="#ba4d02"></path><path d="M310.28,33.79a10,10,0,0,1-2.17,0c-.58,0-1.16,0-1.74.09l13.35,156.4a31.7,31.7,0,0,1,3.15-1.33l.53-.27.1,0Z" fill="#ba4d02"></path><path d="M308.11,33.8a17.94,17.94,0,0,0-2.38.17,5.93,5.93,0,0,1-.94.06l-1.3,165.3h0a4.07,4.07,0,0,1,2.09-.16l1.13,0,.66-.07,1.3-165.23Z" fill="#ba4d02"></path><path d="M286.55,36.43V70.6s39.31,1.17,39.31,0V36.43" fill="#ffd464"></path><ellipse cx="306.2" cy="36.36" rx="19.66" ry="9.1" fill="#ba4d02"></ellipse><ellipse cx="306.2" cy="71.11" rx="19.66" ry="9.1" fill="#ffd464"></ellipse><path d="M118.46,155.29l-18.47,78c-.44,1.88,2.45,2.68,2.89.8l18.47-78c.44-1.88-2.45-2.68-2.89-.8Z" fill="#f2f2f2"></path><path d="M135.8,164.53l-18.47,78c-.44,1.88,2.45,2.68,2.89.8l18.47-78c.44-1.88-2.45-2.68-2.89-.8Z" fill="#f2f2f2"></path><path d="M116.54,167.6l17.33,9.68c1.69.94,3.2-1.65,1.51-2.59L118.06,165c-1.69-.94-3.2,1.65-1.51,2.59Z" fill="#f2f2f2"></path><path d="M114.74,178.44l16.62,9.29c1.69.94,3.2-1.65,1.51-2.59l-16.62-9.29c-1.69-.94-3.2,1.65-1.51,2.59Z" fill="#f2f2f2"></path><path d="M112.72,187.23l16.6,9.27c1.69.94,3.2-1.65,1.51-2.59l-16.6-9.27c-1.69-.94-3.2,1.65-1.51,2.59Z" fill="#f2f2f2"></path><path d="M110.11,196.68l16.45,9.19c1.69.94,3.2-1.65,1.51-2.59l-16.45-9.19c-1.69-.94-3.2,1.65-1.51,2.59Z" fill="#f2f2f2"></path><path d="M107.85,205.33l16.48,9.21c1.69.94,3.2-1.65,1.51-2.59l-16.48-9.21c-1.69-.94-3.2,1.65-1.51,2.59Z" fill="#f2f2f2"></path><path d="M105.34,215.38l17.33,9.68c1.69.94,3.2-1.65,1.51-2.59l-17.33-9.68c-1.69-.94-3.2,1.65-1.51,2.59Z" fill="#f2f2f2"></path></svg>