<svg id="Layer_1" data-name="Layer 1" xmlns="http://www.w3.org/2000/svg" viewBox="0 0 400 300" width="406" height="306" class="illustration styles_illustrationTablet__1DWOa"><ellipse cx="201.81" cy="227.2" rx="117.91" ry="17.07" fill="#e6e6e6" opacity="0.45"></ellipse><rect x="56.82" y="47.16" width="72.3" height="79.73" transform="translate(185.94 174.06) rotate(-180)" fill="#e6e6e6"></rect><circle cx="64.67" cy="55.3" r="2.77" fill="#ffd200"></circle><circle cx="72.47" cy="55.3" r="2.77" fill="#68e1fd"></circle><circle cx="79.94" cy="55.3" r="2.77" fill="#24285b"></circle><circle cx="92.97" cy="83.99" r="15.42" fill="#24285b"></circle><path d="M93,84l14.26-5.86s-2.72-9.23-13.89-9.55Z" fill="#ffd200"></path><path d="M93,84l14.2,6a15.36,15.36,0,0,0,.06-11.89Z" fill="#fff"></path><rect x="78.3" y="112.2" width="29.44" height="5.78" fill="#878787" opacity="0.19"></rect><path d="M109.59,211.63s-8.85-2.42-10.78-10.66c0,0,13.71-2.77,14.1,11.38Z" fill="#68e1fd" opacity="0.58"></path><path d="M110.67,210.75s-6.18-9.78-.74-18.92c0,0,10.43,6.63,5.79,18.94Z" fill="#68e1fd" opacity="0.73"></path><path d="M112.27,210.75s3.26-10.32,13.14-12.27c0,0,1.85,6.7-6.4,12.3Z" fill="#68e1fd"></path><polygon points="105.85 210.52 107.64 222.79 118.94 222.84 120.61 210.58 105.85 210.52" fill="#24285b"></polygon><path d="M148.42,109.34V215.76c0,8,23.73,14.55,53,14.55s53-6.51,53-14.55V109.34Z" fill="#68e1fd"></path><ellipse cx="201.43" cy="109.34" rx="53" ry="14.55" fill="#68e1fd"></ellipse><ellipse cx="201.43" cy="109.34" rx="53" ry="14.55" fill="#fff" opacity="0.47"></ellipse><path d="M148.42,146.85s47.9,17.94,106,0V184s-48.92,21.79-106,0Z" opacity="0.09"></path><rect x="233.6" y="80.02" width="99.57" height="53.99" fill="#24285b"></rect><path d="M155.72,132.62s10,6.89,34.73,6.64" fill="none" stroke="#fff" stroke-miterlimit="10"></path><path d="M155.72,167s10,6.9,34.73,6.64" fill="none" stroke="#fff" stroke-miterlimit="10"></path><path d="M155.72,204.45s10,6.9,34.73,6.64" fill="none" stroke="#fff" stroke-miterlimit="10"></path><path d="M320.06,109.78l-3.32-2.59a12.46,12.46,0,0,0,0-2.73l3.32-2.6a1.62,1.62,0,0,0,.4-2.07l-3.46-6a1.65,1.65,0,0,0-2-.72l-3.91,1.58a14.13,14.13,0,0,0-2.35-1.37l-.6-4.15a1.6,1.6,0,0,0-1.6-1.39h-6.92A1.6,1.6,0,0,0,298,89.13l-.61,4.17a14,14,0,0,0-2.34,1.37l-3.93-1.58a1.6,1.6,0,0,0-2,.71l-3.46,6a1.62,1.62,0,0,0,.39,2.09l3.32,2.59a12.46,12.46,0,0,0,0,2.73l-3.32,2.6a1.62,1.62,0,0,0-.39,2.07l3.45,6a1.64,1.64,0,0,0,2,.72l3.91-1.58a14.55,14.55,0,0,0,2.35,1.37l.61,4.15a1.59,1.59,0,0,0,1.59,1.39h6.92a1.6,1.6,0,0,0,1.59-1.37l.61-4.17a14,14,0,0,0,2.34-1.37l3.93,1.58a1.61,1.61,0,0,0,2-.71l3.46-6A1.63,1.63,0,0,0,320.06,109.78Zm-17,3.57a7.53,7.53,0,1,1,7.52-7.53A7.53,7.53,0,0,1,303.08,113.35Z" fill="#ffd200"></path><rect x="246.53" y="98.57" width="27.23" height="5.45" fill="#fff"></rect><rect x="246.53" y="110.02" width="27.23" height="5.45" fill="#fff" opacity="0.29"></rect></svg>