<svg id="Layer_1" data-name="Layer 1" xmlns="http://www.w3.org/2000/svg" viewBox="0 0 400 300" width="406" height="306" class="illustration styles_illustrationTablet__1DWOa"><path d="M300.49,179.86s-12.06,26.81,0,30S300.49,179.86,300.49,179.86Z" fill="#68e1fd"></path><path d="M300.49,179.86s-12.06,26.81,0,30S300.49,179.86,300.49,179.86Z" opacity="0.08"></path><ellipse cx="204.33" cy="247.55" rx="157.37" ry="11.9" fill="#e6e6e6" opacity="0.45"></ellipse><rect x="183.58" y="86.13" width="35" height="161.43" fill="#68e1fd"></rect><path d="M319.52,180.6h-35V146.38a2.92,2.92,0,0,0-2.92-2.92H114.53v-35H281.6a38,38,0,0,1,37.92,37.92Z" fill="#68e1fd"></path><rect x="231.64" y="103.77" width="25.19" height="45.49" fill="#68e1fd"></rect><rect x="231.64" y="103.77" width="25.19" height="45.49" fill="#fff" opacity="0.39"></rect><rect x="145.85" y="103.77" width="25.19" height="45.49" fill="#68e1fd"></rect><rect x="145.85" y="103.77" width="25.19" height="45.49" fill="#fff" opacity="0.39"></rect><rect x="188.7" y="152.11" width="25.19" height="45.49" transform="translate(376.15 -26.45) rotate(90)" fill="#68e1fd"></rect><rect x="188.7" y="152.11" width="25.19" height="45.49" transform="translate(376.15 -26.45) rotate(90)" fill="#fff" opacity="0.39"></rect><rect x="289.3" y="152.11" width="25.19" height="45.49" transform="translate(476.74 -127.04) rotate(90)" fill="#68e1fd"></rect><rect x="289.3" y="152.11" width="25.19" height="45.49" transform="translate(476.74 -127.04) rotate(90)" fill="#fff" opacity="0.39"></rect><rect x="174.54" y="44.38" width="52.47" height="6.69" rx="3.34" fill="#24285b"></rect><rect x="172.4" y="70.81" width="59.23" height="19.74" fill="#24285b"></rect><path d="M193,63.82l4.43-22.92a3.18,3.18,0,0,1,6.24-.06l4.9,23Z" fill="#ffd200"></path><rect x="181.38" y="63.66" width="39.83" height="7.15" fill="#ffd200"></rect><circle cx="96.32" cy="125.96" r="30.55" fill="#24285b"></circle><circle cx="96.32" cy="125.96" r="21.11" fill="#fff"></circle><circle cx="96.32" cy="125.96" r="15.11" opacity="0.03"></circle><path d="M101.46,127.28h0l2.6-13.65a.86.86,0,0,0-1.45-.77l-9.82,9.8h0a4.7,4.7,0,0,0-1.63,3.59,5.35,5.35,0,0,0,2.74,4.86,5.21,5.21,0,0,0,7-2.19A5,5,0,0,0,101.46,127.28Z" fill="#ffd200"></path><path d="M189,228.94s23.62.81,17.84,18.61h-15Z" opacity="0.08"></path><circle cx="96.59" cy="126.38" r="2.9" fill="#24285b"></circle><path d="M192.21,249.8s11.84-17-5.82-21.71,4.26-27.62-12.18-30.64-13.7,21.25-13.7,21.25-11.34-9.78-19.17-1.57,3.13,17.23,3.13,17.23-15.81,5.46-5.95,15.44Z" fill="#e6e6e6"></path><path d="M168.47,252.07s7.52-12.86,18.6-11.28S197,252.07,197,252.07Z" fill="#c9c9c9"></path><path d="M291.1,247.55a10.32,10.32,0,0,1-3.85-.64c-4.67-1.71-15.49-6.49-10.67-12.72,6.08-7.85,10.2,6.28,15.11,1.77s6.28-10.39,12.16-7.45-4.72,13.05,3.72,11.82,11.39-10.52,15.9-7.64c3.88,2.47,2.1,9.73-6,13a18.78,18.78,0,0,1-6.63,1.32Z" fill="#68e1fd"></path><path d="M291.1,247.55a10.32,10.32,0,0,1-3.85-.64c-4.67-1.71-15.49-6.49-10.67-12.72,6.08-7.85,10.2,6.28,15.11,1.77s6.28-10.39,12.16-7.45-4.72,13.05,3.72,11.82,11.39-10.52,15.9-7.64c3.88,2.47,2.1,9.73-6,13a18.78,18.78,0,0,1-6.63,1.32Z" opacity="0.08"></path></svg>