<svg height='100px' width='100px'  fill="#000000" xmlns="http://www.w3.org/2000/svg" xmlns:xlink="http://www.w3.org/1999/xlink" version="1.1" x="0px" y="0px" viewBox="0 0 100 100" style="enable-background:new 0 0 100 100;" xml:space="preserve"><path d="M50,10c-22.0561523,0-40,17.9438477-40,40s17.9438477,40,40,40s40-17.9438477,40-40S72.0561523,10,50,10z   M77.5476685,76.133606l-7.2961426-7.2961426C74.6415405,64.1211548,77.4054565,57.8773804,77.6513672,51h10.3232422  C87.7214355,60.7223511,83.8031006,69.5429688,77.5476685,76.133606z M12.0253906,51h10.3232422  c0.2459106,6.8773804,3.0098267,13.1211548,7.3998413,17.8374634l-7.2961426,7.2961426  C16.1968994,69.5429688,12.2785645,60.7223511,12.0253906,51z M22.4523315,23.866394l7.2961426,7.2961426  C25.3584595,35.8788452,22.5945435,42.1226196,22.3486328,49H12.0253906  C12.2785645,39.2776489,16.1968994,30.4570312,22.4523315,23.866394z M61.4584961,72.9683228V27.0316772  C69.8792725,31.249939,75.6767578,39.958252,75.6767578,50S69.8792725,68.750061,61.4584961,72.9683228z M50,75.6767578  c-3.4320068,0-6.7063599-0.6818848-9.7016602-1.9090576V26.2322998C43.2936401,25.005127,46.5679932,24.3232422,50,24.3232422  c3.3396606,0,6.5290527,0.6477661,9.4584961,1.8130493v47.727417C56.5290527,75.0289917,53.3396606,75.6767578,50,75.6767578z   M24.3232422,50c0-9.944519,5.6865234-18.5802612,13.9750977-22.8435669v45.6871338  C30.0097656,68.5802612,24.3232422,59.944519,24.3232422,50z M68.8372192,29.74823  C64.1209717,25.3583374,57.8772583,22.5944824,51,22.3486328V12.0253906  c9.72229,0.2531738,18.5429077,4.1715088,25.1335449,10.4269409L68.8372192,29.74823z M49,22.3486328  c-6.8773804,0.2459106-13.1211548,3.0098267-17.8374634,7.3998413l-7.2961426-7.2961426  C30.4570312,16.1968994,39.2776489,12.2785645,49,12.0253906V22.3486328z M31.1625366,70.2515259  C35.8788452,74.6415405,42.1226196,77.4054565,49,77.6513672v10.3232422  c-9.7223511-0.2531738-18.5429688-4.1715088-25.133606-10.4269409L31.1625366,70.2515259z M51,77.6513672  c6.8773804-0.2459106,13.1211548-3.0098267,17.8374634-7.3998413l7.2961426,7.2961426  C69.5429688,83.8031006,60.7223511,87.7214355,51,87.9746094V77.6513672z M77.6513672,49  c-0.2459106-6.8775024-3.0099487-13.1213989-7.4000854-17.8377075l7.2963257-7.2958984  C83.8030396,30.4570312,87.7214355,39.2776489,87.9746094,49H77.6513672z"></path><path d="M50,55.9716797c-3.4853516,0-6.3208008,2.8354492-6.3208008,6.3208008S46.5146484,68.6132812,50,68.6132812  s6.3208008-2.8354492,6.3208008-6.3208008S53.4853516,55.9716797,50,55.9716797z M50,66.6132812  c-2.3823242,0-4.3208008-1.9384766-4.3208008-4.3208008S47.6176758,57.9716797,50,57.9716797  s4.3208008,1.9384766,4.3208008,4.3208008S52.3823242,66.6132812,50,66.6132812z"></path></svg>