<svg height='100px' width='100px'  fill="#ffffff" xmlns="http://www.w3.org/2000/svg" xmlns:xlink="http://www.w3.org/1999/xlink" version="1.1" x="0px" y="0px" viewBox="0 0 100 100" enable-background="new 0 0 100 100" xml:space="preserve"><path d="M94.3,48.2L81.8,35.7c-1-1-2.6-1-3.5,0c-1,1-1,2.6,0,3.5L80,41l9,9l-9,9l-1.8,1.8c-1,1-1,2.6,0,3.5c0.5,0.5,1.1,0.7,1.8,0.7  s1.3-0.2,1.8-0.7l12.5-12.5C95.2,50.8,95.2,49.2,94.3,48.2z"></path><path d="M21.8,39.3c1-1,1-2.6,0-3.5c-1-1-2.6-1-3.5,0L5.7,48.2c-1,1-1,2.6,0,3.5l12.5,12.5c0.5,0.5,1.1,0.7,1.8,0.7s1.3-0.2,1.8-0.7  c1-1,1-2.6,0-3.5L20,59l-9-9l9-9L21.8,39.3z"></path><path d="M72.4,29.3c0-0.1,0-0.2-0.1-0.2c0-0.1-0.1-0.2-0.1-0.2c0-0.1-0.1-0.1-0.1-0.2c-0.2-0.3-0.4-0.5-0.7-0.7  c-0.1,0-0.1-0.1-0.2-0.1c-0.1,0-0.2-0.1-0.2-0.1c-0.1,0-0.2-0.1-0.3-0.1c-0.1,0-0.1,0-0.2-0.1c-0.2,0-0.3,0-0.5,0H40  c-0.7,0-1.3,0.3-1.8,0.7l-10,10c-0.1,0.1-0.2,0.2-0.3,0.4c0,0.1-0.1,0.1-0.1,0.2c0,0.1-0.1,0.2-0.1,0.2c0,0.1-0.1,0.2-0.1,0.2  c0,0.1,0,0.1-0.1,0.2c0,0.2,0,0.3,0,0.5v30c0,1.4,1.1,2.5,2.5,2.5h30c0.2,0,0.3,0,0.5,0c0.1,0,0.1,0,0.2-0.1c0.1,0,0.2,0,0.2-0.1  c0.1,0,0.2-0.1,0.2-0.1c0.1,0,0.1-0.1,0.2-0.1c0.1-0.1,0.3-0.2,0.4-0.3l10-10c0.5-0.5,0.7-1.1,0.7-1.8V30c0-0.2,0-0.3,0-0.5  C72.4,29.4,72.4,29.4,72.4,29.3z M57.5,67.5h-25v-25h25V67.5z M59,37.5H36l5-5H64L59,37.5z M67.5,59l-5,5V41l5-5V59z"></path></svg>