<svg height='100px' width='100px'  fill="#000000" xmlns:x="http://ns.adobe.com/Extensibility/1.0/" xmlns:i="http://ns.adobe.com/AdobeIllustrator/10.0/" xmlns:graph="http://ns.adobe.com/Graphs/1.0/" xmlns="http://www.w3.org/2000/svg" xmlns:xlink="http://www.w3.org/1999/xlink" version="1.1" x="0px" y="0px" viewBox="0 0 100 100" style="enable-background:new 0 0 100 100;" xml:space="preserve"><g><g i:extraneous="self"><g><path d="M5273.1,2400.1v-2c0-2.8-5-4-9.7-4s-9.7,1.3-9.7,4v2c0,1.8,0.7,3.6,2,4.9l5,4.9c0.3,0.3,0.4,0.6,0.4,1v6.4     c0,0.4,0.2,0.7,0.6,0.8l2.9,0.9c0.5,0.1,1-0.2,1-0.8v-7.2c0-0.4,0.2-0.7,0.4-1l5.1-5C5272.4,2403.7,5273.1,2401.9,5273.1,2400.1z      M5263.4,2400c-4.8,0-7.4-1.3-7.5-1.8v0c0.1-0.5,2.7-1.8,7.5-1.8c4.8,0,7.3,1.3,7.5,1.8C5270.7,2398.7,5268.2,2400,5263.4,2400z"></path><path d="M5268.4,2410.3c-0.6,0-1,0.4-1,1c0,0.6,0.4,1,1,1h4.3c0.6,0,1-0.4,1-1c0-0.6-0.4-1-1-1H5268.4z"></path><path d="M5272.7,2413.7h-4.3c-0.6,0-1,0.4-1,1c0,0.6,0.4,1,1,1h4.3c0.6,0,1-0.4,1-1C5273.7,2414.1,5273.3,2413.7,5272.7,2413.7z"></path><path d="M5272.7,2417h-4.3c-0.6,0-1,0.4-1,1c0,0.6,0.4,1,1,1h4.3c0.6,0,1-0.4,1-1C5273.7,2417.5,5273.3,2417,5272.7,2417z"></path></g><g><path d="M50,2.5C23.8,2.5,2.5,23.8,2.5,50S23.8,97.5,50,97.5S97.5,76.2,97.5,50S76.2,2.5,50,2.5z M50,91C27.4,91,9,72.6,9,50     S27.4,9,50,9s41,18.4,41,41S72.6,91,50,91z"></path><path d="M67.2,32.8c-1.3-1.3-3.3-1.3-4.6,0L50,45.4L37.3,32.8c-1.3-1.3-3.3-1.3-4.6,0c-1.3,1.3-1.3,3.3,0,4.6L45.4,50L32.8,62.7     c-1.3,1.3-1.3,3.3,0,4.6c0.6,0.6,1.5,0.9,2.3,0.9c0.8,0,1.7-0.3,2.3-0.9L50,54.6l12.7,12.7c0.6,0.6,1.5,0.9,2.3,0.9     s1.7-0.3,2.3-0.9c1.3-1.3,1.3-3.3,0-4.6L54.6,50l12.7-12.7C68.5,36.1,68.5,34,67.2,32.8z"></path></g></g></g></svg>