<svg height='100px' width='100px' fill="#fff" xmlns="http://www.w3.org/2000/svg"
     xmlns:xlink="http://www.w3.org/1999/xlink" version="1.1" x="0px" y="0px" viewBox="0 0 60 60"
     style="enable-background:new 0 0 60 60;" xml:space="preserve"><path d="M37.0478516,41.815918l5.1083984-5.1088867c0.390625-0.390625,0.390625-1.0234375,0-1.4140625l-5.1083984-5.1083984  l-1.4140625,1.4140625L40.0351563,36l-4.4013672,4.4018555L37.0478516,41.815918z"></path>
  <path
    d="M22.953125,30.1845703l-5.109375,5.1083984c-0.1875,0.1875-0.2929688,0.4418945-0.2929688,0.7070313  s0.1054688,0.5195313,0.2929688,0.7070313l5.109375,5.1088867l1.4140625-1.4140625L19.9648438,36l4.4023438-4.4013672  L22.953125,30.1845703z"></path>
  <rect x="21.1502094" y="35.000351" transform="matrix(0.3871656 -0.9220102 0.9220102 0.3871656 -15.2474365 49.0606995)"
        width="16.2640343" height="1.9997828"></rect>
  <path
    d="M21.8925781,7.5244141l-9.4990234,9.4985352c-0.9833984,0.9833984-1.5244141,2.2905273-1.5244141,3.6796875v29.4604492  C10.8691406,52.2788086,12.5908203,54,14.7060547,54h30.5869141c2.1162109,0,3.8378906-1.7216797,3.8378906-3.8374023V9.8369141  C49.1308594,7.7211914,47.4091797,6,45.2939453,6H25.5722656C24.1816406,6,22.875,6.5415039,21.8925781,7.5244141z   M23.2900391,8.9550781v7.6342773c0,1.0097656-0.8222656,1.831543-1.8320313,1.831543h-7.6342773L23.2900391,8.9550781z   M47.1308594,9.8369141v40.3256836C47.1308594,51.1757813,46.3066406,52,45.2929688,52H14.7060547  c-1.0126953,0-1.8369141-0.8242188-1.8369141-1.8369141V20.7026367c0-0.0957031,0.0192871-0.187561,0.0275269-0.2817383h8.5613403  c2.1132813,0,3.8320313-1.71875,3.8320313-3.831543V8.0275269C25.3843994,8.0192871,25.4763794,8,25.5722656,8h19.7216797  C46.3066406,8,47.1308594,8.8242188,47.1308594,9.8369141z"></path></svg>
