<svg height='100px' width='100px'  fill="#ffffff" xmlns="http://www.w3.org/2000/svg" data-name="Layer 1" viewBox="0 0 128 128" x="0px" y="0px"><title>iOS optimized seo 01 final</title><path d="M24,98H51v6H47a2,2,0,0,0,0,4H81a2,2,0,0,0,0-4H77V98h27a10.0113,10.0113,0,0,0,10-10V28a10.0113,10.0113,0,0,0-10-10H24A10.01134,10.01134,0,0,0,14,28V88A10.01134,10.01134,0,0,0,24,98Zm49,6H55V98H73ZM87.02692,63.61487c0-2.80774.77008-4.30725,2.87878-5.11536-2.1087-.80713-2.87878-2.30762-2.87878-5.11536,0-2.0379.36487-3.92279.36487-6.30786a1.68553,1.68553,0,0,0-1.905-1.80743,1.88707,1.88707,0,1,1,0-3.76886c4.49957,0,6.324,2.692,6.324,5.2301,0,2.88519-.64911,5.23108-.64911,7.7691,0,2.00061.97369,2.38507,2.63586,2.38507a1.61747,1.61747,0,1,1,0,3.23047c-1.66217,0-2.63586.38538-2.63586,2.38507,0,2.538.64911,4.88483.64911,7.7691,0,2.539-1.82446,5.23108-6.324,5.23108a1.88753,1.88753,0,1,1,0-3.76984,1.68512,1.68512,0,0,0,1.905-1.80743C87.39178,67.53864,87.02692,65.65375,87.02692,63.61487ZM58.73242,74.56445l18-34a1.9999,1.9999,0,1,1,3.53516,1.87109l-18,34a1.9999,1.9999,0,0,1-3.53516-1.87109ZM32,43H42.43457a2,2,0,0,1,0,4H32a2,2,0,0,1,0-4Zm0,8H50.78223a2,2,0,0,1,0,4H32a2,2,0,0,1,0-4Zm0,8H56a2,2,0,0,1,0,4H32a2,2,0,0,1,0-4Zm0,8H56a2,2,0,0,1,0,4H32a2,2,0,0,1,0-4Z"></path></svg>