<svg height='100px' width='100px'  fill="#000000" xmlns:dc="http://purl.org/dc/elements/1.1/" xmlns:cc="http://creativecommons.org/ns#" xmlns:rdf="http://www.w3.org/1999/02/22-rdf-syntax-ns#" xmlns:svg="http://www.w3.org/2000/svg" xmlns="http://www.w3.org/2000/svg" xmlns:sodipodi="http://sodipodi.sourceforge.net/DTD/sodipodi-0.dtd" xmlns:inkscape="http://www.inkscape.org/namespaces/inkscape" viewBox="0 0 100 100" version="1.1" x="0px" y="0px"><g transform="translate(0,-952.36216)"><path style="color:#000000;font-style:normal;font-variant:normal;font-weight:normal;font-stretch:normal;font-size:medium;line-height:normal;font-family:sans-serif;text-indent:0;text-align:start;text-decoration:none;text-decoration-line:none;text-decoration-style:solid;text-decoration-color:#000000;letter-spacing:normal;word-spacing:normal;text-transform:none;direction:ltr;block-progression:tb;writing-mode:lr-tb;baseline-shift:baseline;text-anchor:start;white-space:normal;clip-rule:nonzero;display:inline;overflow:visible;visibility:visible;opacity:1;isolation:auto;mix-blend-mode:normal;color-interpolation:sRGB;color-interpolation-filters:linearRGB;solid-color:#000000;solid-opacity:1;fill:#000000;fill-opacity:1;fill-rule:nonzero;stroke:none;stroke-width:3.00000024;stroke-linecap:butt;stroke-linejoin:round;stroke-miterlimit:4;stroke-dasharray:none;stroke-dashoffset:0;stroke-opacity:1;color-rendering:auto;image-rendering:auto;shape-rendering:auto;text-rendering:auto;enable-background:accumulate" d="m 49.976562,972.36133 c -0.827658,0.0129 -1.488433,0.69381 -1.476562,1.52148 l 0,7.61329 c -4.243093,0.71992 -7.5,4.42423 -7.5,8.86523 0,4.44092 3.257001,8.14327 7.5,8.86328 l 0,31.61519 c 0,2.0287 3,2.0287 3,0 l 0,-31.61519 c 4.242999,-0.72001 7.5,-4.42236 7.5,-8.86328 0,-4.441 -3.256907,-8.14531 -7.5,-8.86523 l 0,-7.61329 c 0.01213,-0.84603 -0.677418,-1.5347 -1.523438,-1.52148 z m 0.02344,12 c 3.331475,0 6,2.66852 6,6 0,3.33147 -2.668525,6 -6,6 -3.331475,0 -6,-2.66853 -6,-6 0,-3.33148 2.668525,-6 6,-6 z"></path><path style="color:#000000;font-style:normal;font-variant:normal;font-weight:normal;font-stretch:normal;font-size:medium;line-height:normal;font-family:sans-serif;text-indent:0;text-align:start;text-decoration:none;text-decoration-line:none;text-decoration-style:solid;text-decoration-color:#000000;letter-spacing:normal;word-spacing:normal;text-transform:none;direction:ltr;block-progression:tb;writing-mode:lr-tb;baseline-shift:baseline;text-anchor:start;white-space:normal;clip-rule:nonzero;display:inline;overflow:visible;visibility:visible;opacity:1;isolation:auto;mix-blend-mode:normal;color-interpolation:sRGB;color-interpolation-filters:linearRGB;solid-color:#000000;solid-opacity:1;fill:#000000;fill-opacity:1;fill-rule:nonzero;stroke:none;stroke-width:3.00000024;stroke-linecap:butt;stroke-linejoin:round;stroke-miterlimit:4;stroke-dasharray:none;stroke-dashoffset:0;stroke-opacity:1;color-rendering:auto;image-rendering:auto;shape-rendering:auto;text-rendering:auto;enable-background:accumulate" d="m 73.976562,972.36133 c -0.827658,0.0129 -1.488433,0.69381 -1.476562,1.52148 l 0,19.61329 c -4.243093,0.71992 -7.5,4.42423 -7.5,8.8652 0,4.4409 3.257001,8.1433 7.5,8.8633 l 0,19.6172 c -0.02869,2.0285 3.028688,2.0285 3,0 l 0,-19.6172 c 4.242999,-0.72 7.5,-4.4224 7.5,-8.8633 0,-4.44097 -3.256907,-8.14528 -7.5,-8.8652 l 0,-19.61329 c 0.01213,-0.84603 -0.677419,-1.5347 -1.523438,-1.52148 z m 0.02344,24 c 3.331476,0 6,2.66852 6,5.99997 0,3.3315 -2.668524,6 -6,6 -3.331476,0 -6,-2.6685 -6,-6 0,-3.33145 2.668524,-5.99997 6,-5.99997 z"></path><path style="color:#000000;font-style:normal;font-variant:normal;font-weight:normal;font-stretch:normal;font-size:medium;line-height:normal;font-family:sans-serif;text-indent:0;text-align:start;text-decoration:none;text-decoration-line:none;text-decoration-style:solid;text-decoration-color:#000000;letter-spacing:normal;word-spacing:normal;text-transform:none;direction:ltr;block-progression:tb;writing-mode:lr-tb;baseline-shift:baseline;text-anchor:start;white-space:normal;clip-rule:nonzero;display:inline;overflow:visible;visibility:visible;opacity:1;isolation:auto;mix-blend-mode:normal;color-interpolation:sRGB;color-interpolation-filters:linearRGB;solid-color:#000000;solid-opacity:1;fill:#000000;fill-opacity:1;fill-rule:nonzero;stroke:none;stroke-width:3.00000024;stroke-linecap:butt;stroke-linejoin:round;stroke-miterlimit:4;stroke-dasharray:none;stroke-dashoffset:0;stroke-opacity:1;color-rendering:auto;image-rendering:auto;shape-rendering:auto;text-rendering:auto;enable-background:accumulate" d="m 25.976562,972.36133 c -0.827659,0.0129 -1.488433,0.69381 -1.476562,1.52148 l 0,33.61329 c -4.243093,0.7199 -7.5,4.4242 -7.5,8.8652 0,4.441 3.257001,8.1433 7.5,8.8633 l 0,5.6152 c -0.02869,2.0285 3.028688,2.0285 3,0 l 0,-5.6152 c 4.242999,-0.72 7.5,-4.4223 7.5,-8.8633 0,-4.441 -3.256907,-8.1453 -7.5,-8.8652 l 0,-33.61329 c 0.01213,-0.84603 -0.67742,-1.5347 -1.523438,-1.52148 z M 26,1010.3613 c 3.331475,0 6,2.6686 6,6 0,3.3315 -2.668525,6 -6,6 -3.331475,0 -6,-2.6685 -6,-6 0,-3.3314 2.668525,-6 6,-6 z"></path></g></svg>