<svg height='100px' width='100px'  fill="#000000" xmlns="http://www.w3.org/2000/svg" xmlns:xlink="http://www.w3.org/1999/xlink" version="1.1" x="0px" y="0px" viewBox="0 0 24 24" style="enable-background:new 0 0 24 24;" xml:space="preserve"><g><path d="M21.2,10.664l-2.17-0.598c-0.025-0.009-0.072-0.053-0.09-0.097l-0.574-1.381c-0.01-0.024-0.007-0.087,0.003-0.108   l1.125-1.958c0.134-0.233,0.105-0.552-0.069-0.758c-0.012-0.014-0.291-0.342-0.538-0.589c-0.246-0.249-0.576-0.53-0.588-0.541   c-0.196-0.169-0.534-0.202-0.759-0.074l-1.958,1.112c-0.01,0.004-0.078,0.017-0.129-0.006L14.071,5.09   c-0.025-0.01-0.069-0.058-0.076-0.079l-0.589-2.245c-0.063-0.228-0.294-0.55-0.612-0.55h-1.544c-0.319,0-0.551,0.319-0.614,0.546   l-0.598,2.202c-0.009,0.029-0.055,0.086-0.099,0.106l-1.384,0.58c-0.009,0.004-0.104,0.002-0.109,0L6.491,4.53   c-0.224-0.129-0.56-0.098-0.758,0.068C5.719,4.61,5.391,4.888,5.147,5.136C4.893,5.385,4.613,5.715,4.599,5.731   C4.43,5.935,4.4,6.252,4.531,6.486l1.113,1.957C5.656,8.466,5.658,8.53,5.64,8.573L5.059,9.958c-0.01,0.023-0.054,0.065-0.08,0.074   L2.81,10.621c-0.262,0.068-0.47,0.324-0.485,0.613l-0.003,1.556c0.012,0.27,0.217,0.527,0.477,0.599l2.169,0.599   c0.024,0.009,0.07,0.052,0.088,0.097l0.576,1.385c0.01,0.024,0.008,0.085-0.003,0.106l-1.127,1.959   c-0.133,0.233-0.104,0.551,0.07,0.758c0.012,0.014,0.29,0.34,0.541,0.599c0.246,0.239,0.57,0.518,0.582,0.528   c0.196,0.171,0.535,0.203,0.758,0.074l1.958-1.11c0.013-0.007,0.084-0.019,0.133,0.003l1.385,0.579   c0.024,0.01,0.067,0.056,0.075,0.077l0.585,2.216c0.065,0.249,0.312,0.525,0.612,0.525h1.544c0.297,0,0.545-0.273,0.614-0.519   l0.601-2.191c0.009-0.025,0.052-0.077,0.099-0.097l1.382-0.578c0.01-0.004,0.105-0.002,0.11,0l1.952,1.124   c0.224,0.128,0.56,0.098,0.756-0.068c0.014-0.012,0.343-0.288,0.598-0.542c0.241-0.245,0.522-0.572,0.536-0.587   c0.173-0.205,0.203-0.523,0.071-0.756l-1.114-1.959c-0.011-0.024-0.013-0.088,0.006-0.132l0.577-1.382   c0.01-0.025,0.057-0.068,0.08-0.076l2.177-0.586c0.258-0.071,0.464-0.325,0.481-0.611l0.003-1.561   C21.666,10.994,21.461,10.736,21.2,10.664z M21.022,12.805l-2.178,0.586c-0.233,0.064-0.449,0.268-0.518,0.474l-0.56,1.341   c-0.107,0.212-0.099,0.516,0.018,0.724l1.114,1.972c-0.003,0.003-0.278,0.323-0.501,0.55c-0.234,0.232-0.553,0.5-0.568,0.504   l-1.952-1.125c-0.107-0.061-0.243-0.095-0.384-0.095c-0.087,0-0.216,0.013-0.32,0.065l-1.337,0.557   c-0.226,0.071-0.438,0.293-0.504,0.528l-0.6,2.199c-0.003,0.007-0.011,0.044-0.019,0.044h-1.478c-0.007,0-0.013-0.035-0.015-0.039   l-0.586-2.209c-0.062-0.228-0.27-0.454-0.474-0.522l-1.346-0.565c-0.206-0.102-0.513-0.096-0.721,0.019l-1.972,1.111   c-0.003-0.003-0.323-0.278-0.548-0.496c-0.229-0.236-0.502-0.557-0.506-0.571L6.196,15.9c0.119-0.208,0.127-0.513,0.029-0.702   l-0.558-1.34c-0.074-0.225-0.294-0.435-0.524-0.498l-2.169-0.584l0.003-1.524l2.168-0.588c0.231-0.059,0.454-0.267,0.523-0.473   l0.563-1.342c0.107-0.21,0.1-0.513-0.018-0.724l-1.11-1.96C5.101,6.157,5.102,6.13,5.099,6.13c0,0,0,0-0.001,0   c0.003,0,0.273-0.311,0.509-0.543c0.226-0.23,0.542-0.492,0.559-0.496l1.954,1.125c0.105,0.06,0.24,0.095,0.38,0.095   c0.088,0,0.218-0.013,0.324-0.066l1.338-0.561c0.249-0.08,0.445-0.338,0.502-0.543l0.598-2.204c0.005-0.017,0.024-0.067,0.04-0.067   h1.432c0.017,0,0.035,0.052,0.04,0.067l0.589,2.243c0.063,0.229,0.272,0.452,0.475,0.52l1.341,0.56   c0.124,0.062,0.253,0.075,0.34,0.075c0.141,0,0.277-0.034,0.383-0.094l1.971-1.111c0.003,0.003,0.323,0.275,0.549,0.505   c0.23,0.23,0.501,0.549,0.505,0.563l-1.126,1.959c-0.118,0.207-0.127,0.511-0.031,0.701l0.558,1.34   c0.074,0.223,0.294,0.432,0.524,0.497l2.171,0.583L21.022,12.805z"></path><path d="M11.997,8.673c-0.892,0-1.732,0.346-2.366,0.975c-0.636,0.632-0.988,1.474-0.989,2.371   c-0.002,0.896,0.345,1.741,0.979,2.379c0.637,0.635,1.483,0.984,2.381,0.984c0.893,0,1.733-0.346,2.365-0.975   c0.635-0.633,0.985-1.476,0.987-2.372c0.002-0.897-0.346-1.74-0.978-2.372C13.741,9.024,12.896,8.673,11.997,8.673z M13.907,13.944   c-0.509,0.506-1.186,0.785-1.905,0.785c-0.725,0-1.407-0.282-1.92-0.793c-0.51-0.514-0.79-1.194-0.788-1.917   c0.002-0.723,0.285-1.401,0.797-1.909c0.511-0.507,1.188-0.786,1.906-0.786c0.724,0,1.405,0.283,1.917,0.799   c0.51,0.51,0.789,1.188,0.788,1.91C14.7,12.756,14.418,13.434,13.907,13.944z"></path></g></svg>