<svg height='100px' width='100px'  fill="#FFFFFF" xmlns="http://www.w3.org/2000/svg" xmlns:xlink="http://www.w3.org/1999/xlink" version="1.1" x="0px" y="0px" viewBox="0 0 83 83" enable-background="new 0 0 83 83" xml:space="preserve"><circle cx="41.5" cy="41.5" r="14.5"></circle><circle cx="46.3" cy="8.4" r="5.2"></circle><circle cx="8.4" cy="36.7" r="5.2"></circle><circle cx="36.7" cy="74.6" r="5.2"></circle><circle cx="74.6" cy="46.3" r="5.2"></circle><path d="M67.4,50.8c-3.8,7.8-8.3,15.2-13.8,22.7c-0.6,0.7-1.9,1.2-3,1.2c-0.2,0-0.4,0-0.6-0.1c-1.7-0.6-3.3-1.1-5-1.7  c0.2,1,0.2,1.9,0.1,2.9c-0.2,1-0.5,2-1,2.9c1.4,0.5,2.7,1,4.1,1.4l0.1,0c0.7,0.2,1.5,0.3,2.3,0.3c2.9,0,5.9-1.3,7.5-3.4l0.1-0.1  c5.5-7.5,10-14.8,13.9-22.6C70.1,53.8,68.5,52.5,67.4,50.8z"></path><path d="M50.8,15.6c7.8,3.8,15.2,8.3,22.7,13.8c0.8,0.7,1.4,2.5,1.1,3.6c-0.6,1.7-1.1,3.3-1.7,5c0.6-0.1,1.1-0.2,1.7-0.2h0  c0.4,0,0.8,0,1.2,0.1c1.1,0.2,2,0.5,2.9,1c0.5-1.4,1-2.7,1.4-4.1l0-0.1c0.9-3.3-0.4-7.6-3.1-9.8L77,24.8c-7.5-5.5-14.8-10-22.6-13.9  C53.8,12.9,52.5,14.5,50.8,15.6z"></path><path d="M32.2,67.4C24.4,63.6,17,59.1,9.6,53.6c-0.8-0.7-1.4-2.5-1.1-3.6c0.6-1.7,1.1-3.3,1.7-5c-0.6,0.1-1.1,0.2-1.7,0.2  c-0.4,0-0.8,0-1.2-0.1c-1-0.2-2-0.5-2.9-1c-0.5,1.3-1,2.7-1.4,4.1l0,0.1c-0.9,3.3,0.4,7.6,3.1,9.8L6,58.2c7.5,5.5,14.8,10,22.6,13.9  C29.2,70.1,30.5,68.5,32.2,67.4z"></path><path d="M15.2,31.7c0.1,0.2,0.3,0.4,0.4,0.6c3.8-7.8,8.3-15.2,13.8-22.6c0.6-0.7,1.9-1.2,3-1.2c0.2,0,0.4,0,0.6,0.1  c1.7,0.6,3.3,1.1,5,1.7c-0.2-1-0.2-1.9-0.1-2.9c0.2-1,0.5-2,1-2.9c-1.4-0.5-2.7-1-4.1-1.4l-0.1,0c-0.7-0.2-1.5-0.3-2.3-0.3  c-2.9,0-5.9,1.3-7.5,3.4L24.8,6c-5.5,7.5-10,14.8-13.9,22.6C12.6,29.1,14.1,30.2,15.2,31.7z"></path></svg>