<svg height='100px' width='100px'  fill="#1b203f" xmlns:dc="http://purl.org/dc/elements/1.1/" xmlns:cc="http://creativecommons.org/ns#" xmlns:rdf="http://www.w3.org/1999/02/22-rdf-syntax-ns#" xmlns:svg="http://www.w3.org/2000/svg" xmlns="http://www.w3.org/2000/svg" xmlns:sodipodi="http://sodipodi.sourceforge.net/DTD/sodipodi-0.dtd" xmlns:inkscape="http://www.inkscape.org/namespaces/inkscape" version="1.1" x="0px" y="0px" viewBox="0 0 100 100"><g transform="translate(0,-952.36218)"><path style="text-indent:0;text-transform:none;direction:ltr;block-progression:tb;baseline-shift:baseline;color:#000000;enable-background:accumulate;" d="m 49.999998,953.36216 c -7.2062,0 -13.7539,1.59834 -18.6562,4.34375 -4.9026,2.7454 -8.3438,6.82518 -8.3438,11.65625 l 0,42.00004 c 0,4.8311 3.4412,8.8796 8.3438,11.625 4.441,2.4869 10.2486,4.0387 16.6562,4.3125 l 0,10.375 c -2.2375,0.6772 -4.0081,2.4509 -4.6875,4.6875 l -27.625,0 c -0.8728,-2.8729 -3.544,-5 -6.6875,-5 -3.8423,0 -7,3.1577 -7,7 0,3.8423 3.1577,7 7,7 3.1554,0 5.8564,-2.1106 6.7188,-5 l 27.5624,0 c 0.8624,2.8894 3.5634,5 6.7188,5 3.1554,0 5.8564,-2.1106 6.7188,-5 l 27.562404,0 c 0.8624,2.8894 3.5634,5 6.7188,5 3.8423,0 7,-3.1577 7,-7 0,-3.8423 -3.1577,-7 -7,-7 -3.1435,0 -5.8147,2.1271 -6.6875,5 l -27.625004,0 c -0.6794,-2.2366 -2.45,-4.0103 -4.6875,-4.6875 l 0,-10.375 c 6.4076,-0.2738 12.2153,-1.8256 16.6562,-4.3125 4.9026,-2.7454 8.343804,-6.7939 8.343804,-11.625 l 0,-42.00004 c 0,-4.83107 -3.441204,-8.91085 -8.343804,-11.65625 -4.9025,-2.7454 -11.45,-4.34375 -18.6562,-4.34375 z m 0,4 c 6.6009,0 12.5418,1.52215 16.6875,3.84375 4.1457,2.3216 6.3125,5.25532 6.3125,8.15625 0,2.90093 -2.1668,5.83465 -6.3125,8.15625 -4.1457,2.3216 -10.0866,3.84375 -16.6875,3.84375 -6.6009,0 -12.5418,-1.52215 -16.6875,-3.84375 -4.1457,-2.3216 -6.3125,-5.25532 -6.3125,-8.15625 0,-2.90093 2.1668,-5.83465 6.3125,-8.15625 4.1457,-2.3216 10.0866,-3.84375 16.6875,-3.84375 z m -23,20.4375 c 1.2416,1.19583 2.6977,2.26575 4.3438,3.1875 4.9025,2.74545 11.45,4.37505 18.6562,4.37505 7.2062,0 13.7539,-1.6296 18.6562,-4.37505 1.6461,-0.92175 3.1022,-1.99167 4.3438,-3.1875 l 0,5.56255 c 0,2.90089 -2.1668,5.8346 -6.3125,8.1562 -4.1457,2.3216 -10.0866,3.8438 -16.6875,3.8438 -6.6009,0 -12.5418,-1.5222 -16.6875,-3.8438 -4.1457,-2.3216 -6.3125,-5.25531 -6.3125,-8.1562 l 0,-5.56255 z m 0,14.00005 c 1.2416,1.19579 2.6977,2.2657 4.3438,3.1875 4.9025,2.7454 11.45,4.375 18.6562,4.375 7.2062,0 13.7539,-1.6296 18.6562,-4.375 1.6461,-0.9218 3.1022,-1.99171 4.3438,-3.1875 l 0,5.5625 c 0,2.90089 -2.1668,5.83459 -6.3125,8.15619 -4.1457,2.3216 -10.0866,3.8438 -16.6875,3.8438 -6.6009,0 -12.5418,-1.5222 -16.6875,-3.8438 -4.1457,-2.3216 -6.3125,-5.2553 -6.3125,-8.15619 l 0,-5.5625 z m 0,13.99999 c 1.2416,1.1958 2.6977,2.2657 4.3438,3.1875 4.9025,2.7454 11.45,4.375 18.6562,4.375 7.2062,0 13.7539,-1.6296 18.6562,-4.375 1.6461,-0.9218 3.1022,-1.9917 4.3438,-3.1875 l 0,5.5625 c 0,2.9009 -2.1668,5.8346 -6.3125,8.1562 -4.1457,2.3216 -10.0866,3.8438 -16.6875,3.8438 -6.6009,0 -12.5418,-1.5222 -16.6875,-3.8438 -4.1457,-2.3216 -6.3125,-5.2553 -6.3125,-8.1562 l 0,-5.5625 z m -18,35.5625 c 1.6805,0 3,1.3195 3,3 0,1.6805 -1.3195,3 -3,3 -1.6805,0 -3,-1.3195 -3,-3 0,-1.6805 1.3195,-3 3,-3 z m 41,0 c 1.6805,0 3,1.3195 3,3 0,1.6805 -1.3195,3 -3,3 -1.6805,0 -3,-1.3195 -3,-3 0,-1.6805 1.3195,-3 3,-3 z m 41.000004,0 c 1.6805,0 3,1.3195 3,3 0,1.6805 -1.3195,3 -3,3 -1.6805,0 -3,-1.3195 -3,-3 0,-1.6805 1.3195,-3 3,-3 z" fill="#1b203f" fill-opacity="1" stroke="none" marker="none" visibility="visible" display="inline" overflow="visible"></path></g></svg>