<svg height='100px' width='100px'  fill="#ffffff" xmlns="http://www.w3.org/2000/svg" xmlns:xlink="http://www.w3.org/1999/xlink" version="1.1" x="0px" y="0px" viewBox="0 0 512 512" style="enable-background:new 0 0 512 512;" xml:space="preserve"><g><g><g><g><g><path d="M260,380c-66.168,0-120-53.832-120-120s53.832-120,120-120s120,53.832,120,120S326.168,380,260,380z M260,160       c-55.14,0-100,44.86-100,100c0,55.141,44.86,100,100,100c55.141,0,100-44.859,100-100C360,204.86,315.141,160,260,160z"></path></g><g><path d="M260,332.174c-39.797,0-72.174-32.377-72.174-72.174s32.377-72.174,72.174-72.174s72.174,32.377,72.174,72.174       S299.797,332.174,260,332.174z M260,207.826c-28.769,0-52.174,23.405-52.174,52.174s23.405,52.174,52.174,52.174       s52.174-23.405,52.174-52.174S288.769,207.826,260,207.826z"></path></g><g><g><path d="M260,180c-5.523,0-10-4.477-10-10V60c0-5.523,4.477-10,10-10h70c5.522,0,10,4.477,10,10s-4.478,10-10,10h-60v100        C270,175.523,265.522,180,260,180z"></path></g><g><path d="M360,100c-22.056,0-40-17.944-40-40s17.944-40,40-40s40,17.944,40,40S382.056,100,360,100z M360,40        c-11.028,0-20,8.972-20,20s8.972,20,20,20s20-8.972,20-20S371.028,40,360,40z"></path></g></g><g><g><path d="M430,470h-70c-5.522,0-10-4.478-10-10V358.472l-51.644-8.607c-5.448-0.908-9.128-6.061-8.221-11.508        c0.909-5.447,6.061-9.125,11.508-8.221l60,10c4.822,0.804,8.356,4.976,8.356,9.864v100h60c5.522,0,10,4.478,10,10        S435.522,470,430,470z"></path></g><g><path d="M460,500c-22.056,0-40-17.944-40-40s17.944-40,40-40s40,17.944,40,40S482.056,500,460,500z M460,440        c-11.028,0-20,8.972-20,20s8.972,20,20,20s20-8.972,20-20S471.028,440,460,440z"></path></g></g><g><path d="M60,120c-22.056,0-40-17.944-40-40s17.944-40,40-40s40,17.944,40,40S82.056,120,60,120z M60,60       c-11.028,0-20,8.972-20,20s8.972,20,20,20s20-8.972,20-20S71.028,60,60,60z"></path></g><g><path d="M60,500c-22.056,0-40-17.944-40-40s17.944-40,40-40s40,17.944,40,40S82.056,500,60,500z M60,440       c-11.028,0-20,8.972-20,20s8.972,20,20,20s20-8.972,20-20S71.028,440,60,440z"></path></g><g><path d="M180.008,220.002c-3.668,0-7.2-2.025-8.952-5.53l-38.698-77.396l-47.503-28.502c-4.736-2.841-6.271-8.984-3.43-13.72       c2.841-4.736,8.985-6.271,13.72-3.43l50,30c1.631,0.979,2.949,2.401,3.799,4.103l40,80c2.47,4.94,0.468,10.947-4.472,13.417       C183.037,219.662,181.51,220.002,180.008,220.002z"></path></g><g><path d="M89.991,460.002c-4.584,0-8.717-3.172-9.752-7.833c-1.198-5.391,2.201-10.732,7.592-11.931l85.079-18.906       l37.953-85.394c2.243-5.047,8.152-7.318,13.2-5.076c5.047,2.242,7.32,8.152,5.077,13.199l-40,90       c-1.288,2.897-3.874,5.013-6.969,5.7l-90,20C91.439,459.924,90.709,460.002,89.991,460.002z"></path></g></g><g><path d="M430,270H260c-5.523,0-10-4.478-10-10c0-5.523,4.477-10,10-10h170c5.522,0,10,4.477,10,10      C440,265.522,435.522,270,430,270z"></path></g><g><path d="M460,300c-22.056,0-40-17.944-40-40c0-22.056,17.944-40,40-40s40,17.944,40,40C500,282.056,482.056,300,460,300z       M460,240c-11.028,0-20,8.972-20,20c0,11.028,8.972,20,20,20s20-8.972,20-20C480,248.972,471.028,240,460,240z"></path></g></g></g></g></svg>