<svg height='100px' width='100px' fill="#333333" xmlns="http://www.w3.org/2000/svg"
     xmlns:xlink="http://www.w3.org/1999/xlink" version="1.1" x="0px" y="0px" viewBox="0 0 512 512"
     enable-background="new 0 0 512 512" xml:space="preserve"><path d="M443.059,118.625c-0.062-2.375-1.141-4.688-3.016-6.359L330.293,2.562C328.574,0.922,326.34,0,323.98,0H92.863  C79.66,0,68.926,10.75,68.926,23.969v464.094C68.926,501.266,79.66,512,92.863,512h326.273c13.188,0,23.938-10.734,23.938-23.938  L443.059,118.625z M324.418,22.422l96.25,96.234h-96.25V22.422z M424.855,493.781H87.137V18.25h219.078v94.688  c0,13.188,10.734,23.938,23.922,23.938h94.719V493.781z"></path></svg>
