<svg height='100px' width='100px'  fill="#000000" xmlns="http://www.w3.org/2000/svg" data-name="Layer 2" viewBox="0 0 32 32" x="0px" y="0px"><title>file format document</title><path d="M27.35,7.65l-6-6A.47.47,0,0,0,21,1.5H6.43A1.94,1.94,0,0,0,4.5,3.43V13a.5.5,0,0,0,1,0V3.43a.93.93,0,0,1,.93-.93H20.5V8a.5.5,0,0,0,.5.5h5.5V28.57a.93.93,0,0,1-.93.93H6.43a.93.93,0,0,1-.93-.93V26a.5.5,0,0,0-1,0v2.57A1.94,1.94,0,0,0,6.43,30.5H25.57a1.94,1.94,0,0,0,1.93-1.93V8A.47.47,0,0,0,27.35,7.65ZM21.5,3.21,25.79,7.5H21.5Z"></path><rect x="2.5" y="14.5" width="21" height="10" rx="1.62"></rect></svg>