<svg height='100px' width='100px' fill="#000000" xmlns="http://www.w3.org/2000/svg" data-name="Layer 2"
     viewBox="0 0 32 32" x="0px" y="0px"><title>file format document</title>
  <path
    d="M27.35,7.65l-6-6A.47.47,0,0,0,21,1.5H6.43A1.94,1.94,0,0,0,4.5,3.43V13a.5.5,0,0,0,1,0V3.43a.93.93,0,0,1,.93-.93H20.5V8a.5.5,0,0,0,.5.5h5.5V28.57a.93.93,0,0,1-.93.93H6.43a.93.93,0,0,1-.93-.93V26a.5.5,0,0,0-1,0v2.57A1.94,1.94,0,0,0,6.43,30.5H25.57a1.94,1.94,0,0,0,1.93-1.93V8A.47.47,0,0,0,27.35,7.65ZM21.5,3.21,25.79,7.5H21.5Z"></path>
  <path
    d="M23.5,22.88V16.12a1.61,1.61,0,0,0-1.62-1.62H4.12A1.61,1.61,0,0,0,2.5,16.12v6.76A1.61,1.61,0,0,0,4.12,24.5H21.88A1.61,1.61,0,0,0,23.5,22.88ZM7,20.81a1.72,1.72,0,0,0,1.26.53A1.89,1.89,0,0,0,9,21.19a2.66,2.66,0,0,0,.68-.49l.57.58a2.61,2.61,0,0,1-2,.92,2.68,2.68,0,0,1-2-.76,2.77,2.77,0,0,1,0-3.86,2.75,2.75,0,0,1,2-.78,2.6,2.6,0,0,1,2,.9l-.56.61a2.24,2.24,0,0,0-.7-.5,1.87,1.87,0,0,0-.78-.14A1.86,1.86,0,0,0,7,18.18a1.7,1.7,0,0,0-.54,1.3A1.8,1.8,0,0,0,7,20.81Zm7.43,1a2.06,2.06,0,0,1-1.35.42,3.18,3.18,0,0,1-2.17-.84l.55-.67a2.49,2.49,0,0,0,1.64.69,1.14,1.14,0,0,0,.68-.18.57.57,0,0,0,.25-.49.54.54,0,0,0-.24-.47,2.37,2.37,0,0,0-.81-.3,8.31,8.31,0,0,1-.87-.26,1.73,1.73,0,0,1-.53-.3,1.25,1.25,0,0,1-.46-1.07,1.29,1.29,0,0,1,.53-1.12,2.11,2.11,0,0,1,1.3-.39,3.11,3.11,0,0,1,1,.16,2.59,2.59,0,0,1,.85.47l-.47.66a1.7,1.7,0,0,0-.63-.34,2.38,2.38,0,0,0-.78-.14,1.23,1.23,0,0,0-.63.16.52.52,0,0,0-.24.47.56.56,0,0,0,.24.49,4,4,0,0,0,1.05.36,2.91,2.91,0,0,1,1.21.54,1.31,1.31,0,0,1,.41,1A1.4,1.4,0,0,1,14.42,21.78Zm4,.36h-1l-2.09-5.21h1l1.61,3.89,1.6-3.89h1Z"></path>
</svg>
