<svg height='100px' width='100px'  fill="#000000" xmlns="http://www.w3.org/2000/svg" xmlns:xlink="http://www.w3.org/1999/xlink" version="1.1" x="0px" y="0px" viewBox="0 0 100 100" enable-background="new 0 0 100 100" xml:space="preserve"><g><path d="M91.333,25.354c0,3.325-2.695,6.021-6.021,6.021H14.688c-3.325,0-6.021-2.695-6.021-6.021l0,0   c0-3.325,2.695-6.021,6.021-6.021h70.625C88.638,19.333,91.333,22.029,91.333,25.354L91.333,25.354z"></path><path d="M81.333,50.657c0,3.325-2.695,6.021-6.021,6.021H24.688c-3.325,0-6.021-2.695-6.021-6.021l0,0   c0-3.325,2.695-6.021,6.021-6.021h50.625C78.638,44.636,81.333,47.332,81.333,50.657L81.333,50.657z"></path><path d="M66.333,75.959c0,3.325-2.695,6.021-6.021,6.021H39.688c-3.325,0-6.021-2.695-6.021-6.021l0,0   c0-3.325,2.695-6.021,6.021-6.021h20.625C63.638,69.938,66.333,72.634,66.333,75.959L66.333,75.959z"></path></g></svg>