<svg width="24" height="24" viewBox="0 0 24 24" fill="none" xmlns="http://www.w3.org/2000/svg">
<path d="M16.5 2C15.9477 2 15.5 2.44772 15.5 3C15.5 3.55228 15.9477 4 16.5 4H20V7.5C20 8.05228 20.4477 8.5 21 8.5C21.5523 8.5 22 8.05228 22 7.5V3C22 2.44772 21.5523 2 21 2H16.5Z" fill="#313D49" fill-opacity="0.9"/>
<path d="M22 16.5C22 15.9477 21.5523 15.5 21 15.5C20.4477 15.5 20 15.9477 20 16.5V20H16.5C15.9477 20 15.5 20.4477 15.5 21C15.5 21.5523 15.9477 22 16.5 22H21C21.5523 22 22 21.5523 22 21V16.5Z" fill="#313D49" fill-opacity="0.9"/>
<path d="M3 15.5C3.55228 15.5 4 15.9477 4 16.5V20H7.5C8.05228 20 8.5 20.4477 8.5 21C8.5 21.5523 8.05228 22 7.5 22H3C2.44772 22 2 21.5523 2 21V16.5C2 15.9477 2.44772 15.5 3 15.5Z" fill="#313D49" fill-opacity="0.9"/>
<path d="M3 2C2.44772 2 2 2.44772 2 3V7.5C2 8.05228 2.44772 8.5 3 8.5C3.55228 8.5 4 8.05228 4 7.5V4H7.5C8.05228 4 8.5 3.55228 8.5 3C8.5 2.44772 8.05228 2 7.5 2H3Z" fill="#313D49" fill-opacity="0.9"/>
</svg>
