<svg width="24" height="24" viewBox="0 0 24 24" fill="none" xmlns="http://www.w3.org/2000/svg">
<path fill-rule="evenodd" clip-rule="evenodd" d="M16.5 2C17.0523 2 17.5 2.44772 17.5 3V6.5H21C21.5523 6.5 22 6.94772 22 7.5C22 8.05228 21.5523 8.5 21 8.5H16.5C15.9477 8.5 15.5 8.05228 15.5 7.5V3C15.5 2.44772 15.9477 2 16.5 2Z" fill="#313D49" fill-opacity="0.9"/>
<path fill-rule="evenodd" clip-rule="evenodd" d="M7.5 2C8.05228 2 8.5 2.44772 8.5 3V7.5C8.5 8.05228 8.05228 8.5 7.5 8.5H3C2.44772 8.5 2 8.05228 2 7.5C2 6.94772 2.44772 6.5 3 6.5H6.5V3C6.5 2.44772 6.94772 2 7.5 2Z" fill="#313D49" fill-opacity="0.9"/>
<path fill-rule="evenodd" clip-rule="evenodd" d="M2 16.5C2 15.9477 2.44772 15.5 3 15.5H7.5C8.05228 15.5 8.5 15.9477 8.5 16.5V21C8.5 21.5523 8.05228 22 7.5 22C6.94772 22 6.5 21.5523 6.5 21V17.5H3C2.44772 17.5 2 17.0523 2 16.5Z" fill="#313D49" fill-opacity="0.9"/>
<path fill-rule="evenodd" clip-rule="evenodd" d="M15.5 16.5C15.5 15.9477 15.9477 15.5 16.5 15.5H20.9498C21.502 15.5 21.9498 15.9477 21.9498 16.5C21.9498 17.0523 21.502 17.5 20.9498 17.5H17.5V21C17.5 21.5523 17.0523 22 16.5 22C15.9477 22 15.5 21.5523 15.5 21V16.5Z" fill="#313D49" fill-opacity="0.9"/>
</svg>
