<svg height='100px' width='100px'  fill="#1b203f" xmlns="http://www.w3.org/2000/svg" xmlns:xlink="http://www.w3.org/1999/xlink" version="1.1" x="0px" y="0px" viewBox="0 0 512 512" style="enable-background:new 0 0 512 512;" xml:space="preserve"><g><g><g><g><path d="M182.957,410c-43.201,0-78.348-35.146-78.348-78.348v-90.87c0-2.209,1.791-4,4-4s4,1.791,4,4v90.87      c0,38.789,31.558,70.348,70.348,70.348s70.348-31.559,70.348-70.348V100.347c0-38.79-31.558-70.348-70.348-70.348      s-70.348,31.558-70.348,70.348v90.87c0,2.209-1.791,4-4,4s-4-1.791-4-4v-90.87c0-43.201,35.147-78.348,78.348-78.348      s78.348,35.147,78.348,78.348v231.305C261.305,374.854,226.158,410,182.957,410z"></path></g><g><path d="M182.956,376.956c-24.981,0-45.304-20.323-45.304-45.304v-90.87c0-2.209,1.791-4,4-4s4,1.791,4,4v90.87      c0,20.567,16.734,37.304,37.304,37.304c20.569,0,37.304-16.733,37.304-37.304V100.347c0-20.57-16.734-37.304-37.304-37.304      c-20.57,0-37.304,16.734-37.304,37.304v90.87c0,2.209-1.791,4-4,4s-4-1.791-4-4v-90.87c0-24.981,20.323-45.304,45.304-45.304      c24.98,0,45.304,20.323,45.304,45.304v231.305C228.26,356.633,207.937,376.956,182.956,376.956z"></path></g><g><path d="M339.913,195.217h-82.608c-2.208,0-4-1.791-4-4s1.791-4,4-4h82.608c2.209,0,4,1.791,4,4      S342.122,195.217,339.913,195.217z"></path></g><g><path d="M224.261,244.783H26c-2.209,0-4-1.791-4-4v-49.566c0-2.209,1.791-4,4-4h198.261c2.209,0,4,1.791,4,4s-1.791,4-4,4H30      v41.566h194.261c2.209,0,4,1.791,4,4S226.47,244.783,224.261,244.783z"></path></g><g><path d="M339.912,269.564c-0.609,0-1.222-0.142-1.788-0.422c-1.354-0.68-2.211-2.063-2.211-3.578v-20.782h-78.608      c-2.208,0-4-1.791-4-4s1.791-4,4-4h82.608c2.209,0,4,1.791,4,4v16.782L399.333,216l-55.42-41.565V216c0,2.209-1.791,4-4,4      s-4-1.791-4-4v-49.565c0-1.515,0.854-2.9,2.211-3.578c1.354-0.679,2.976-0.532,4.189,0.377L408.4,212.8      c1.007,0.755,1.6,1.941,1.6,3.2s-0.593,2.445-1.6,3.2l-66.088,49.563C341.607,269.294,340.763,269.564,339.912,269.564z"></path></g></g><g><path d="M486,490H346c-2.209,0-4-1.791-4-4V386c0-2.209,1.791-4,4-4h140c2.209,0,4,1.791,4,4v100     C490,488.209,488.209,490,486,490z M350,482h132v-92H350V482z"></path></g><g><path d="M466,390H366c-2.209,0-4-1.791-4-4v-50c0-29.775,24.225-54,54-54s54,24.225,54,54v50C470,388.209,468.209,390,466,390z      M370,382h92v-46c0-25.364-20.636-46-46-46s-46,20.636-46,46V382z"></path></g><g><path d="M416,460c-13.233,0-24-10.767-24-24s10.767-24,24-24s24,10.767,24,24S429.233,460,416,460z M416,420     c-8.822,0-16,7.178-16,16s7.178,16,16,16s16-7.178,16-16S424.822,420,416,420z"></path></g></g></g></svg>