<svg height='100px' width='100px'  fill="#1b203f" xmlns:dc="http://purl.org/dc/elements/1.1/" xmlns:cc="http://creativecommons.org/ns#" xmlns:rdf="http://www.w3.org/1999/02/22-rdf-syntax-ns#" xmlns:svg="http://www.w3.org/2000/svg" xmlns="http://www.w3.org/2000/svg" xmlns:sodipodi="http://sodipodi.sourceforge.net/DTD/sodipodi-0.dtd" xmlns:inkscape="http://www.inkscape.org/namespaces/inkscape" version="1.1" x="0px" y="0px" viewBox="0 0 100 100"><g transform="translate(0,-952.36218)"><path style="text-indent:0;text-transform:none;direction:ltr;block-progression:tb;baseline-shift:baseline;color:#000000;enable-background:accumulate;" d="m 50.009066,975.36218 c -19.231236,0 -35.744031,11.65391 -42.9152982,28.34372 a 1.0003109,1.0001 0 0 0 0.5001055,1.3125 l 13.5966167,6.25 a 1.0003109,1.0001 0 0 0 1.344034,-0.5312 c 4.027586,-9.6501 13.861134,-17.06371 24.598935,-18.40627 a 1.0003109,1.0001 0 1 0 -0.250053,-1.96875 c -11.136199,1.39237 -21.205724,8.77527 -25.755429,18.68752 l -11.7837347,-5.4063 c 3.1412157,-6.90154 7.9673797,-12.85004 13.9404387,-17.34372 l 2.93812,3.6875 a 1.0006991,1.0004882 0 1 0 1.562829,-1.25 l -2.875606,-3.625 c 6.891122,-4.71405 15.168247,-7.52165 24.098831,-7.71875 l 0,4.96875 a 1.0003109,1.0001 0 1 0 2.000421,0 l 0,-4.96875 c 8.930702,0.1971 17.206948,3.00472 24.098831,7.71875 l -2.875606,3.625 a 1.0006991,1.0004882 0 1 0 1.562829,1.25 l 2.938119,-3.6875 c 5.9736,4.49367 10.802131,10.4421 13.940439,17.34372 l -11.81499,5.4063 C 74.311325,999.14474 64.261354,991.75346 53.134725,990.36218 a 1.0003109,1.0001 0 1 0 -0.250053,1.96875 c 10.730703,1.34178 20.574668,8.75817 24.598936,18.40627 a 1.0003109,1.0001 0 0 0 1.312776,0.5312 l 13.627873,-6.25 a 1.0003109,1.0001 0 0 0 0.500106,-1.3125 C 85.75985,987.01632 69.240304,975.36218 50.009066,975.36218 z m -20.035474,37.96872 a 1.0003109,1.0001 0 0 0 -0.343823,1.9375 l 13.627873,5.3125 c -0.149524,0.5678 -0.250052,1.1675 -0.250052,1.7813 0,3.8542 3.146507,7 7.001476,7 3.854968,0 7.001476,-3.1458 7.001476,-7 0,-3.8541 -3.146522,-7 -7.001476,-7 -2.529814,0 -4.741113,1.3559 -5.970009,3.375 l -13.65913,-5.3125 a 1.0003109,1.0001 0 0 0 -0.406335,-0.094 z m 20.035474,4.0313 c 2.773855,0 5.001053,2.2268 5.001053,5 0,2.7733 -2.227212,5 -5.001053,5 -2.773841,0 -5.001055,-2.2267 -5.001055,-5 0,-2.7732 2.227199,-5 5.001055,-5 z" fill="#1b203f" fill-opacity="1" stroke="none" marker="none" visibility="visible" display="inline" overflow="visible"></path></g></svg>