<svg height='100px' width='100px'  fill="#000000" xmlns="http://www.w3.org/2000/svg" data-name="Layer 1" viewBox="0 0 1024 1024" x="0px" y="0px"><title>icon-01</title><path fill="#000000" d="M512 1024c-281.6 0-512-230.4-512-512s230.4-512 512-512 512 230.4 512 512-230.4 512-512 512z m0-938.666667c-234.666667 0-426.666667 192-426.666667 426.666667s192 426.666667 426.666667 426.666667 426.666667-192 426.666667-426.666667-192-426.666667-426.666667-426.666667z m0 725.333334c-25.6 0-42.666667-17.066667-42.666667-42.666667v-298.666667c0-25.6 17.066667-42.666667 42.666667-42.666666s42.666667 17.066667 42.666667 42.666666v298.666667c0 21.333333-17.066667 42.666667-42.666667 42.666667z m0-567.466667c25.6 0 46.933333 21.333333 46.933333 46.933333s-21.333333 46.933333-46.933333 46.933334-46.933333-21.333333-46.933333-46.933334 21.333333-46.933333 46.933333-46.933333z"></path></svg>