<svg height='100px' width='100px'  fill="#000000" xmlns="http://www.w3.org/2000/svg" viewBox="0 0 96 96" x="0px" y="0px"><title>Input</title><g data-name="Layer 2"><g><path d="M80.73,96H15.27A15.29,15.29,0,0,1,0,80.73V72.55a3,3,0,0,1,6,0v8.18A9.28,9.28,0,0,0,15.27,90H80.73A9.28,9.28,0,0,0,90,80.73V15.27A9.28,9.28,0,0,0,80.73,6H11.18A5.18,5.18,0,0,0,6,11.18v8.18a3,3,0,0,1-6,0V11.18A11.2,11.2,0,0,1,11.18,0H80.73A15.29,15.29,0,0,1,96,15.27V80.73A15.29,15.29,0,0,1,80.73,96Z"></path><path d="M57.83,45.88,42.41,30.46a3,3,0,0,0-4.24,4.25L48.46,45H3a3,3,0,0,0,0,6H48.46L38.17,61.29a3,3,0,0,0,4.24,4.25L57.83,50.12a3,3,0,0,0,0-4.24Z"></path></g></g></svg>