<svg height='100px' width='100px'  fill="#1b203f" xmlns="http://www.w3.org/2000/svg" xmlns:xlink="http://www.w3.org/1999/xlink" version="1.1" x="0px" y="0px" viewBox="0 0 100 100" enable-background="new 0 0 100 100" xml:space="preserve"><g><g><path d="M51.174,72.076c3.096,0,6.047-0.979,8.729-2.125c7.961-3.402,13.554-11.481,13.554-20.672    c0-8.912-5.268-16.739-12.845-20.307c-0.237-0.111-0.468-0.246-0.709-0.349c-2.556-1.086-5.736-1.512-8.501-1.639    c-4.428-0.202-8.716-1.01-12.104-4.11c-0.924-0.846-1.781-1.843-2.49-2.875h28.718c-2.062,3-4.742,4.626-7.805,5.772    c0.213,0.047,0.427,0.237,0.64,0.294c0.758,0.195,1.508,0.516,2.243,0.83c0.669,0.285,1.313,0.645,1.947,0.986    C69.073,23.985,73.456,16.886,73.456,9h-3.564c0,0.471-0.021,0.939-0.059,1.403c-0.008,0.085-0.021,0.169-0.03,0.255    c-0.038,0.386-0.08,0.771-0.149,1.172c-0.305,1.822-0.905,4.17-1.74,5.17H34.438c-1.256-2-1.981-5.152-1.981-8h-3.564    c0,8.732,5.375,16.328,13.08,19.831c0.16,0.072,0.312,0.155,0.474,0.223c2.031,0.869,4.218,1.315,6.504,1.481    c5.123,0.372,9.773,1.376,13.876,4.65c1.057,0.844,2.03,1.787,2.911,2.814H36.499c2.081-3,4.845-4.922,8.03-6.133    c-0.974-0.252-1.904-0.677-2.785-1.054c-0.6-0.257-1.183-0.6-1.753-0.896c-6.629,3.864-11.1,11.011-11.1,19.222    c0,8.569,4.866,16.006,11.978,19.732c0.292-0.139,0.577-0.293,0.875-0.419c1.205-0.517,2.519-0.882,3.905-1.301    C41.985,66.021,38.812,64,36.49,61h29.434c-3.427,4-8.752,7.034-14.75,7.034c-3.096,0-6.047,0.979-8.729,2.124    C34.484,73.561,28.892,81.195,28.892,91h3.564c0-3.234,0.777-7,2.132-9h33.155c1.37,2,2.148,5.747,2.148,9h3.564    c0-9.037-4.756-16.309-11.733-20.058c-0.37,0.181-0.737,0.365-1.119,0.528c-1.374,0.588-2.696,1.283-3.983,1.629    c3.421,1.029,6.422,2.9,8.705,5.9H36.946C40.38,75,45.475,72.076,51.174,72.076z M34.274,41h33.725c0.937,2,1.568,4,1.791,7    H32.549C32.761,45,33.357,43,34.274,41z M34.275,57c-0.916-2-1.518-4-1.728-6h37.26C69.609,53,69,55.216,68,57.143V57H34.275z"></path></g></g></svg>