<svg height='100px' width='100px'  fill="#1b203f" xmlns="http://www.w3.org/2000/svg" data-name="Layer 1" viewBox="0 0 100 100" x="0px" y="0px"><title>Noun_Project_100Icon_1px_grid</title><path d="M64.4,13.9a9.2,9.2,0,0,0-2.8,17.9,9.5,9.5,0,0,1-9.5,9H48.6a14.8,14.8,0,0,0-9.8,3.7V31.8a9.2,9.2,0,1,0-5.4,0V68.2a9.2,9.2,0,1,0,5.4,0V60.3a2.7,2.7,0,0,0,.2-1.1V55.8a9.5,9.5,0,0,1,9.5-9.5h3.5A15,15,0,0,0,67,31.9,9.2,9.2,0,0,0,64.4,13.9ZM36.1,19.4a3.7,3.7,0,1,1-3.7,3.7A3.7,3.7,0,0,1,36.1,19.4Zm0,61.2a3.7,3.7,0,1,1,3.7-3.7A3.7,3.7,0,0,1,36.1,80.6ZM64.4,26.9a3.7,3.7,0,1,1,3.7-3.7A3.7,3.7,0,0,1,64.4,26.9Z"></path></svg>