<svg height='100px' width='100px'  fill="#000000" xmlns="http://www.w3.org/2000/svg" version="1.1" viewBox="0 0 41 41" x="0px" y="0px"><title>more-1</title><path d="M20.5 2.293c-2.198 0-3.979 1.78-3.979 3.979s1.78 3.979 3.979 3.979c2.198 0 3.979-1.78 3.979-3.979s-1.78-3.979-3.979-3.979zM20.5 3.002c1.798 0 3.272 1.471 3.272 3.269s-1.473 3.272-3.272 3.272c-1.799 0-3.272-1.473-3.272-3.272s1.474-3.269 3.272-3.269zM20.5 16.521c-2.198 0-3.979 1.78-3.979 3.979s1.78 3.979 3.979 3.979c2.198 0 3.979-1.78 3.979-3.979s-1.78-3.979-3.979-3.979zM20.5 17.228c1.799 0 3.272 1.473 3.272 3.272s-1.473 3.272-3.272 3.272c-1.799 0-3.272-1.473-3.272-3.272s1.473-3.272 3.272-3.272zM20.5 30.75c-2.198 0-3.979 1.78-3.979 3.979s1.78 3.979 3.979 3.979c2.198 0 3.979-1.78 3.979-3.979s-1.78-3.979-3.979-3.979zM20.5 31.457c1.799 0 3.272 1.473 3.272 3.272s-1.474 3.269-3.272 3.269c-1.798 0-3.272-1.471-3.272-3.269s1.473-3.272 3.272-3.272z"></path></svg>