<!-- Downloaded from https://thenounproject.com/smashicons/collection/smashicons-arrows-outline/?i=319495 -->
<svg height='100px' width='100px' fill="#DD8902" xmlns="http://www.w3.org/2000/svg"
     xmlns:xlink="http://www.w3.org/1999/xlink" version="1.1" x="0px" y="0px" viewBox="0 0 54 42"
     enable-background="new 0 0 54 42" xml:space="preserve"><g><path d="M24.92,21.38c0.1-0.24,0.1-0.52,0-0.76c-0.05-0.12-0.12-0.23-0.22-0.33l-9-9c-0.39-0.39-1.02-0.39-1.41,0   s-0.39,1.02,0,1.41L21.59,20H11c-4.96,0-9-4.04-9-9s4.04-9,9-9h32c0.55,0,1-0.45,1-1s-0.45-1-1-1H11C4.93,0,0,4.93,0,11   s4.93,11,11,11h10.59l-7.29,7.29c-0.39,0.39-0.39,1.02,0,1.41C14.49,30.9,14.74,31,15,31s0.51-0.1,0.71-0.29l9-9   C24.8,21.62,24.87,21.5,24.92,21.38z"></path><path
  d="M31,40h-2c-0.55,0-1,0.45-1,1s0.45,1,1,1h2c0.55,0,1-0.45,1-1S31.55,40,31,40z"></path><path
  d="M25,40h-2c-0.55,0-1,0.45-1,1s0.45,1,1,1h2c0.55,0,1-0.45,1-1S25.55,40,25,40z"></path><path
  d="M37,40h-2c-0.55,0-1,0.45-1,1s0.45,1,1,1h2c0.55,0,1-0.45,1-1S37.55,40,37,40z"></path><path
  d="M19,40h-2c-0.55,0-1,0.45-1,1s0.45,1,1,1h2c0.55,0,1-0.45,1-1S19.55,40,19,40z"></path><path
  d="M13,40h-2c-0.55,0-1,0.45-1,1s0.45,1,1,1h2c0.55,0,1-0.45,1-1S13.55,40,13,40z"></path><path
  d="M53.71,28.5c-0.13-0.54-0.67-0.87-1.2-0.74c-0.54,0.13-0.87,0.67-0.74,1.2c0.14,0.58,0.21,1.18,0.23,1.78   c0.02,0.54,0.46,0.97,1,0.97c0.01,0,0.02,0,0.03,0c0.55-0.02,0.99-0.48,0.97-1.03C53.97,29.94,53.88,29.21,53.71,28.5z"></path><path
  d="M51.67,25.92c0.45-0.33,0.54-0.95,0.22-1.4c-0.43-0.59-0.92-1.14-1.46-1.63c-0.41-0.37-1.04-0.34-1.41,0.06   c-0.37,0.41-0.35,1.04,0.06,1.41c0.44,0.41,0.85,0.86,1.2,1.34c0.2,0.27,0.5,0.41,0.81,0.41C51.28,26.12,51.49,26.06,51.67,25.92z"></path><path
  d="M46.34,22.58c0.41,0,0.8-0.25,0.94-0.66c0.19-0.52-0.08-1.09-0.6-1.28c-0.69-0.25-1.41-0.42-2.13-0.53   c-0.55-0.07-1.05,0.3-1.13,0.85c-0.08,0.55,0.3,1.05,0.85,1.13c0.59,0.08,1.18,0.23,1.74,0.43C46.12,22.56,46.23,22.58,46.34,22.58   z"></path><path
  d="M52.68,33.69c-0.51-0.2-1.09,0.05-1.3,0.57c-0.22,0.56-0.49,1.09-0.82,1.6c-0.3,0.46-0.17,1.08,0.3,1.38   c0.17,0.11,0.36,0.16,0.54,0.16c0.33,0,0.65-0.16,0.84-0.46c0.4-0.62,0.73-1.27,1-1.95C53.45,34.47,53.2,33.89,52.68,33.69z"></path><path
  d="M48.07,38.42c-0.5,0.34-1.02,0.63-1.57,0.87c-0.51,0.22-0.75,0.8-0.53,1.31c0.16,0.38,0.53,0.61,0.92,0.61   c0.13,0,0.26-0.03,0.39-0.08c0.67-0.29,1.32-0.64,1.92-1.06c0.46-0.31,0.57-0.94,0.26-1.39C49.15,38.22,48.53,38.11,48.07,38.42z"></path><path
  d="M43,40h-2c-0.55,0-1,0.45-1,1s0.45,1,1,1h2c0.55,0,1-0.45,1-1S43.55,40,43,40z"></path><path
  d="M35,21c0-0.55-0.45-1-1-1h-2c-0.55,0-1,0.45-1,1s0.45,1,1,1h2C34.55,22,35,21.55,35,21z"></path><path
  d="M41,21c0-0.55-0.45-1-1-1h-2c-0.55,0-1,0.45-1,1s0.45,1,1,1h2C40.55,22,41,21.55,41,21z"></path><path
  d="M29,27V15c0-0.55-0.45-1-1-1s-1,0.45-1,1v12c0,0.55,0.45,1,1,1S29,27.55,29,27z"></path></g></svg>
