<!-- downloaded from https://thenounproject.com/term/no-results/385145/ -->
<svg height='100px' width='100px' fill="#7d73b1" xmlns="http://www.w3.org/2000/svg"
     xmlns:xlink="http://www.w3.org/1999/xlink" viewBox="0 0 100 100" version="1.1" x="0px" y="0px">
  <g stroke="none" stroke-width="1" fill="none" fill-rule="evenodd">
    <path
      d="M13,41.375 C13,47.758 15.12,53.655 18.691,58.401 L58.4,18.692 C53.654,15.121 47.758,13 41.375,13 C25.729,13 13,25.729 13,41.375 L13,41.375 Z M11.331,75.419 C10.768,75.419 10.21,75.289 9.688,75.054 C9.26,74.86 8.854,74.599 8.502,74.247 C6.94,72.685 6.94,70.153 8.502,68.59 L12.986,64.106 C7.993,57.878 5,49.978 5,41.375 C5,21.286 21.285,5 41.375,5 C49.978,5 57.878,7.994 64.105,12.987 L68.589,8.503 C70.152,6.941 72.684,6.941 74.247,8.503 C74.599,8.855 74.86,9.261 75.053,9.69 C75.718,11.162 75.456,12.95 74.247,14.16 L14.159,74.247 C13.378,75.028 12.355,75.419 11.331,75.419 L11.331,75.419 Z M93.825,88.169 C95.387,89.731 95.387,92.263 93.825,93.826 C93.044,94.607 92.021,94.997 90.997,94.997 C89.973,94.997 88.949,94.607 88.168,93.826 L64.105,69.763 C57.878,74.756 49.978,77.75 41.375,77.75 C36.973,77.75 32.756,76.964 28.853,75.529 C26.153,74.537 25.442,71.036 27.476,69.002 L27.513,68.965 C28.627,67.85 30.282,67.532 31.764,68.069 C35.807,69.531 40.271,70.103 44.925,69.531 C57.699,67.962 67.961,57.701 69.53,44.927 C70.102,40.273 69.531,35.808 68.068,31.765 C67.532,30.283 67.85,28.628 68.965,27.513 L69.001,27.477 C71.035,25.443 74.536,26.154 75.529,28.854 C76.963,32.757 77.749,36.974 77.749,41.375 C77.749,49.978 74.756,57.878 69.762,64.106 L93.825,88.169 Z"
      fill="#7d73b1"></path>
  </g>
</svg>
