<svg height='100px' width='100px'  fill="#000000" xmlns="http://www.w3.org/2000/svg" viewBox="0 0 96 96" x="0px" y="0px"><title>Output</title><g data-name="Layer 2"><g><path d="M80.73,96H15.27A15.29,15.29,0,0,1,0,80.73V15.27A15.29,15.29,0,0,1,15.27,0H84.82A11.2,11.2,0,0,1,96,11.18v8.18a3,3,0,0,1-6,0V11.18A5.18,5.18,0,0,0,84.82,6H15.27A9.28,9.28,0,0,0,6,15.27V80.73A9.28,9.28,0,0,0,15.27,90H80.73A9.28,9.28,0,0,0,90,80.73V72.55a3,3,0,0,1,6,0v8.18A15.29,15.29,0,0,1,80.73,96Z"></path><path d="M94.65,45.88,79.23,30.46A3,3,0,0,0,75,34.71L85.28,45H39.82a3,3,0,1,0,0,6H85.28L75,61.29a3,3,0,0,0,4.24,4.25L94.65,50.12a3,3,0,0,0,0-4.24Z"></path></g></g></svg>