<svg height='100px' width='100px'  fill="#ffffff" xmlns="http://www.w3.org/2000/svg" xmlns:xlink="http://www.w3.org/1999/xlink" version="1.1" x="0px" y="0px" viewBox="0 0 80 80" style="enable-background:new 0 0 80 80;" xml:space="preserve"><path d="M11.6572266,62.2271118c2.5673828,0,4.65625-2.0888672,4.65625-4.65625v-1.1699219h12.4462891v0.1953125  c0,1.4306641,1.1630859,2.59375,2.59375,2.59375h17.2314453c1.4306641,0,2.59375-1.1630859,2.59375-2.59375v-0.1953125H63.6875  v1.1699219c0,2.5673828,2.0888672,4.65625,4.65625,4.65625S73,60.1382446,73,57.5708618V38.3892212  c0-2.5673828-2.0888672-4.65625-4.65625-4.65625s-4.65625,2.0888672-4.65625,4.65625v1.1708984H51.1787109v-0.1953125  c0-1.4306641-1.1630859-2.59375-2.59375-2.59375h-0.4277344v-3.1308594c0-0.7626953-0.6201172-1.3828125-1.3818359-1.3828125  h-2.5361328v-6.3257446l7.0576172,0.6587524c0.1357422,0.0126953,0.2714844,0.0185547,0.4072266,0.0185547  c1.0957031,0,2.1640625-0.4091797,2.9794922-1.1533203c0.9169922-0.8349609,1.4423828-2.0253906,1.4423828-3.2646484  c0-1.2402344-0.5253906-2.4296875-1.4423828-3.2646484c-0.9160156-0.8359375-2.1523438-1.2490234-3.3867188-1.1347656  l-8.0576172,0.7558594l-6.3857422,0.0039063l-8.1503906-0.7597656c-1.2294922-0.1132813-2.46875,0.2988281-3.3857422,1.1337891  S23.875,20.9507446,23.875,22.190979s0.5253906,2.4296875,1.4423828,3.265625  c0.9179688,0.8349609,2.1552734,1.2490234,3.3857422,1.1337891l7.0576172-0.6590576v6.3260498h-2.5351563  c-0.7617188,0-1.3818359,0.6201172-1.3818359,1.3828125v3.1308594h-0.4902344c-1.4306641,0-2.59375,1.1630859-2.59375,2.59375  v0.1953125H16.3134766v-1.1708984c0-2.5673828-2.0888672-4.65625-4.65625-4.65625C9.0888672,33.7329712,7,35.8218384,7,38.3892212  v19.1816406C7,60.1382446,9.0888672,62.2271118,11.6572266,62.2271118z M65.6875,38.3892212  c0-1.4648438,1.1914063-2.65625,2.65625-2.65625S71,36.9243774,71,38.3892212v19.1816406  c0,1.4648438-1.1914063,2.65625-2.65625,2.65625s-2.65625-1.1914063-2.65625-2.65625v-2.1699219V40.5601196V38.3892212z   M63.6875,41.5601196v12.8408203H51.1787109V41.5601196H63.6875z M28.5175781,24.5982056  c-0.6845703,0.0683594-1.34375-0.15625-1.8535156-0.6201172C26.1552734,23.5142212,25.875,22.8794556,25.875,22.190979  s0.2802734-1.3232422,0.7890625-1.7871094c0.5097656-0.4628906,1.1611328-0.6884766,1.8535156-0.6201172l8.2431641,0.7636719  l6.5712891-0.0039063l8.1503906-0.7597656c0.6992188-0.0683594,1.3447266,0.1572266,1.8544922,0.6201172  c0.5087891,0.4638672,0.7890625,1.0986328,0.7890625,1.7871094s-0.2802734,1.3232422-0.7890625,1.7871094  s-1.15625,0.6894531-1.8544922,0.6201172l-8.2431641-0.7646484h-6.4785156c-0.03125,0-0.0625,0.0009766-0.0927734,0.0039063  L28.5175781,24.5982056z M37.7607422,25.8335571h4.4785156v6.4238281h-4.4785156V25.8335571z M33.84375,34.2573853h2.9169922  h6.4785156h2.9179688v2.5136719H33.84375V34.2573853z M30.7597656,39.3648071c0-0.3271484,0.2666016-0.59375,0.59375-0.59375  H32.84375h14.3134766h1.4277344c0.3271484,0,0.59375,0.2666016,0.59375,0.59375v1.1953125v14.8408203v1.1953125  c0,0.3271484-0.2666016,0.59375-0.59375,0.59375H31.3535156c-0.3271484,0-0.59375-0.2666016-0.59375-0.59375v-1.1953125V40.5601196  V39.3648071z M28.7597656,41.5601196v12.8408203H16.3134766V41.5601196H28.7597656z M9,38.3892212  c0-1.4648438,1.1923828-2.65625,2.6572266-2.65625s2.65625,1.1914063,2.65625,2.65625v2.0256348  c-0.0075073,0.0494385-0.0292969,0.09375-0.0292969,0.1452637v14.8408203c0,0.0515137,0.0217896,0.0957642,0.0292969,0.1452026  v2.0247192c0,1.4648438-1.1914063,2.65625-2.65625,2.65625S9,59.0357056,9,57.5708618V38.3892212z"></path></svg>