<svg height='100px' width='100px'  fill="#ffffff" xmlns:x="http://ns.adobe.com/Extensibility/1.0/" xmlns:i="http://ns.adobe.com/AdobeIllustrator/10.0/" xmlns:graph="http://ns.adobe.com/Graphs/1.0/" xmlns="http://www.w3.org/2000/svg" xmlns:xlink="http://www.w3.org/1999/xlink" version="1.1" x="0px" y="0px" viewBox="0 0 100 100" style="enable-background:new 0 0 100 100;" xml:space="preserve"><g><g i:extraneous="self"><g><path d="M5273.1,2400.1v-2c0-2.8-5-4-9.7-4s-9.7,1.3-9.7,4v2c0,1.8,0.7,3.6,2,4.9l5,4.9c0.3,0.3,0.4,0.6,0.4,1v6.4     c0,0.4,0.2,0.7,0.6,0.8l2.9,0.9c0.5,0.1,1-0.2,1-0.8v-7.2c0-0.4,0.2-0.7,0.4-1l5.1-5C5272.4,2403.7,5273.1,2401.9,5273.1,2400.1z      M5263.4,2400c-4.8,0-7.4-1.3-7.5-1.8v0c0.1-0.5,2.7-1.8,7.5-1.8c4.8,0,7.3,1.3,7.5,1.8C5270.7,2398.7,5268.2,2400,5263.4,2400z"></path><path d="M5268.4,2410.3c-0.6,0-1,0.4-1,1c0,0.6,0.4,1,1,1h4.3c0.6,0,1-0.4,1-1c0-0.6-0.4-1-1-1H5268.4z"></path><path d="M5272.7,2413.7h-4.3c-0.6,0-1,0.4-1,1c0,0.6,0.4,1,1,1h4.3c0.6,0,1-0.4,1-1C5273.7,2414.1,5273.3,2413.7,5272.7,2413.7z"></path><path d="M5272.7,2417h-4.3c-0.6,0-1,0.4-1,1c0,0.6,0.4,1,1,1h4.3c0.6,0,1-0.4,1-1C5273.7,2417.5,5273.3,2417,5272.7,2417z"></path></g><path d="M81.1,81.8l0-7c0-2.7-1.3-5.2-3.4-6.7c-7.3-5.2-15.9-8.2-24.8-8.8V48.9c11.5-1.4,20.5-11.1,20.5-23    C73.3,12.9,62.9,2.5,50,2.5S26.7,12.9,26.7,25.8c0,11.9,9,21.6,20.5,23v10.4c-8.9,0.5-17.5,3.5-24.8,8.8c-2.2,1.5-3.4,4-3.4,6.7v7    c-3.1,1.1-5.3,4.1-5.3,7.6c0,4.5,3.6,8.1,8.1,8.1s8.1-3.6,8.1-8.1c0-3.5-2.2-6.4-5.3-7.6v-7c0-0.8,0.4-1.6,1.1-2.1    c6.4-4.6,13.8-7.2,21.5-7.7v16.9c-3.1,1.1-5.3,4.1-5.3,7.6c0,4.5,3.6,8.1,8.1,8.1s8.1-3.6,8.1-8.1c0-3.5-2.2-6.4-5.3-7.6V64.9    c7.8,0.5,15.2,3.1,21.5,7.7c0.7,0.5,1.1,1.3,1.1,2.1l0,7c-3.1,1.1-5.3,4.1-5.3,7.6c0,4.5,3.6,8.1,8.1,8.1s8.1-3.6,8.1-8.1    C86.4,85.9,84.2,83,81.1,81.8z M50.4,39.2c-1.6,0-2.8-1.3-2.8-2.8c0-1.6,1.3-2.8,2.8-2.8c1.6,0,2.8,1.3,2.8,2.8    C53.2,38,51.9,39.2,50.4,39.2z M46,20.4c-0.1,0.6-0.6,1.1-1.3,1.1h-2c-0.8,0-1.4-0.7-1.3-1.5c0.6-3.9,3.3-7.6,8.7-7.6    c3.4,0,6.3,1.7,7.7,4.5c1.3,2.6,1.1,5.7-0.6,8c-1.1,1.5-2.2,2.3-3,2.9c-0.9,0.6-1.3,0.9-1.4,2.4c0,0.7-0.6,1.2-1.3,1.2h-2    c-0.8,0-1.4-0.7-1.3-1.4c0.3-3.5,1.7-4.8,3.4-6c0.7-0.5,1.3-0.9,2-1.8c0.7-0.9,0.7-2.1,0.2-3.2c-0.4-0.7-1.3-1.9-3.6-1.9    C47.1,17.1,46.2,18.9,46,20.4z"></path></g></g></svg>