<svg height='100px' width='100px'  fill="#000000" xmlns="http://www.w3.org/2000/svg" xmlns:xlink="http://www.w3.org/1999/xlink" version="1.1" x="0px" y="0px" viewBox="0 0 100 100" style="enable-background:new 0 0 100 100;" xml:space="preserve"><path d="M89.9,75.3c-1.6,2.4-3.5,4.7-5.6,6.8C76,90.4,65,95,53.4,95c-11.7,0-22.7-4.6-30.9-12.8C14.2,73.9,9.6,62.9,9.6,51.3  c0-11.7,4.6-22.7,12.8-30.9c8.3-8.3,19.2-12.8,30.9-12.8c9.8,0,19.1,3.2,26.7,9.1l-1.1-8.2c-0.2-1.6,0.9-3.2,2.6-3.4  c1.6-0.2,3.2,0.9,3.4,2.6L87,23.3c0.1,1.1-0.3,2.1-1.1,2.7c-0.5,0.4-1.1,0.7-1.7,0.8l-15.4,1.5c-0.1,0-0.2,0-0.3,0  c-1.5,0-2.8-1.2-3-2.7c-0.2-1.6,1-3.1,2.7-3.3l8.4-0.8c-6.6-5.2-14.7-8-23.2-8c-10.1,0-19.6,3.9-26.7,11.1  c-7.1,7.1-11.1,16.6-11.1,26.7c0,10.1,3.9,19.6,11.1,26.7S43.3,89,53.4,89c10.1,0,19.6-3.9,26.7-11.1c1.8-1.8,3.4-3.8,4.8-5.9  c0.9-1.4,2.8-1.8,4.2-0.8C90.4,72.1,90.8,74,89.9,75.3z"></path></svg>