<svg height='100px' width='100px'  fill="#000000" xmlns="http://www.w3.org/2000/svg" xmlns:xlink="http://www.w3.org/1999/xlink" version="1.1" x="0px" y="0px" viewBox="0 0 100 100" style="enable-background:new 0 0 100 100;" xml:space="preserve"><path d="M88.9,80.7c0,0-0.1-0.1-0.1-0.1L67.5,59.3c3.7-5.3,5.6-11.6,5.6-18c0-17.5-14.3-31.8-31.8-31.8  C23.8,9.5,9.5,23.8,9.5,41.3s14.3,31.8,31.8,31.8c6.4,0,12.7-2,18-5.6l21.3,21.3c2.2,2.3,5.9,2.4,8.2,0.1C91,86.7,91.1,83,88.9,80.7  z M41.3,64.5c-12.8,0-23.2-10.4-23.2-23.2s10.4-23.2,23.2-23.2c12.8,0,23.2,10.4,23.2,23.2S54.1,64.5,41.3,64.5z"></path></svg>