<svg height='100px' width='100px'  fill="#ffffff" xmlns:x="http://ns.adobe.com/Extensibility/1.0/" xmlns:i="http://ns.adobe.com/AdobeIllustrator/10.0/" xmlns:graph="http://ns.adobe.com/Graphs/1.0/" xmlns="http://www.w3.org/2000/svg" xmlns:xlink="http://www.w3.org/1999/xlink" version="1.1" x="0px" y="0px" viewBox="0 0 100 100" style="enable-background:new 0 0 100 100;" xml:space="preserve"><g><g i:extraneous="self"><g><path d="M50,2.5l-41,9v24.1c0,19.9,9.5,38.7,25.5,50.5L50,97.5l15.5-11.4C81.5,74.4,91,55.5,91,35.6V11.5L50,2.5z M84.1,35.6     c0,17.6-8.5,34.4-22.7,44.9L50,88.9l-11.4-8.4C24.4,70.1,15.9,53.3,15.9,35.6V17.1L50,9.6l34.1,7.5V35.6z"></path><path d="M39.3,34.3v5.3h-2.7c-1,0-1.9,0.8-1.9,1.9v18.2c0,1,0.8,1.9,1.9,1.9h26.8c1,0,1.9-0.8,1.9-1.9V41.5c0-1-0.8-1.9-1.9-1.9     h-2.7v-5.3c0-5.9-4.8-10.7-10.7-10.7S39.3,28.4,39.3,34.3z M52.3,54.8c0.2,0.6-0.3,1.2-0.9,1.2h-2.8c-0.6,0-1.1-0.6-0.9-1.2     l0.9-3.4c-1.1-0.5-1.8-1.6-1.8-2.9c0-1.8,1.5-3.2,3.2-3.2c1.8,0,3.2,1.5,3.2,3.2c0,1.3-0.7,2.3-1.8,2.9L52.3,54.8z M55.4,34.3     v5.3H44.6v-5.3c0-3,2.4-5.4,5.4-5.4C53,28.9,55.4,31.4,55.4,34.3z"></path></g></g></g></svg>