<svg xmlns="http://www.w3.org/2000/svg" xmlns:xlink="http://www.w3.org/1999/xlink" width="100" height="100" viewBox="0 0 100 100"><g transform="translate(50 50) scale(0.69 0.69) rotate(90) translate(-50 -50)" style="fill:#1b203f"><svg fill="#1b203f" xmlns="http://www.w3.org/2000/svg" xmlns:xlink="http://www.w3.org/1999/xlink" version="1.1" x="0px" y="0px" viewBox="0 0 64 64" enable-background="new 0 0 64 64" xml:space="preserve"><g><path d="M28,11v42c0,0.552-0.448,1-1,1s-1-0.448-1-1V25H15c-0.397,0-0.757-0.235-0.916-0.599c-0.159-0.364-0.088-0.787,0.181-1.079   l12-13c0.279-0.304,0.715-0.404,1.099-0.253C27.748,10.219,28,10.588,28,11z M49.916,39.599C49.757,39.235,49.397,39,49,39H38V11   c0-0.552-0.448-1-1-1s-1,0.448-1,1v42c0,0.412,0.252,0.781,0.636,0.931C36.754,53.978,36.877,54,37,54   c0.273,0,0.542-0.112,0.735-0.322l12-13C50.004,40.386,50.075,39.963,49.916,39.599z"></path></g></svg></g></svg>