<svg height='100px' width='100px'  fill="#000000" xmlns="http://www.w3.org/2000/svg" xmlns:xlink="http://www.w3.org/1999/xlink" version="1.1" x="0px" y="0px" viewBox="0 0 100 100" enable-background="new 0 0 100 100" xml:space="preserve"><path d="M83,14H18c-2.2,0-4,1.8-4,4v64c0,2.2,1.8,4,4,4h65c2.2,0,4-1.8,4-4V18C87,15.8,85.2,14,83,14z M84,49H52V35h32V49z M49,49  H17V35h32V49z M17,52h32v14H17V52z M52,52h32v14H52V52z M84,18v14H52V17h31C83.542,17,84,17.458,84,18z M18,17h31v15H17V18  C17,17.458,17.458,17,18,17z M17,82V69h32v14H18C17.458,83,17,82.542,17,82z M83,83H52V69h32v13C84,82.542,83.542,83,83,83z"></path></svg>