<?xml version="1.0" encoding="UTF-8"?>
<svg width="100pt" height="100pt" version="1.1" viewBox="0 0 100 100" xmlns="http://www.w3.org/2000/svg">
 <path d="m93.02 28.441h-12.34c-3.4219 0-6.1992 2.7812-6.1992 6.1992v12.18h-12.02v-12.18c0-3.4219-2.7812-6.1992-6.1992-6.1992h-12.34c-3.4219 0-6.1992 2.7812-6.1992 6.1992v12.18h-0.019531-12.18v-12.18c0-3.4219-2.7812-6.1992-6.1992-6.1992h-12.344c-3.4219 0-6.1992 2.7812-6.1992 6.1992v12.34c0 3.4219 2.7812 6.1992 6.1992 6.1992h12.18v12.18c0 3.4219 2.7812 6.1992 6.1992 6.1992h12.34c3.4219 0 6.1992-2.7812 6.1992-6.1992v-12.18h0.019531 12.18v12.18c0 3.4219 2.7812 6.1992 6.1992 6.1992h12.34c3.4219 0 6.1992-2.7812 6.1992-6.1992v-12.18h12.18c3.4219 0 6.1992-2.7812 6.1992-6.1992v-12.34c0.003906-3.4219-2.7734-6.1992-6.1953-6.1992z" fill="#FFFFFF"/>
</svg>
