<svg height='100px' width='100px'  fill="#000000" xmlns="http://www.w3.org/2000/svg" xmlns:xlink="http://www.w3.org/1999/xlink" version="1.1" x="0px" y="0px" viewBox="0 0 100 100" enable-background="new 0 0 100 100" xml:space="preserve"><path d="M54,60h32c2.2,0,4-1.8,4-4V41c0-2.2-1.8-4-4-4H54c-2.2,0-4,1.8-4,4v6H30V34h15c2.2,0,4-1.8,4-4V15c0-2.2-1.8-4-4-4H13  c-2.2,0-4,1.8-4,4v15c0,2.2,1.8,4,4,4h14v43.5c0,0.395,0.16,0.781,0.439,1.061S28.105,79,28.5,79H50v6c0,2.2,1.8,4,4,4h32  c2.2,0,4-1.8,4-4V70c0-2.2-1.8-4-4-4H54c-2.2,0-4,1.8-4,4v6H30V50h20v6C50,58.2,51.8,60,54,60z M12,30V15c0-0.542,0.458-1,1-1h32  c0.542,0,1,0.458,1,1v15c0,0.542-0.458,1-1,1H13C12.458,31,12,30.542,12,30z M53,70c0-0.542,0.458-1,1-1h32c0.542,0,1,0.458,1,1v15  c0,0.542-0.458,1-1,1H54c-0.542,0-1-0.458-1-1V70z M53,41c0-0.542,0.458-1,1-1h32c0.542,0,1,0.458,1,1v15c0,0.542-0.458,1-1,1H54  c-0.542,0-1-0.458-1-1V41z"></path></svg>