<?xml version="1.0" encoding="UTF-8"?>
<svg width="1200pt" height="1200pt" version="1.1" viewBox="0 0 1200 1200" xmlns="http://www.w3.org/2000/svg">
 <g fill="#1a203e">
  <path d="m456 558c9.6016-9.6016 9.6016-24 0-33.602-9.6016-9.6016-24-9.6016-33.602 0l-60 58.801c-33.602 33.602-52.801 79.199-52.801 127.2s19.199 93.602 52.801 127.2c34.801 34.801 81.602 52.801 127.2 52.801 45.602 0 92.398-18 127.2-52.801l58.801-58.801c9.6016-9.6016 9.6016-24 0-33.602-9.6016-9.6016-24-9.6016-33.602 0l-58.797 58.805c-51.602 51.602-135.6 51.602-187.2 0-25.199-25.199-38.398-57.602-38.398-93.602s13.199-68.398 38.398-93.602z"/>
  <path d="m744 642c-9.6016 9.6016-9.6016 24 0 33.602 4.8008 4.8008 10.801 7.1992 16.801 7.1992s12-2.3984 16.801-7.1992l60-60c33.602-33.602 52.801-79.199 52.801-127.2s-19.199-93.602-52.801-127.2c-69.602-69.602-184.8-69.602-254.4 0l-60 58.801c-9.6016 9.6016-9.6016 24 0 33.602 9.6016 9.6016 24 9.6016 33.602 0l60-58.801c51.602-51.602 135.6-51.602 187.2 0 25.199 25.199 38.398 57.602 38.398 93.602-0.003906 35.992-14.402 69.594-38.402 94.793z"/>
  <path d="m702 498c-9.6016-9.6016-24-9.6016-33.602 0l-170.4 170.4c-9.6016 9.6016-9.6016 24 0 33.602 4.8008 4.8008 10.801 7.1992 16.801 7.1992s12-2.3984 16.801-7.1992l169.2-169.2c10.801-9.6016 10.801-25.199 1.1992-34.801z"/>
 </g>
</svg>
