<?xml version="1.0" encoding="UTF-8" standalone="no"?>
<svg
   version="1.1"
   preserveAspectRatio="xMidYMid"
   viewBox="-1 220.15294 231.38926 204.0509"
   width="230"
   height="200"
   id="svg570"
   sodipodi:docname="vyne-logo-dots.svg"
   inkscape:version="1.2.1 (9c6d41e410, 2022-07-14)"
   xmlns:inkscape="http://www.inkscape.org/namespaces/inkscape"
   xmlns:sodipodi="http://sodipodi.sourceforge.net/DTD/sodipodi-0.dtd"
   xmlns:xlink="http://www.w3.org/1999/xlink"
   xmlns="http://www.w3.org/2000/svg"
   xmlns:svg="http://www.w3.org/2000/svg">
  <sodipodi:namedview
     id="namedview572"
     pagecolor="#ffffff"
     bordercolor="#000000"
     borderopacity="0.25"
     inkscape:showpageshadow="2"
     inkscape:pageopacity="0.0"
     inkscape:pagecheckerboard="0"
     inkscape:deskcolor="#d1d1d1"
     showgrid="false"
     inkscape:zoom="1.1937882"
     inkscape:cx="330.04178"
     inkscape:cy="96.750827"
     inkscape:window-width="1920"
     inkscape:window-height="1112"
     inkscape:window-x="-8"
     inkscape:window-y="-8"
     inkscape:window-maximized="1"
     inkscape:current-layer="svg570" />
  <defs
     id="defs470">
    <path
       d="M 19.75,221.15 C 8.84,221.15 0,229.99 0,240.9 c 0,10.9 8.84,19.74 19.75,19.74 10.9,0 19.74,-8.84 19.74,-19.74 0,-10.91 -8.84,-19.75 -19.74,-19.75 z"
       id="cEOyw7E4p" />
    <path
       d="m 202.53,221.15 c -10.9,0 -19.74,8.84 -19.74,19.75 0,10.9 8.84,19.74 19.74,19.74 10.91,0 19.75,-8.84 19.75,-19.74 0,-10.91 -8.84,-19.75 -19.75,-19.75 z"
       id="a7j5gB2zyt" />
    <path
       d="m 64.97,300.26 c -10.91,0 -19.75,8.84 -19.75,19.74 0,10.91 8.84,19.75 19.75,19.75 10.9,0 19.75,-8.84 19.75,-19.75 0,-10.9 -8.85,-19.74 -19.75,-19.74 z"
       id="c1gSEtBLxN" />
    <path
       d="m 110.64,221.15 c -10.9,0 -19.74,8.84 -19.74,19.75 0,10.9 8.84,19.74 19.74,19.74 10.91,0 19.75,-8.84 19.75,-19.74 0,-10.91 -8.84,-19.75 -19.75,-19.75 z"
       id="d7s3yxvKVd" />
    <path
       d="m 118.02,259.2 c -2.69,-1.55 -24.2,-13.97 -26.89,-15.52 4.02,24.63 -9.7,48.72 -32.94,57.83 2.63,1.52 23.66,13.66 26.29,15.18 -1.83,-11.88 0.44,-24.02 6.45,-34.44 6.09,-10.58 15.67,-18.73 27.09,-23.05 z"
       id="c1ceoovGsn" />
    <path
       d="m 110.64,379.36 c -10.9,0 -19.74,8.84 -19.74,19.74 0,10.91 8.84,19.75 19.74,19.75 10.91,0 19.75,-8.84 19.75,-19.75 0,-10.9 -8.84,-19.74 -19.75,-19.74 z"
       id="h2ajX2YWvZ" />
    <path
       d="m 156.31,300.26 c -10.9,0 -19.75,8.84 -19.75,19.74 0,10.91 8.85,19.75 19.75,19.75 10.91,0 19.75,-8.84 19.75,-19.75 0,-10.9 -8.84,-19.74 -19.75,-19.74 z"
       id="d7ygZUYr0" />
    <path
       d="m 163.7,338.34 c -2.69,-1.56 -24.2,-13.99 -26.89,-15.54 4,24.64 -9.75,48.74 -33,57.84 2.63,1.51 23.67,13.66 26.3,15.18 -1.83,-11.88 0.47,-24.03 6.49,-34.43 6.1,-10.59 15.67,-18.73 27.1,-23.05 z"
       id="brs6V9VJW" />
    <path
       d="m 388,245.83 -0.59,1.48 -16.84,42.6 -27.29,69.11 H 323.43 L 278.75,245.83 h 25.63 c 13.71,35.9 21.32,55.84 22.84,59.83 0.42,1.09 0.94,2.68 1.67,4.7 0.72,2.03 1.39,4.24 2.09,6.51 0.7,2.27 1.31,4.43 1.82,6.53 0.4,1.53 0.72,3.08 0.95,4.64 0.04,0 0.41,0 0.46,0 0.2,-1.57 0.52,-3.12 0.94,-4.64 0.54,-2.1 1.16,-4.28 1.82,-6.53 0.67,-2.25 1.36,-4.43 2.06,-6.51 0.69,-2.08 1.25,-3.66 1.66,-4.7 1.13,-2.97 6.8,-17.8 16.99,-44.5 0.3,-0.81 0.47,-1.26 0.51,-1.35 3.59,-8.48 11.91,-13.99 21.12,-13.98 1.16,0 4.06,0 8.69,0 z"
       id="ahIBtOqwf" />
    <linearGradient
       id="gradientc2fJoGTvr"
       gradientUnits="userSpaceOnUse"
       x1="278.75"
       y1="302.42001"
       x2="388"
       y2="302.42001">
      <stop
         style="stop-color: #fdedf4;stop-opacity: 1"
         offset="0%"
         id="stop447" />
      <stop
         style="stop-color: #f0e5f1;stop-opacity: 1"
         offset="100%"
         id="stop449" />
    </linearGradient>
    <path
       d="m 473.18,279.36 c -21.37,51.29 -33.25,79.79 -35.62,85.49 -1.35,3.24 -2.85,6.41 -4.52,9.5 -0.06,0.11 -0.53,0.98 -0.59,1.09 -0.61,1.08 -1.27,2.13 -1.98,3.15 -6.13,7.98 -16.75,11.03 -26.18,7.53 0.9,-2.1 8.11,-18.89 9.01,-20.99 0.2,-0.43 0.39,-0.87 0.57,-1.33 l 3.18,-7.39 -6.1,-14.64 -21.83,-52.35 -4.21,-10.08 h 25.01 c 8.87,24.7 13.8,38.43 14.79,41.17 0.23,0.96 0.52,1.9 0.85,2.82 0.69,2.09 1.36,4.15 1.51,4.61 0.54,1.68 1.02,3.29 1.43,4.84 0.32,1.13 0.58,2.27 0.78,3.43 0.03,0 0.27,0 0.31,0 0.16,-1.02 0.38,-2.03 0.65,-3.03 0.34,-1.29 0.74,-2.69 1.2,-4.22 0.46,-1.52 0.94,-3 1.39,-4.44 0.45,-1.44 0.89,-2.69 1.25,-3.77 0.99,-2.76 5.94,-16.59 14.87,-41.48 z"
       id="br6kjWoK" />
    <linearGradient
       id="gradientb27kVqylcp"
       gradientUnits="userSpaceOnUse"
       x1="384.91"
       y1="333.45999"
       x2="473.17999"
       y2="333.45999">
      <stop
         style="stop-color: #fdedf4;stop-opacity: 1"
         offset="0%"
         id="stop453" />
      <stop
         style="stop-color: #f0e5f1;stop-opacity: 1"
         offset="100%"
         id="stop455" />
    </linearGradient>
    <path
       d="m 560.31,359.02 c -12.63,-0.03 -22.84,-10.28 -22.84,-22.91 0,-2.04 0,-18.4 0,-20.45 0.02,-2.59 -0.21,-5.17 -0.69,-7.72 -0.41,-2.19 -1.21,-4.3 -2.37,-6.22 -1.1,-1.77 -2.67,-3.2 -4.53,-4.13 -2.28,-1.05 -4.78,-1.55 -7.29,-1.46 -8.89,0 -11.56,4.97 -12.84,5.52 -2.64,3.68 -3.95,8.4 -3.95,14.16 v 43.22 h -23.02 v -79.67 h 21.53 v 10.89 c 0.18,0 0.29,0 0.31,0 2.52,-3.66 5.78,-6.75 9.57,-9.08 5.87,-3.68 14.14,-3.33 15.72,-3.7 15.56,0 20.69,8.47 22.99,9.41 4.95,6.28 7.42,14.68 7.41,25.22 0,28.16 0,43.79 0,46.92 z"
       id="g3gwxpx5c" />
    <linearGradient
       id="gradientn4BpthaGmF"
       gradientUnits="userSpaceOnUse"
       x1="482.78"
       y1="318.23999"
       x2="560.28998"
       y2="318.23999">
      <stop
         style="stop-color: #fdedf4;stop-opacity: 1"
         offset="0%"
         id="stop459" />
      <stop
         style="stop-color: #f0e5f1;stop-opacity: 1"
         offset="100%"
         id="stop461" />
    </linearGradient>
    <path
       d="m 643.43,287.87 c -3.62,-3.51 -7.91,-6.26 -12.61,-8.08 -5.1,-1.92 -10.57,-2.69 -16,-2.23 -8.76,0.62 -16.94,5.79 -18.82,6.43 -10.07,5.81 -13.47,11.86 -14.97,13.18 -6.2,8.85 -8.31,19.93 -5.81,30.45 0.96,4.26 2.48,8.37 4.52,12.23 0.23,0.43 0.46,0.87 0.71,1.28 2.6,4.5 5.98,8.51 9.97,11.84 2.8,2.37 5.92,4.34 9.27,5.83 1.47,0.65 2.97,1.21 4.5,1.68 5.44,1.59 11.15,2.04 16.77,1.32 5.64,-0.74 11.1,-2.49 16.12,-5.18 1,-0.52 2.02,-1.07 3.05,-1.65 10.86,-6.27 14.76,-12.83 16.4,-14.25 3.48,-4.79 5.67,-10.4 6.36,-16.28 -0.02,0 -0.12,-0.04 -0.32,-0.1 0,0 0,0 0,0 -5.55,-1.2 -11.35,-0.29 -16.26,2.56 -2.17,1.24 -4.12,2.83 -5.77,4.71 -0.3,0.4 -0.62,0.8 -0.94,1.19 -0.03,0.02 -0.06,0.05 -0.08,0.09 -2.16,2.32 -4.68,4.29 -7.45,5.83 -2.41,1.4 -5,2.47 -7.7,3.17 -2.56,0.69 -5.22,0.9 -7.86,0.63 -2.61,-0.28 -5.12,-1.13 -7.38,-2.47 -2.46,-1.49 -4.59,-3.49 -6.24,-5.86 5.19,-2.99 46.72,-26.97 51.91,-29.96 -0.7,-1.83 -1.57,-3.59 -2.59,-5.25 -2.4,-4.09 -5.35,-7.83 -8.78,-11.11 z m -47.46,34.48 c -2.59,-8.04 -0.06,-12.7 -0.07,-14.11 1.69,-4.07 4.71,-7.44 8.56,-9.58 3.75,-2.27 8.16,-3.18 12.5,-2.58 4.3,0.62 8.35,3.01 12.15,7.17 -17.68,10.19 -28.72,16.56 -33.14,19.1 z"
       id="ccG3nlg73" />
    <linearGradient
       id="gradientb1NJ9sixKz"
       gradientUnits="userSpaceOnUse"
       x1="574.21997"
       y1="319.78"
       x2="662.89001"
       y2="319.78">
      <stop
         style="stop-color: #fdedf4;stop-opacity: 1"
         offset="0%"
         id="stop465" />
      <stop
         style="stop-color: #f0e5f1;stop-opacity: 1"
         offset="100%"
         id="stop467" />
    </linearGradient>
    <clipPath
       clipPathUnits="userSpaceOnUse"
       id="clipPath717">
      <use
         x="0"
         y="0"
         xlink:href="#g713"
         id="use719" />
    </clipPath>
    <clipPath
       clipPathUnits="userSpaceOnUse"
       id="clipPath725">
      <rect
         style="fill:none;stroke-width:1.02025"
         id="rect727"
         width="235.87955"
         height="199.1302"
         x="-3.1473298"
         y="221.86221" />
    </clipPath>
  </defs>
  <g
     id="g715"
     clip-path="url(#clipPath725)"
     transform="translate(5.0443896,1.2122129)">
    <g
       inkscape:label="Clip"
       id="g713">
      <g
         id="g568"
         transform="translate(-2.5639043,1.7092726)">
        <g
           id="g478">
          <use
             xlink:href="#cEOyw7E4p"
             opacity="1"
             fill-opacity="1"
             id="use472" />
          <g
             id="g476">
            <use
               xlink:href="#cEOyw7E4p"
               opacity="1"
               fill-opacity="0"
               stroke="#000000"
               stroke-width="1"
               stroke-opacity="0"
               id="use474" />
          </g>
        </g>
        <g
           id="g486">
          <use
             xlink:href="#a7j5gB2zyt"
             opacity="1"
             fill-opacity="1"
             id="use480" />
          <g
             id="g484">
            <use
               xlink:href="#a7j5gB2zyt"
               opacity="1"
               fill-opacity="0"
               stroke="#000000"
               stroke-width="1"
               stroke-opacity="0"
               id="use482" />
          </g>
        </g>
        <g
           id="g494">
          <use
             xlink:href="#c1gSEtBLxN"
             opacity="1"
             fill-opacity="1"
             id="use488" />
          <g
             id="g492">
            <use
               xlink:href="#c1gSEtBLxN"
               opacity="1"
               fill-opacity="0"
               stroke="#000000"
               stroke-width="1"
               stroke-opacity="0"
               id="use490" />
          </g>
        </g>
        <g
           id="g502">
          <use
             xlink:href="#d7s3yxvKVd"
             opacity="1"
             fill-opacity="1"
             id="use496" />
          <g
             id="g500">
            <use
               xlink:href="#d7s3yxvKVd"
               opacity="1"
               fill-opacity="0"
               stroke="#000000"
               stroke-width="1"
               stroke-opacity="0"
               id="use498" />
          </g>
        </g>
        <g
           id="g510">
          <use
             xlink:href="#c1ceoovGsn"
             opacity="1"
             fill-opacity="1"
             id="use504" />
          <g
             id="g508">
            <use
               xlink:href="#c1ceoovGsn"
               opacity="1"
               fill-opacity="0"
               stroke="#000000"
               stroke-width="1"
               stroke-opacity="0"
               id="use506" />
          </g>
        </g>
        <g
           id="g518">
          <use
             xlink:href="#h2ajX2YWvZ"
             opacity="1"
             fill-opacity="1"
             id="use512" />
          <g
             id="g516">
            <use
               xlink:href="#h2ajX2YWvZ"
               opacity="1"
               fill-opacity="0"
               stroke="#000000"
               stroke-width="1"
               stroke-opacity="0"
               id="use514" />
          </g>
        </g>
        <g
           id="g526">
          <use
             xlink:href="#d7ygZUYr0"
             opacity="1"
             fill-opacity="1"
             id="use520" />
          <g
             id="g524">
            <use
               xlink:href="#d7ygZUYr0"
               opacity="1"
               fill-opacity="0"
               stroke="#000000"
               stroke-width="1"
               stroke-opacity="0"
               id="use522" />
          </g>
        </g>
        <g
           id="g534">
          <use
             xlink:href="#brs6V9VJW"
             opacity="1"   
             fill-opacity="1"
             id="use528" />
          <g
             id="g532">
            <use
               xlink:href="#brs6V9VJW"
               opacity="1"
               fill-opacity="0"
               stroke="#000000"
               stroke-width="1"
               stroke-opacity="0"
               id="use530" />
          </g>
        </g>
        <g
           id="g542">
          <use
             xlink:href="#ahIBtOqwf"
             opacity="1"
             fill="url(#gradientc2fJoGTvr)"
             id="use536"
             style="fill:url(#gradientc2fJoGTvr)" />
          <g
             id="g540">
            <use
               xlink:href="#ahIBtOqwf"
               opacity="1"
               fill-opacity="0"
               stroke="#000000"
               stroke-width="1"
               stroke-opacity="0"
               id="use538" />
          </g>
        </g>
        <g
           id="g550">
          <use
             xlink:href="#br6kjWoK"
             opacity="1"
             fill="url(#gradientb27kVqylcp)"
             id="use544"
             style="fill:url(#gradientb27kVqylcp)" />
          <g
             id="g548">
            <use
               xlink:href="#br6kjWoK"
               opacity="1"
               fill-opacity="0"
               stroke="#000000"
               stroke-width="1"
               stroke-opacity="0"
               id="use546" />
          </g>
        </g>
        <g
           id="g558">
          <use
             xlink:href="#g3gwxpx5c"
             opacity="1"
             fill="url(#gradientn4BpthaGmF)"
             id="use552"
             style="fill:url(#gradientn4BpthaGmF)" />
          <g
             id="g556">
            <use
               xlink:href="#g3gwxpx5c"
               opacity="1"
               fill-opacity="0"
               stroke="#000000"
               stroke-width="1"
               stroke-opacity="0"
               id="use554" />
          </g>
        </g>
        <g
           id="g566">
          <use
             xlink:href="#ccG3nlg73"
             opacity="1"
             fill="url(#gradientb1NJ9sixKz)"
             id="use560"
             style="fill:url(#gradientb1NJ9sixKz)" />
          <g
             id="g564">
            <use
               xlink:href="#ccG3nlg73"
               opacity="1"
               fill-opacity="0"
               stroke="#000000"
               stroke-width="1"
               stroke-opacity="0"
               id="use562" />
          </g>
        </g>
      </g>
    </g>
  </g>
</svg>
