<svg xmlns="http://www.w3.org/2000/svg" xmlns:xlink="http://www.w3.org/1999/xlink" viewBox="0 0 680 210.05">
  <defs>
    <style>.cls-1 {
      fill: #0f9cd8;
    }

    .cls-2 {
      fill: #f99c25;
    }

    .cls-3 {
      fill: #e0187f;
    }

    .cls-4 {
      fill: #e2157f;
    }

    .cls-5 {
      fill: url(#linear-gradient);
    }

    .cls-6 {
      fill: url(#linear-gradient-2);
    }

    .cls-7 {
      fill: url(#linear-gradient-3);
    }

    .cls-8 {
      fill: url(#linear-gradient-4);
    }</style>
    <linearGradient id="linear-gradient" x1="271.85" y1="87.93" x2="387.93" y2="87.93" gradientUnits="userSpaceOnUse">
      <stop offset="0" stop-color="#fdedf4"/>
      <stop offset="1" stop-color="#f0e5f1"/>
    </linearGradient>
    <linearGradient id="linear-gradient-2" x1="384.64" y1="120.91" x2="478.43" y2="120.91"
                    xlink:href="#linear-gradient"/>
    <linearGradient id="linear-gradient-3" x1="488.63" y1="104.74" x2="570.98" y2="104.74"
                    xlink:href="#linear-gradient"/>
    <linearGradient id="linear-gradient-4" x1="585.78" y1="106.38" x2="680" y2="106.38" xlink:href="#linear-gradient"/>
  </defs>
  <g id="Layer_2" data-name="Layer 2">
    <g id="Your_design" data-name="Your design">
      <circle class="cls-1" cx="20.98" cy="20.98" r="20.98"/>
      <circle class="cls-2" cx="215.19" cy="20.98" r="20.98"/>
      <circle class="cls-3" cx="69.03" cy="105.03" r="20.98"/>
      <circle class="cls-4" cx="117.56" cy="20.98" r="20.98"/>
      <path class="cls-4"
            d="M96.61,64.92A56.12,56.12,0,0,1,125.4,40.43L96.83,23.93a56.27,56.27,0,0,1-35,61.45l27.93,16.13A56.13,56.13,0,0,1,96.61,64.92Z"/>
      <circle class="cls-1" cx="117.56" cy="189.07" r="20.98"/>
      <circle class="cls-1" cx="166.08" cy="105.03" r="20.98"/>
      <path class="cls-1"
            d="M145.14,149a56.09,56.09,0,0,1,28.79-24.49L145.36,108a56.3,56.3,0,0,1-35.06,61.45l27.94,16.13A56,56,0,0,1,145.14,149Z"/>
      <path class="cls-5"
            d="M387.93,27.8l-.63,1.58L369.41,74.64l-29,73.43H319.32L271.85,27.8h27.23l24.27,63.57c.44,1.16,1,2.85,1.77,5s1.48,4.5,2.22,6.91,1.39,4.71,1.94,6.94a44.93,44.93,0,0,1,1,4.93h.49a36.6,36.6,0,0,1,1-4.93c.58-2.23,1.23-4.55,1.94-6.94s1.44-4.7,2.18-6.91,1.33-3.89,1.77-5l18.05-47.28.54-1.43A24.36,24.36,0,0,1,378.69,27.8Z"/>
      <path class="cls-6"
            d="M478.43,63.43l-37.85,90.83a110.51,110.51,0,0,1-4.8,10.1l-.63,1.15a37.24,37.24,0,0,1-2.1,3.35,24.38,24.38,0,0,1-27.82,8l9.58-22.3q.31-.68.6-1.41l3.38-7.86-6.48-15.55-23.2-55.62-4.47-10.71h26.57l15.72,43.74a29.86,29.86,0,0,0,.9,3q.74,2.22,1.61,4.89c.57,1.79,1.08,3.5,1.52,5.15a33.76,33.76,0,0,1,.82,3.64h.33a31.34,31.34,0,0,1,.69-3.22c.37-1.37.79-2.86,1.28-4.48s1-3.19,1.48-4.72.94-2.86,1.32-4l15.8-44.08Z"/>
      <path class="cls-7"
            d="M571,98.22v49.85a24.33,24.33,0,0,1-24.26-24.34V102a42.8,42.8,0,0,0-.74-8.2,19.9,19.9,0,0,0-2.51-6.61,12,12,0,0,0-4.82-4.39,17,17,0,0,0-7.74-1.55q-9.45,0-13.65,5.86t-4.19,15.05v45.92H488.63V63.43H511.5V75h.33A33.91,33.91,0,0,1,522,65.35q6.24-3.91,16.7-3.93,16.54,0,24.43,10T571,98.22Z"/>
      <path class="cls-8"
            d="M668.65,84.27a54.55,54.55,0,0,0-9.33-11.8,39.76,39.76,0,0,0-13.4-8.58,38.82,38.82,0,0,0-17-2.37q-9.31.66-20,6.83t-15.9,14a40.19,40.19,0,0,0-6.17,32.35,52.56,52.56,0,0,0,4.8,13c.24.46.49.92.75,1.36A47.08,47.08,0,0,0,603,141.64a40.9,40.9,0,0,0,9.85,6.19,42,42,0,0,0,4.78,1.79,43.6,43.6,0,0,0,17.81,1.4,50.08,50.08,0,0,0,17.13-5.5c1.07-.55,2.15-1.14,3.24-1.76q11.54-6.66,17.43-15.14A36.65,36.65,0,0,0,680,111.33l-.34-.11h0a24.23,24.23,0,0,0-17.28,2.72,24,24,0,0,0-6.13,5c-.32.43-.66.85-1,1.27a.26.26,0,0,0-.09.09,32,32,0,0,1-7.91,6.2,33.09,33.09,0,0,1-8.18,3.37,23.16,23.16,0,0,1-8.35.67,19.45,19.45,0,0,1-7.84-2.63,21.85,21.85,0,0,1-6.63-6.22l55.15-31.84A33.73,33.73,0,0,0,668.65,84.27Zm-59.76,24.84q-2.75-8.55-.07-15a20.7,20.7,0,0,1,9.09-10.17,20.33,20.33,0,0,1,13.29-2.75q6.85,1,12.9,7.62Z"/>
    </g>
  </g>
</svg>
