<?xml version="1.0" encoding="UTF-8" standalone="no"?>
<svg version="1.1" xmlns="http://www.w3.org/2000/svg" xmlns:xlink="http://www.w3.org/1999/xlink" preserveAspectRatio="xMidYMid meet" viewBox="-1.0000000000000036 220.1529411764706 666.8940512375159 201.69411764705885" width="662.89" height="197.69"><defs><path d="M19.75 221.15C8.84 221.15 0 229.99 0 240.9C0 251.8 8.84 260.64 19.75 260.64C30.65 260.64 39.49 251.8 39.49 240.9C39.49 229.99 30.65 221.15 19.75 221.15Z" id="cEOyw7E4p"></path><path d="M202.53 221.15C191.63 221.15 182.79 229.99 182.79 240.9C182.79 251.8 191.63 260.64 202.53 260.64C213.44 260.64 222.28 251.8 222.28 240.9C222.28 229.99 213.44 221.15 202.53 221.15Z" id="a7j5gB2zyt"></path><path d="M64.97 300.26C54.06 300.26 45.22 309.1 45.22 320C45.22 330.91 54.06 339.75 64.97 339.75C75.87 339.75 84.72 330.91 84.72 320C84.72 309.1 75.87 300.26 64.97 300.26Z" id="c1gSEtBLxN"></path><path d="M110.64 221.15C99.74 221.15 90.9 229.99 90.9 240.9C90.9 251.8 99.74 260.64 110.64 260.64C121.55 260.64 130.39 251.8 130.39 240.9C130.39 229.99 121.55 221.15 110.64 221.15Z" id="d7s3yxvKVd"></path><path d="M118.02 259.2C115.33 257.65 93.82 245.23 91.13 243.68C95.15 268.31 81.43 292.4 58.19 301.51C60.82 303.03 81.85 315.17 84.48 316.69C82.65 304.81 84.92 292.67 90.93 282.25C97.02 271.67 106.6 263.52 118.02 259.2Z" id="c1ceoovGsn"></path><path d="M110.64 379.36C99.74 379.36 90.9 388.2 90.9 399.1C90.9 410.01 99.74 418.85 110.64 418.85C121.55 418.85 130.39 410.01 130.39 399.1C130.39 388.2 121.55 379.36 110.64 379.36Z" id="h2ajX2YWvZ"></path><path d="M156.31 300.26C145.41 300.26 136.56 309.1 136.56 320C136.56 330.91 145.41 339.75 156.31 339.75C167.22 339.75 176.06 330.91 176.06 320C176.06 309.1 167.22 300.26 156.31 300.26Z" id="d7ygZUYr0"></path><path d="M163.7 338.34C161.01 336.78 139.5 324.35 136.81 322.8C140.81 347.44 127.06 371.54 103.81 380.64C106.44 382.15 127.48 394.3 130.11 395.82C128.28 383.94 130.58 371.79 136.6 361.39C142.7 350.8 152.27 342.66 163.7 338.34Z" id="brs6V9VJW"></path><path d="M388 245.83L387.41 247.31L370.57 289.91L343.28 359.02L323.43 359.02L278.75 245.83L304.38 245.83C318.09 281.73 325.7 301.67 327.22 305.66C327.64 306.75 328.16 308.34 328.89 310.36C329.61 312.39 330.28 314.6 330.98 316.87C331.68 319.14 332.29 321.3 332.8 323.4C333.2 324.93 333.52 326.48 333.75 328.04C333.79 328.04 334.16 328.04 334.21 328.04C334.41 326.47 334.73 324.92 335.15 323.4C335.69 321.3 336.31 319.12 336.97 316.87C337.64 314.62 338.33 312.44 339.03 310.36C339.72 308.28 340.28 306.7 340.69 305.66C341.82 302.69 347.49 287.86 357.68 261.16C357.98 260.35 358.15 259.9 358.19 259.81C361.78 251.33 370.1 245.82 379.31 245.83C380.47 245.83 383.37 245.83 388 245.83Z" id="ahIBtOqwf"></path><linearGradient id="gradientc2fJoGTvr" gradientUnits="userSpaceOnUse" x1="278.75" y1="302.42" x2="388" y2="302.42"><stop style="stop-color: #fdedf4;stop-opacity: 1" offset="0%"></stop><stop style="stop-color: #f0e5f1;stop-opacity: 1" offset="100%"></stop></linearGradient><path d="M473.18 279.36C451.81 330.65 439.93 359.15 437.56 364.85C436.21 368.09 434.71 371.26 433.04 374.35C432.98 374.46 432.51 375.33 432.45 375.44C431.84 376.52 431.18 377.57 430.47 378.59C424.34 386.57 413.72 389.62 404.29 386.12C405.19 384.02 412.4 367.23 413.3 365.13C413.5 364.7 413.69 364.26 413.87 363.8L417.05 356.41L410.95 341.77L389.12 289.42L384.91 279.34L409.92 279.34C418.79 304.04 423.72 317.77 424.71 320.51C424.94 321.47 425.23 322.41 425.56 323.33C426.25 325.42 426.92 327.48 427.07 327.94C427.61 329.62 428.09 331.23 428.5 332.78C428.82 333.91 429.08 335.05 429.28 336.21C429.31 336.21 429.55 336.21 429.59 336.21C429.75 335.19 429.97 334.18 430.24 333.18C430.58 331.89 430.98 330.49 431.44 328.96C431.9 327.44 432.38 325.96 432.83 324.52C433.28 323.08 433.72 321.83 434.08 320.75C435.07 317.99 440.02 304.16 448.95 279.27L473.18 279.36Z" id="br6kjWoK"></path><linearGradient id="gradientb27kVqylcp" gradientUnits="userSpaceOnUse" x1="384.91" y1="333.46" x2="473.18" y2="333.46"><stop style="stop-color: #fdedf4;stop-opacity: 1" offset="0%"></stop><stop style="stop-color: #f0e5f1;stop-opacity: 1" offset="100%"></stop></linearGradient><path d="M560.31 359.02C547.68 358.99 537.47 348.74 537.47 336.11C537.47 334.07 537.47 317.71 537.47 315.66C537.49 313.07 537.26 310.49 536.78 307.94C536.37 305.75 535.57 303.64 534.41 301.72C533.31 299.95 531.74 298.52 529.88 297.59C527.6 296.54 525.1 296.04 522.59 296.13C513.7 296.13 511.03 301.1 509.75 301.65C507.11 305.33 505.8 310.05 505.8 315.81L505.8 359.03L482.78 359.03L482.78 279.36L504.31 279.36L504.31 290.25C504.49 290.25 504.6 290.25 504.62 290.25C507.14 286.59 510.4 283.5 514.19 281.17C520.06 277.49 528.33 277.84 529.91 277.47C545.47 277.47 550.6 285.94 552.9 286.88C557.85 293.16 560.32 301.56 560.31 312.1C560.31 340.26 560.31 355.89 560.31 359.02Z" id="g3gwxpx5c"></path><linearGradient id="gradientn4BpthaGmF" gradientUnits="userSpaceOnUse" x1="482.78" y1="318.24" x2="560.29" y2="318.24"><stop style="stop-color: #fdedf4;stop-opacity: 1" offset="0%"></stop><stop style="stop-color: #f0e5f1;stop-opacity: 1" offset="100%"></stop></linearGradient><path d="M643.43 287.87C639.81 284.36 635.52 281.61 630.82 279.79C625.72 277.87 620.25 277.1 614.82 277.56C606.06 278.18 597.88 283.35 596 283.99C585.93 289.8 582.53 295.85 581.03 297.17C574.83 306.02 572.72 317.1 575.22 327.62C576.18 331.88 577.7 335.99 579.74 339.85C579.97 340.28 580.2 340.72 580.45 341.13C583.05 345.63 586.43 349.64 590.42 352.97C593.22 355.34 596.34 357.31 599.69 358.8C601.16 359.45 602.66 360.01 604.19 360.48C609.63 362.07 615.34 362.52 620.96 361.8C626.6 361.06 632.06 359.31 637.08 356.62C638.08 356.1 639.1 355.55 640.13 354.97C650.99 348.7 654.89 342.14 656.53 340.72C660.01 335.93 662.2 330.32 662.89 324.44C662.87 324.44 662.77 324.4 662.57 324.34C662.57 324.34 662.57 324.34 662.57 324.34C657.02 323.14 651.22 324.05 646.31 326.9C644.14 328.14 642.19 329.73 640.54 331.61C640.24 332.01 639.92 332.41 639.6 332.8C639.57 332.82 639.54 332.85 639.52 332.89C637.36 335.21 634.84 337.18 632.07 338.72C629.66 340.12 627.07 341.19 624.37 341.89C621.81 342.58 619.15 342.79 616.51 342.52C613.9 342.24 611.39 341.39 609.13 340.05C606.67 338.56 604.54 336.56 602.89 334.19C608.08 331.2 649.61 307.22 654.8 304.23C654.1 302.4 653.23 300.64 652.21 298.98C649.81 294.89 646.86 291.15 643.43 287.87ZM595.97 322.35C593.38 314.31 595.91 309.65 595.9 308.24C597.59 304.17 600.61 300.8 604.46 298.66C608.21 296.39 612.62 295.48 616.96 296.08C621.26 296.7 625.31 299.09 629.11 303.25C611.43 313.44 600.39 319.81 595.97 322.35Z" id="ccG3nlg73"></path><linearGradient id="gradientb1NJ9sixKz" gradientUnits="userSpaceOnUse" x1="574.22" y1="319.78" x2="662.89" y2="319.78"><stop style="stop-color: #fdedf4;stop-opacity: 1" offset="0%"></stop><stop style="stop-color: #f0e5f1;stop-opacity: 1" offset="100%"></stop></linearGradient></defs><g><g><use xlink:href="#cEOyw7E4p" opacity="1" fill="#0f9cd8" fill-opacity="1"></use><g><use xlink:href="#cEOyw7E4p" opacity="1" fill-opacity="0" stroke="#000000" stroke-width="1" stroke-opacity="0"></use></g></g><g><use xlink:href="#a7j5gB2zyt" opacity="1" fill="#f99c25" fill-opacity="1"></use><g><use xlink:href="#a7j5gB2zyt" opacity="1" fill-opacity="0" stroke="#000000" stroke-width="1" stroke-opacity="0"></use></g></g><g><use xlink:href="#c1gSEtBLxN" opacity="1" fill="#e0187f" fill-opacity="1"></use><g><use xlink:href="#c1gSEtBLxN" opacity="1" fill-opacity="0" stroke="#000000" stroke-width="1" stroke-opacity="0"></use></g></g><g><use xlink:href="#d7s3yxvKVd" opacity="1" fill="#e2157f" fill-opacity="1"></use><g><use xlink:href="#d7s3yxvKVd" opacity="1" fill-opacity="0" stroke="#000000" stroke-width="1" stroke-opacity="0"></use></g></g><g><use xlink:href="#c1ceoovGsn" opacity="1" fill="#e2157f" fill-opacity="1"></use><g><use xlink:href="#c1ceoovGsn" opacity="1" fill-opacity="0" stroke="#000000" stroke-width="1" stroke-opacity="0"></use></g></g><g><use xlink:href="#h2ajX2YWvZ" opacity="1" fill="#0f9cd8" fill-opacity="1"></use><g><use xlink:href="#h2ajX2YWvZ" opacity="1" fill-opacity="0" stroke="#000000" stroke-width="1" stroke-opacity="0"></use></g></g><g><use xlink:href="#d7ygZUYr0" opacity="1" fill="#0f9cd8" fill-opacity="1"></use><g><use xlink:href="#d7ygZUYr0" opacity="1" fill-opacity="0" stroke="#000000" stroke-width="1" stroke-opacity="0"></use></g></g><g><use xlink:href="#brs6V9VJW" opacity="1" fill="#0f9cd8" fill-opacity="1"></use><g><use xlink:href="#brs6V9VJW" opacity="1" fill-opacity="0" stroke="#000000" stroke-width="1" stroke-opacity="0"></use></g></g><g><use xlink:href="#ahIBtOqwf" opacity="1" fill="url(#gradientc2fJoGTvr)"></use><g><use xlink:href="#ahIBtOqwf" opacity="1" fill-opacity="0" stroke="#000000" stroke-width="1" stroke-opacity="0"></use></g></g><g><use xlink:href="#br6kjWoK" opacity="1" fill="url(#gradientb27kVqylcp)"></use><g><use xlink:href="#br6kjWoK" opacity="1" fill-opacity="0" stroke="#000000" stroke-width="1" stroke-opacity="0"></use></g></g><g><use xlink:href="#g3gwxpx5c" opacity="1" fill="url(#gradientn4BpthaGmF)"></use><g><use xlink:href="#g3gwxpx5c" opacity="1" fill-opacity="0" stroke="#000000" stroke-width="1" stroke-opacity="0"></use></g></g><g><use xlink:href="#ccG3nlg73" opacity="1" fill="url(#gradientb1NJ9sixKz)"></use><g><use xlink:href="#ccG3nlg73" opacity="1" fill-opacity="0" stroke="#000000" stroke-width="1" stroke-opacity="0"></use></g></g></g></svg>
